<?xml version="1.0" standalone="no"?>
<!DOCTYPE svg PUBLIC "-//W3C//DTD SVG 1.1//EN" "http://www.w3.org/Graphics/SVG/1.1/DTD/svg11.dtd" >
<svg xmlns="http://www.w3.org/2000/svg" width="100%" height="100%">
<metadata>
Created by FontXChange 20100429 at Fri Apr 12 18:45:15 2013
 By Pankaj
Copyright (c) 2008 - 2009 Linotype GmbH, www.linotype.com. All rights reserved. This font software may not be reproduced, modified, disclosed or transferred without the express written approval of Linotype GmbH.
</metadata>
<defs>
<font id="DINNextLTPro-HeavyCondensed" horiz-adv-x="437" >
  <font-face 
    font-family="DIN Next LT Pro"
    font-weight="750"
    font-stretch="condensed"
    units-per-em="1000"
    panose-1="2 11 9 6 2 2 3 5 2 3"
    ascent="750"
    descent="-250"
    x-height="487"
    cap-height="680"
    bbox="-103.617 -242 973 912"
    underline-thickness="50"
    underline-position="-50"
    stemh="119"
    stemv="100"
    unicode-range="U+0020-FB04"
  />
<missing-glyph horiz-adv-x="443" 
d="M0 10v660c0 6 4 10 10 10h423c6 0 10 -4 10 -10v-660c0 -6 -4 -10 -10 -10h-423c-6 0 -10 4 -10 10zM72 73c0 -4 2 -6 6 -6h287c4 0 6 2 6 6v534c0 4 -2 6 -6 6h-287c-4 0 -6 -2 -6 -6v-534zM182 249c-6 0 -10 4 -10 10v26c0 20 4 34 17 53l33 51c15 23 19 34 19 58
c0 9 -1 15 -3 20c-3 8 -9 13 -20 13c-10 0 -16 -5 -19 -13c-2 -5 -3 -11 -3 -33c0 -7 -5 -10 -11 -9l-75 8c-6 0 -9 5 -9 11c0 23 2 35 7 48c15 42 53 71 112 71c60 0 97 -29 112 -71c5 -13 7 -26 7 -44c0 -30 -7 -51 -26 -81l-33 -51c-10 -14 -13 -23 -13 -37v-20
c0 -6 -4 -10 -10 -10h-75zM175 124v80c0 6 4 10 10 10h72c6 0 10 -4 10 -10v-80c0 -6 -4 -10 -10 -10h-72c-6 0 -10 4 -10 10z" />
    <glyph glyph-name="napostrophe" unicode="&#x22;n" horiz-adv-x="435" 
d="M-43 475c-6 0 -10 3 -10 10v185c0 6 4 10 10 10h93c6 0 10 -4 10 -10v-84c0 -11 -3 -17 -9 -24l-82 -81c-3 -4 -7 -6 -12 -6zM392 0h-131c-6 0 -10 4 -10 10v311c0 31 -11 45 -32 45c-22 0 -33 -14 -33 -45v-311c0 -6 -4 -10 -10 -10h-131c-6 0 -10 4 -10 10v467
c0 6 4 10 10 10h130c6 0 10 -4 10 -10v-37h1c17 33 50 57 99 57c83 0 117 -47 117 -150v-337c0 -6 -4 -10 -10 -10z" />
    <glyph glyph-name="IJ" unicode="IJ" horiz-adv-x="620" 
d="M37 10v660c0 6 4 10 10 10h139c6 0 10 -4 10 -10v-660c0 -6 -4 -10 -10 -10h-139c-6 0 -10 4 -10 10zM245 48c-5 5 -4 9 1 14l84 85c5 5 11 5 17 0c10 -9 22 -15 35 -15c28 0 42 16 42 51v487c0 6 4 10 10 10h139c6 0 10 -4 10 -10v-472c0 -142 -75 -208 -198 -208
c-58 0 -111 23 -140 58z" />
    <glyph glyph-name="ij" unicode="ij" horiz-adv-x="443" 
d="M176 550h-131c-6 0 -10 4 -10 10v110c0 6 4 10 10 10h131c6 0 10 -4 10 -10v-110c0 -6 -4 -10 -10 -10zM176 0h-131c-6 0 -10 4 -10 10v467c0 6 4 10 10 10h131c6 0 10 -4 10 -10v-467c0 -6 -4 -10 -10 -10zM397 550h-131c-6 0 -10 4 -10 10v110c0 6 4 10 10 10h131
c6 0 10 -4 10 -10v-110c0 -6 -4 -10 -10 -10zM222 -180h-21c-6 0 -10 4 -10 10v110c0 6 4 10 10 10l14 1c29 2 41 15 41 57v469c0 6 4 10 10 10h131c6 0 10 -4 10 -10v-463c0 -129 -61 -194 -185 -194z" />
    <glyph glyph-name="fi" unicode="fi" horiz-adv-x="526" 
d="M481 550h-131c-6 0 -10 4 -10 10v110c0 6 4 10 10 10h131c6 0 10 -4 10 -10v-110c0 -6 -4 -10 -10 -10zM481 0h-131c-6 0 -10 4 -10 10v467c0 6 4 10 10 10h131c6 0 10 -4 10 -10v-467c0 -6 -4 -10 -10 -10zM204 0h-131c-6 0 -10 4 -10 10v360c0 4 -2 6 -6 6h-31
c-6 0 -10 4 -10 10v91c0 6 4 10 10 10h31c4 0 6 2 6 6v18c0 117 59 169 181 169h35c6 0 10 -4 10 -10v-107c0 -6 -4 -10 -10 -10h-26c-28 0 -39 -11 -39 -35v-25c0 -4 2 -6 6 -6h59c6 0 10 -4 10 -10v-91c0 -6 -4 -10 -10 -10h-59c-4 0 -6 -2 -6 -6v-360
c0 -6 -4 -10 -10 -10z" />
    <glyph glyph-name="fl" unicode="fl" horiz-adv-x="565" 
d="M537 -6h-21c-122 1 -175 43 -175 180v496c0 6 4 10 10 10h131c6 0 10 -4 10 -10v-495c0 -33 15 -48 39 -50l6 -1c6 0 10 -5 10 -11v-109c0 -6 -4 -10 -10 -10zM204 0h-131c-6 0 -10 4 -10 10v360c0 4 -2 6 -6 6h-31c-6 0 -10 4 -10 10v91c0 6 4 10 10 10h31c4 0 6 2 6 6
v18c0 117 59 169 181 169h35c6 0 10 -4 10 -10v-107c0 -6 -4 -10 -10 -10h-26c-28 0 -39 -11 -39 -35v-25c0 -4 2 -6 6 -6h59c6 0 10 -4 10 -10v-91c0 -6 -4 -10 -10 -10h-59c-4 0 -6 -2 -6 -6v-360c0 -6 -4 -10 -10 -10z" />
    <glyph glyph-name="f_f" unicode="ff" horiz-adv-x="612" 
d="M204 0h-131c-6 0 -10 4 -10 10v360c0 4 -2 6 -6 6h-31c-6 0 -10 4 -10 10v91c0 6 4 10 10 10h31c4 0 6 2 6 6v18c0 117 59 169 181 169h35c6 0 10 -4 10 -10v-107c0 -6 -4 -10 -10 -10h-26c-28 0 -39 -11 -39 -35v-25c0 -4 2 -6 6 -6h59c6 0 10 -4 10 -10v-91
c0 -6 -4 -10 -10 -10h-59c-4 0 -6 -2 -6 -6v-360c0 -6 -4 -10 -10 -10zM509 0h-131c-6 0 -10 4 -10 10v360c0 4 -2 6 -6 6h-31c-6 0 -10 4 -10 10v91c0 6 4 10 10 10h31c4 0 6 2 6 6v18c0 117 59 169 181 169h35c6 0 10 -4 10 -10v-107c0 -6 -4 -10 -10 -10h-26
c-28 0 -39 -11 -39 -35v-25c0 -4 2 -6 6 -6h59c6 0 10 -4 10 -10v-91c0 -6 -4 -10 -10 -10h-59c-4 0 -6 -2 -6 -6v-360c0 -6 -4 -10 -10 -10z" />
    <glyph glyph-name="f_f_i" unicode="ffi" horiz-adv-x="832" 
d="M787 550h-131c-6 0 -10 4 -10 10v110c0 6 4 10 10 10h131c6 0 10 -4 10 -10v-110c0 -6 -4 -10 -10 -10zM787 0h-131c-6 0 -10 4 -10 10v467c0 6 4 10 10 10h131c6 0 10 -4 10 -10v-467c0 -6 -4 -10 -10 -10zM204 0h-131c-6 0 -10 4 -10 10v360c0 4 -2 6 -6 6h-31
c-6 0 -10 4 -10 10v91c0 6 4 10 10 10h31c4 0 6 2 6 6v18c0 117 59 169 181 169h35c6 0 10 -4 10 -10v-107c0 -6 -4 -10 -10 -10h-26c-28 0 -39 -11 -39 -35v-25c0 -4 2 -6 6 -6h59c6 0 10 -4 10 -10v-91c0 -6 -4 -10 -10 -10h-59c-4 0 -6 -2 -6 -6v-360
c0 -6 -4 -10 -10 -10zM509 0h-131c-6 0 -10 4 -10 10v360c0 4 -2 6 -6 6h-31c-6 0 -10 4 -10 10v91c0 6 4 10 10 10h31c4 0 6 2 6 6v18c0 117 59 169 181 169h35c6 0 10 -4 10 -10v-107c0 -6 -4 -10 -10 -10h-26c-28 0 -39 -11 -39 -35v-25c0 -4 2 -6 6 -6h59
c6 0 10 -4 10 -10v-91c0 -6 -4 -10 -10 -10h-59c-4 0 -6 -2 -6 -6v-360c0 -6 -4 -10 -10 -10z" />
    <glyph glyph-name="f_f_l" unicode="ffl" horiz-adv-x="871" 
d="M843 -6h-21c-122 1 -175 43 -175 180v496c0 6 4 10 10 10h131c6 0 10 -4 10 -10v-495c0 -33 15 -48 39 -50l6 -1c6 0 10 -5 10 -11v-109c0 -6 -4 -10 -10 -10zM204 0h-131c-6 0 -10 4 -10 10v360c0 4 -2 6 -6 6h-31c-6 0 -10 4 -10 10v91c0 6 4 10 10 10h31c4 0 6 2 6 6
v18c0 117 59 169 181 169h35c6 0 10 -4 10 -10v-107c0 -6 -4 -10 -10 -10h-26c-28 0 -39 -11 -39 -35v-25c0 -4 2 -6 6 -6h59c6 0 10 -4 10 -10v-91c0 -6 -4 -10 -10 -10h-59c-4 0 -6 -2 -6 -6v-360c0 -6 -4 -10 -10 -10zM509 0h-131c-6 0 -10 4 -10 10v360c0 4 -2 6 -6 6
h-31c-6 0 -10 4 -10 10v91c0 6 4 10 10 10h31c4 0 6 2 6 6v18c0 117 59 169 181 169h35c6 0 10 -4 10 -10v-107c0 -6 -4 -10 -10 -10h-26c-28 0 -39 -11 -39 -35v-25c0 -4 2 -6 6 -6h59c6 0 10 -4 10 -10v-91c0 -6 -4 -10 -10 -10h-59c-4 0 -6 -2 -6 -6v-360
c0 -6 -4 -10 -10 -10z" />
    <glyph glyph-name=".notdef" horiz-adv-x="443" 
d="M0 10v660c0 6 4 10 10 10h423c6 0 10 -4 10 -10v-660c0 -6 -4 -10 -10 -10h-423c-6 0 -10 4 -10 10zM72 73c0 -4 2 -6 6 -6h287c4 0 6 2 6 6v534c0 4 -2 6 -6 6h-287c-4 0 -6 -2 -6 -6v-534zM182 249c-6 0 -10 4 -10 10v26c0 20 4 34 17 53l33 51c15 23 19 34 19 58
c0 9 -1 15 -3 20c-3 8 -9 13 -20 13c-10 0 -16 -5 -19 -13c-2 -5 -3 -11 -3 -33c0 -7 -5 -10 -11 -9l-75 8c-6 0 -9 5 -9 11c0 23 2 35 7 48c15 42 53 71 112 71c60 0 97 -29 112 -71c5 -13 7 -26 7 -44c0 -30 -7 -51 -26 -81l-33 -51c-10 -14 -13 -23 -13 -37v-20
c0 -6 -4 -10 -10 -10h-75zM175 124v80c0 6 4 10 10 10h72c6 0 10 -4 10 -10v-80c0 -6 -4 -10 -10 -10h-72c-6 0 -10 4 -10 10z" />
    <glyph glyph-name=".null" horiz-adv-x="500" 
 />
    <glyph glyph-name="CR" horiz-adv-x="0" 
 />
    <glyph glyph-name="space" unicode=" " horiz-adv-x="195" 
 />
    <glyph glyph-name="exclam" unicode="!" horiz-adv-x="255" 
d="M88 208c-6 0 -10 4 -10 10l-28 452c0 6 4 10 10 10h135c6 0 10 -4 10 -10l-27 -452c0 -6 -4 -10 -10 -10h-80zM58 10v135c0 6 4 10 10 10h120c6 0 10 -4 10 -10v-135c0 -6 -4 -10 -10 -10h-120c-6 0 -10 4 -10 10z" />
    <glyph glyph-name="quotedbl" unicode="&#x22;" horiz-adv-x="327" 
d="M194 460c-6 0 -10 4 -10 10v200c0 6 4 10 10 10h88c6 0 10 -4 10 -10v-200c0 -6 -4 -10 -10 -10h-88zM45 460c-6 0 -10 4 -10 10v200c0 6 4 10 10 10h88c6 0 10 -4 10 -10v-200c0 -6 -4 -10 -10 -10h-88z" />
    <glyph glyph-name="numbersign" unicode="#" horiz-adv-x="522" 
d="M71 10l19 184h-48c-6 0 -10 4 -10 10v84c0 6 4 10 10 10h59l9 92h-49c-6 0 -10 4 -10 10v83c0 6 4 10 10 10h60l19 177c1 6 4 10 11 10h98c7 0 10 -4 9 -10l-19 -177h65l19 177c1 6 4 10 11 10h98c7 0 10 -4 9 -10l-19 -177h58c6 0 10 -4 10 -10v-83c0 -6 -4 -10 -10 -10
h-69l-9 -92h59c6 0 10 -4 10 -10v-84c0 -6 -4 -10 -10 -10h-70l-19 -184c-1 -6 -4 -10 -11 -10h-98c-7 0 -10 4 -9 10l19 184h-65l-19 -184c-1 -6 -4 -10 -11 -10h-98c-7 0 -10 4 -9 10zM219 298h65l9 92h-65z" />
    <glyph glyph-name="dollar" unicode="$" 
d="M175 -7c-104 13 -143 80 -146 181c0 6 2 11 8 12l122 21c8 1 11 -3 11 -9c2 -64 16 -80 46 -80c28 0 40 12 40 71c0 53 -11 71 -59 90l-41 16c-87 34 -121 87 -121 194c0 115 44 183 140 198v61c0 6 4 10 10 10h69c6 0 10 -4 10 -10v-62c89 -14 129 -74 137 -168
c0 -7 -3 -10 -9 -11l-121 -19c-6 -1 -10 2 -11 8c-3 51 -14 66 -40 66s-37 -15 -37 -59c0 -42 9 -60 60 -80l41 -16c90 -35 120 -87 120 -201c0 -128 -45 -197 -140 -212v-68c0 -6 -4 -10 -10 -10h-69c-6 0 -10 4 -10 10v67z" />
    <glyph glyph-name="percent" unicode="%" horiz-adv-x="740" 
d="M192 0l254 680c2 6 7 10 14 10h81c6 0 9 -4 7 -10l-254 -680c-2 -6 -7 -10 -13 -10h-82c-6 0 -9 4 -7 10zM176 329c-60 0 -99 28 -114 73c-6 20 -8 36 -8 106c0 71 2 87 8 107c15 44 54 72 114 72c61 0 99 -28 114 -72c6 -20 8 -36 8 -107c0 -70 -2 -86 -8 -106
c-15 -45 -53 -73 -114 -73zM176 411c10 0 17 6 19 13c2 5 3 17 3 84s-1 79 -3 84c-2 7 -9 13 -19 13s-17 -6 -19 -13c-2 -5 -3 -17 -3 -84s1 -79 3 -84c2 -7 9 -13 19 -13zM450 66c-6 20 -8 36 -8 106c0 71 2 87 8 107c15 44 54 72 114 72c61 0 99 -28 114 -72
c6 -20 8 -36 8 -107c0 -70 -2 -86 -8 -106c-15 -45 -53 -73 -114 -73c-60 0 -99 28 -114 73zM545 88c2 -7 9 -13 19 -13s17 6 19 13c2 5 3 17 3 84s-1 79 -3 84c-2 7 -9 13 -19 13s-17 -6 -19 -13c-2 -5 -3 -17 -3 -84s1 -79 3 -84z" />
    <glyph glyph-name="ampersand" unicode="&#x26;" horiz-adv-x="553" 
d="M45 154c0 68 31 126 107 205c-45 67 -72 116 -72 173c0 95 69 158 170 158c100 0 169 -63 169 -158c0 -57 -30 -112 -101 -186l51 -77l39 57c4 5 9 6 15 2l81 -58c5 -4 5 -9 2 -14l-66 -94l14 -21c11 -17 21 -20 37 -20h6c6 0 10 -4 10 -10v-101c0 -6 -4 -10 -10 -10h-46
c-45 0 -67 9 -93 48l-1 2c-42 -44 -87 -60 -146 -60c-96 0 -166 63 -166 164zM248 455c31 36 38 57 38 84c0 26 -14 42 -36 42c-24 0 -36 -16 -36 -42c0 -17 9 -41 34 -84zM185 167c0 -31 18 -48 44 -48c18 0 34 7 58 36l-63 96c-29 -35 -39 -59 -39 -84z" />
    <glyph glyph-name="quotesingle" unicode="'" horiz-adv-x="178" 
d="M45 460c-6 0 -10 4 -10 10v200c0 6 4 10 10 10h88c6 0 10 -4 10 -10v-200c0 -6 -4 -10 -10 -10h-88z" />
    <glyph glyph-name="parenleft" unicode="(" horiz-adv-x="281" 
d="M141 -74c-60 120 -88 265 -88 402s28 282 88 402c3 6 7 10 13 10h88c6 0 9 -4 7 -10c-36 -120 -57 -265 -57 -402s21 -282 57 -402c2 -6 -1 -10 -7 -10h-88c-6 0 -10 4 -13 10z" />
    <glyph glyph-name="parenright" unicode=")" horiz-adv-x="281" 
d="M32 -74c36 120 57 265 57 402s-21 282 -57 402c-2 6 1 10 7 10h88c6 0 10 -4 13 -10c60 -120 88 -265 88 -402s-28 -282 -88 -402c-3 -6 -7 -10 -13 -10h-88c-6 0 -9 4 -7 10z" />
    <glyph glyph-name="asterisk" unicode="*" horiz-adv-x="366" 
d="M151 355c-6 0 -10 4 -10 10l1 81l-57 -34c-5 -3 -11 -1 -13 4l-32 55c-3 5 -2 11 3 14l58 32l-58 33c-5 3 -6 9 -3 14l32 55c3 5 8 7 13 4l57 -35l-1 82c0 6 4 10 10 10h64c6 0 10 -4 10 -10l-2 -82l58 35c5 3 11 1 13 -4l33 -55c3 -5 2 -11 -3 -14l-59 -33l59 -32
c5 -3 6 -9 3 -14l-33 -55c-3 -5 -8 -7 -13 -4l-58 34l2 -81c0 -6 -4 -10 -10 -10h-64z" />
    <glyph glyph-name="plus" unicode="+" 
d="M157 95v115c0 4 -2 6 -6 6h-112c-6 0 -10 4 -10 10v100c0 6 4 10 10 10h112c4 0 6 2 6 6v115c0 6 4 10 10 10h103c6 0 10 -4 10 -10v-115c0 -4 2 -6 6 -6h112c6 0 10 -4 10 -10v-100c0 -6 -4 -10 -10 -10h-112c-4 0 -6 -2 -6 -6v-115c0 -6 -4 -10 -10 -10h-103
c-6 0 -10 4 -10 10z" />
    <glyph glyph-name="comma" unicode="," horiz-adv-x="212" 
d="M40 -92v237c0 6 4 10 10 10h112c6 0 10 -4 10 -10v-112c0 -12 -2 -19 -9 -27l-101 -103c-3 -3 -7 -5 -12 -5c-6 0 -10 3 -10 10z" />
    <glyph glyph-name="hyphen" unicode="-" horiz-adv-x="357" 
d="M45 197c-6 0 -10 4 -10 10v116c0 6 4 10 10 10h268c6 0 10 -4 10 -10v-116c0 -6 -4 -10 -10 -10h-268z" />
    <glyph glyph-name="period" unicode="." horiz-adv-x="221" 
d="M40 10v135c0 6 4 10 10 10h121c6 0 10 -4 10 -10v-135c0 -6 -4 -10 -10 -10h-121c-6 0 -10 4 -10 10z" />
    <glyph glyph-name="slash" unicode="/" horiz-adv-x="284" 
d="M16 0l124 680c1 6 6 10 13 10h107c6 0 9 -4 8 -10l-124 -680c-1 -6 -6 -10 -13 -10h-107c-6 0 -9 4 -8 10z" />
    <glyph glyph-name="zero" unicode="0" 
d="M46 103c-9 28 -14 62 -14 237s5 209 14 237c24 73 83 113 172 113s148 -40 172 -113c9 -28 14 -62 14 -237s-5 -209 -14 -237c-24 -73 -83 -113 -172 -113s-148 40 -172 113zM188 139c4 -13 14 -21 30 -21s26 8 30 21c3 8 4 19 4 201s-1 193 -4 201c-4 13 -14 21 -30 21
s-26 -8 -30 -21c-3 -8 -4 -19 -4 -201s1 -193 4 -201z" />
    <glyph glyph-name="one" unicode="1" 
d="M165 10v502h-2l-84 -59c-5 -4 -11 -2 -11 7v134c0 6 2 10 8 15l88 65c5 4 9 6 16 6h126c6 0 10 -4 10 -10v-660c0 -6 -4 -10 -10 -10h-131c-6 0 -10 4 -10 10z" />
    <glyph glyph-name="two" unicode="2" 
d="M36 10v108c0 6 1 12 5 18l172 250c28 40 36 60 36 115c0 25 -1 33 -3 40c-5 13 -14 21 -30 21s-26 -8 -31 -21c-2 -7 -3 -15 -3 -53c0 -8 -5 -11 -12 -10l-124 12c-7 1 -10 5 -10 12c0 35 2 58 9 79c21 69 81 109 173 109c93 0 150 -41 173 -109c6 -20 9 -44 9 -80
c0 -76 -13 -117 -55 -176l-134 -191v-1h179c6 0 10 -4 10 -10v-113c0 -6 -4 -10 -10 -10h-344c-6 0 -10 4 -10 10z" />
    <glyph glyph-name="three" unicode="3" 
d="M45 99c-7 21 -10 44 -10 71c0 7 3 11 10 12l124 12c7 1 12 -2 12 -10c0 -30 1 -39 4 -46c5 -13 14 -20 30 -20s26 7 30 21c2 7 3 16 3 61c0 44 -1 54 -3 61c-5 16 -18 21 -39 21h-16c-6 0 -10 4 -10 10v114c0 6 4 10 10 10h19c19 0 31 5 36 20c2 6 3 14 3 58
c0 31 -1 40 -3 47c-4 14 -14 21 -30 21s-25 -7 -30 -20c-3 -7 -4 -23 -4 -46c0 -8 -5 -11 -12 -10l-124 12c-7 1 -10 5 -10 12c0 27 3 50 10 71c22 68 80 109 172 109c93 0 149 -40 172 -109c7 -20 10 -45 10 -87c0 -34 -2 -53 -9 -72c-10 -29 -28 -50 -55 -66v-2
c28 -16 46 -35 56 -66c6 -17 8 -35 8 -90c0 -54 -3 -79 -10 -99c-23 -69 -79 -109 -172 -109c-92 0 -150 41 -172 109z" />
    <glyph glyph-name="four" unicode="4" 
d="M32 104c-6 0 -10 4 -10 10v122c0 4 1 8 2 11l129 425c2 6 5 8 11 8h130c6 0 9 -3 7 -10l-128 -431v-2h61c4 0 6 2 6 6v119c0 6 4 10 10 10h122c6 0 10 -4 10 -10v-119c0 -4 1 -6 5 -6h26c6 0 10 -4 10 -10v-113c0 -6 -4 -10 -10 -10h-25c-4 0 -6 -2 -6 -6v-88
c0 -6 -4 -10 -10 -10h-122c-6 0 -10 4 -10 10v88c0 4 -2 6 -6 6h-202z" />
    <glyph glyph-name="five" unicode="5" 
d="M45 99c-7 21 -9 44 -9 66c0 7 3 11 10 12l124 12c7 1 12 -2 12 -10c0 -25 1 -33 3 -40c5 -13 15 -21 31 -21s25 7 30 21c2 7 3 16 3 83s-1 76 -3 83c-5 14 -15 21 -31 21c-18 0 -28 -9 -33 -25c-2 -6 -6 -10 -13 -10h-115c-6 0 -9 4 -9 10v369c0 6 4 10 10 10h333
c6 0 10 -4 10 -10v-113c0 -6 -4 -10 -10 -10h-204c-4 0 -6 -2 -6 -6v-115h2c14 12 39 24 77 24c68 0 111 -28 131 -88c9 -25 12 -53 12 -140c0 -78 -3 -103 -9 -123c-23 -68 -81 -109 -173 -109s-152 40 -173 109z" />
    <glyph glyph-name="six" unicode="6" 
d="M44 100c-7 21 -10 44 -10 101c0 91 11 134 38 193l127 277c3 6 8 9 15 9h132c7 0 10 -5 7 -12l-116 -261c1 0 1 -1 2 -2c4 2 14 4 25 4c66 0 108 -37 128 -99c7 -22 11 -49 11 -109c0 -57 -3 -80 -10 -101c-23 -71 -83 -110 -175 -110c-91 0 -151 39 -174 110zM188 139
c5 -13 15 -21 30 -21c16 0 26 8 31 21c2 7 3 16 3 62s-1 54 -3 61c-5 14 -15 21 -31 21c-15 0 -25 -7 -30 -21c-2 -7 -3 -15 -3 -61s1 -55 3 -62z" />
    <glyph glyph-name="seven" unicode="7" 
d="M86 12l166 536v2h-81c-4 0 -6 -2 -6 -6v-49c0 -6 -4 -10 -10 -10h-109c-6 0 -10 4 -10 10v175c0 6 4 10 10 10h348c6 0 10 -4 10 -10v-106c0 -5 -1 -8 -2 -12l-164 -542c-2 -7 -6 -10 -13 -10h-132c-7 0 -10 4 -7 12z" />
    <glyph glyph-name="eight" unicode="8" 
d="M44 100c-7 21 -10 44 -10 98c0 47 2 68 10 91c10 32 30 53 50 65v2c-23 14 -41 37 -51 70c-7 20 -9 41 -9 71c0 39 3 62 10 83c23 71 83 110 174 110c92 0 152 -39 175 -110c7 -21 10 -44 10 -83c0 -30 -2 -51 -9 -71c-10 -33 -29 -56 -51 -70v-2c20 -12 39 -33 50 -65
c8 -23 10 -44 10 -91c0 -54 -3 -77 -10 -98c-23 -71 -83 -110 -175 -110c-91 0 -151 39 -174 110zM218 413c16 0 26 7 31 21c2 7 3 15 3 53s-1 47 -3 54c-5 13 -15 21 -31 21c-15 0 -25 -8 -30 -21c-2 -7 -3 -16 -3 -54s1 -46 3 -53c5 -14 15 -21 30 -21zM188 139
c5 -13 15 -21 30 -21c16 0 26 8 31 21c2 7 3 15 3 63c0 47 -1 55 -3 62c-5 13 -15 21 -31 21c-15 0 -25 -8 -30 -21c-2 -7 -3 -15 -3 -62c0 -48 1 -56 3 -63z" />
    <glyph glyph-name="nine" unicode="9" 
d="M84 12l116 261c-1 0 -1 1 -2 2c-4 -2 -14 -4 -25 -4c-66 0 -108 37 -128 99c-7 22 -11 49 -11 109c0 57 3 80 10 101c23 71 83 110 175 110c91 0 151 -39 174 -110c7 -21 10 -44 10 -101c0 -91 -11 -134 -38 -193l-127 -277c-3 -6 -8 -9 -15 -9h-132c-7 0 -10 5 -7 12z
M219 397c15 0 25 7 30 21c2 7 3 15 3 61s-1 55 -3 62c-5 13 -15 21 -30 21c-16 0 -26 -8 -31 -21c-2 -7 -3 -16 -3 -62s1 -54 3 -61c5 -14 15 -21 31 -21z" />
    <glyph glyph-name="colon" unicode=":" horiz-adv-x="229" 
d="M54 332c-6 0 -10 4 -10 10v135c0 6 4 10 10 10h121c6 0 10 -4 10 -10v-135c0 -6 -4 -10 -10 -10h-121zM44 10v135c0 6 4 10 10 10h121c6 0 10 -4 10 -10v-135c0 -6 -4 -10 -10 -10h-121c-6 0 -10 4 -10 10z" />
    <glyph glyph-name="semicolon" unicode=";" horiz-adv-x="229" 
d="M54 332c-6 0 -10 4 -10 10v135c0 6 4 10 10 10h121c6 0 10 -4 10 -10v-135c0 -6 -4 -10 -10 -10h-121zM47 -86v231c0 6 4 10 10 10h112c6 0 10 -4 10 -10v-106c0 -12 -2 -19 -9 -27l-101 -102c-3 -4 -7 -6 -12 -6c-6 0 -10 4 -10 10z" />
    <glyph glyph-name="less" unicode="&#x3c;" 
d="M39 218c-6 2 -10 7 -10 14v88c0 7 4 12 10 14l359 143c6 2 10 -1 10 -7v-109c0 -6 -3 -10 -10 -13l-191 -71v-2l191 -71c7 -3 10 -7 10 -13v-109c0 -6 -4 -9 -10 -7z" />
    <glyph glyph-name="equal" unicode="=" 
d="M39 311c-6 0 -10 4 -10 10v99c0 6 4 10 10 10h359c6 0 10 -4 10 -10v-99c0 -6 -4 -10 -10 -10h-359zM39 122c-6 0 -10 4 -10 10v99c0 6 4 10 10 10h359c6 0 10 -4 10 -10v-99c0 -6 -4 -10 -10 -10h-359z" />
    <glyph glyph-name="greater" unicode="&#x3e;" 
d="M39 75c-6 -2 -10 1 -10 7v109c0 6 3 10 10 13l190 71v2l-190 71c-7 3 -10 7 -10 13v109c0 6 4 9 10 7l359 -143c6 -2 10 -7 10 -14v-88c0 -7 -4 -12 -10 -14z" />
    <glyph glyph-name="question" unicode="?" horiz-adv-x="416" 
d="M136 208c-6 0 -10 4 -10 10v44c0 32 9 54 27 83l50 79c22 34 28 51 28 89c0 12 -1 21 -3 28c-5 14 -14 21 -30 21s-26 -7 -31 -21c-2 -7 -3 -15 -3 -53c0 -8 -5 -11 -12 -10l-124 13c-7 1 -10 5 -10 12c0 37 3 57 9 76c23 70 83 111 173 111c93 0 151 -43 173 -111
c6 -19 9 -40 9 -66c0 -42 -11 -77 -39 -122l-50 -79c-15 -23 -21 -37 -21 -58v-36c0 -6 -4 -10 -10 -10h-126zM131 10v135c0 6 4 10 10 10h121c6 0 10 -4 10 -10v-135c0 -6 -4 -10 -10 -10h-121c-6 0 -10 4 -10 10z" />
    <glyph glyph-name="at" unicode="@" horiz-adv-x="725" 
d="M50 70c-13 40 -20 86 -20 200c0 113 7 158 20 198c44 134 162 210 313 210c150 0 268 -76 312 -210c13 -40 20 -85 20 -198c0 -78 -4 -102 -11 -122c-21 -66 -77 -93 -139 -93c-61 0 -105 25 -126 68h-1c-16 -47 -47 -68 -102 -68c-46 0 -80 18 -95 65
c-8 25 -12 57 -12 145c0 89 3 121 11 146c16 47 46 65 92 65c41 0 62 -16 78 -48h2v30c0 6 4 10 10 10h104c6 0 10 -4 10 -10v-263c0 -23 12 -35 30 -35c13 0 23 7 27 18c2 6 3 12 3 92c0 108 -6 140 -15 168c-27 84 -98 131 -198 131c-101 0 -172 -47 -199 -131
c-9 -28 -15 -60 -15 -168s6 -141 15 -169c27 -85 98 -131 199 -131c61 0 107 13 148 41c5 3 11 2 14 -3l50 -68c3 -5 2 -11 -3 -14c-56 -40 -128 -66 -209 -66c-151 0 -269 77 -313 210zM336 181c4 -13 13 -19 27 -19c13 0 22 6 26 19c2 7 3 14 3 84s-1 78 -3 85
c-4 12 -13 19 -26 19c-14 0 -23 -7 -27 -19c-2 -7 -3 -15 -3 -85s1 -77 3 -84z" />
    <glyph glyph-name="A" unicode="A" horiz-adv-x="488" 
d="M7 10l149 660c2 6 5 10 12 10h155c7 0 11 -4 12 -10l146 -660c2 -7 -2 -10 -8 -10h-138c-7 0 -11 4 -12 10l-18 107h-121l-19 -107c-1 -6 -4 -10 -11 -10h-139c-6 0 -9 4 -8 10zM205 236h79l-37 221h-2z" />
    <glyph glyph-name="B" unicode="B" horiz-adv-x="465" 
d="M37 10v660c0 6 4 10 10 10h198c133 0 190 -59 190 -176c0 -86 -28 -127 -79 -149v-2c51 -15 87 -59 87 -154c0 -147 -71 -199 -204 -199h-192c-6 0 -10 4 -10 10zM202 407h22c41 0 54 16 54 74c0 57 -13 73 -54 73h-22c-4 0 -6 -2 -6 -6v-135c0 -4 2 -6 6 -6zM196 132
c0 -4 2 -6 6 -6h21c45 0 61 18 61 82s-16 81 -61 81h-21c-4 0 -6 -2 -6 -6v-151z" />
    <glyph glyph-name="C" unicode="C" horiz-adv-x="444" 
d="M45 113c-10 31 -15 65 -15 227s5 196 15 227c27 82 87 123 185 123c124 0 190 -69 196 -182c0 -7 -2 -11 -8 -12l-134 -22c-6 -1 -11 2 -11 9c-1 47 -14 65 -41 65c-17 0 -28 -7 -34 -24c-4 -14 -5 -24 -5 -184s1 -170 5 -184c6 -17 17 -24 34 -24c27 0 40 18 41 65
c0 7 5 10 11 9l134 -22c6 -1 8 -5 8 -12c-6 -113 -72 -182 -196 -182c-98 0 -158 41 -185 123z" />
    <glyph glyph-name="D" unicode="D" horiz-adv-x="472" 
d="M37 10v660c0 6 4 10 10 10h189c100 0 162 -36 188 -117c12 -38 19 -86 19 -223s-7 -185 -19 -223c-26 -81 -88 -117 -188 -117h-189c-6 0 -10 4 -10 10zM196 148c0 -4 2 -6 6 -6h19c27 0 43 9 51 32c6 18 9 43 9 166s-3 148 -9 166c-8 23 -24 32 -51 32h-19
c-4 0 -6 -2 -6 -6v-384z" />
    <glyph glyph-name="E" unicode="E" horiz-adv-x="401" 
d="M37 10v660c0 6 4 10 10 10h318c6 0 10 -4 10 -10v-122c0 -6 -4 -10 -10 -10h-163c-4 0 -6 -2 -6 -6v-112c0 -4 2 -6 6 -6h140c6 0 10 -4 10 -10v-122c0 -6 -4 -10 -10 -10h-140c-4 0 -6 -2 -6 -6v-118c0 -4 2 -6 6 -6h163c6 0 10 -4 10 -10v-122c0 -6 -4 -10 -10 -10
h-318c-6 0 -10 4 -10 10z" />
    <glyph glyph-name="F" unicode="F" horiz-adv-x="397" 
d="M37 10v660c0 6 4 10 10 10h318c6 0 10 -4 10 -10v-122c0 -6 -4 -10 -10 -10h-163c-4 0 -6 -2 -6 -6v-120c0 -4 2 -6 6 -6h140c6 0 10 -4 10 -10v-122c0 -6 -4 -10 -10 -10h-140c-4 0 -6 -2 -6 -6v-248c0 -6 -4 -10 -10 -10h-139c-6 0 -10 4 -10 10z" />
    <glyph glyph-name="G" unicode="G" horiz-adv-x="466" 
d="M45 114c-11 34 -15 67 -15 226s4 192 15 226c27 83 92 124 191 124c124 0 191 -70 199 -181c0 -7 -3 -11 -8 -12l-134 -21c-6 -1 -11 2 -11 8c-3 45 -17 64 -46 64c-19 0 -33 -11 -38 -26c-4 -13 -5 -24 -5 -182c0 -156 1 -169 5 -181c5 -16 20 -27 41 -27
c22 0 37 11 42 27c4 11 5 23 5 91c0 4 -2 6 -6 6h-31c-6 0 -10 4 -10 10v103c0 6 4 10 10 10h179c6 0 10 -4 10 -10v-29c0 -159 -4 -191 -15 -225c-27 -83 -92 -125 -187 -125c-99 0 -164 41 -191 124z" />
    <glyph glyph-name="H" unicode="H" horiz-adv-x="478" 
d="M37 10v660c0 6 4 10 10 10h139c6 0 10 -4 10 -10v-246c0 -4 2 -6 6 -6h74c4 0 6 2 6 6v246c0 6 4 10 10 10h139c6 0 10 -4 10 -10v-660c0 -6 -4 -10 -10 -10h-139c-6 0 -10 4 -10 10v261c0 4 -2 6 -6 6h-74c-4 0 -6 -2 -6 -6v-261c0 -6 -4 -10 -10 -10h-139
c-6 0 -10 4 -10 10z" />
    <glyph glyph-name="I" unicode="I" horiz-adv-x="233" 
d="M37 10v660c0 6 4 10 10 10h139c6 0 10 -4 10 -10v-660c0 -6 -4 -10 -10 -10h-139c-6 0 -10 4 -10 10z" />
    <glyph glyph-name="J" unicode="J" horiz-adv-x="386" 
d="M11 48c-5 5 -4 9 1 14l84 85c5 5 11 5 17 0c10 -9 22 -15 35 -15c28 0 42 16 42 51v487c0 6 4 10 10 10h139c6 0 10 -4 10 -10v-472c0 -142 -75 -208 -198 -208c-58 0 -111 23 -140 58z" />
    <glyph glyph-name="K" unicode="K" horiz-adv-x="486" 
d="M37 10v660c0 6 4 10 10 10h139c6 0 10 -4 10 -10v-241l110 242c3 6 7 9 14 9h141c5 0 8 -5 5 -10l-134 -262l146 -398c2 -5 -1 -10 -6 -10h-147c-6 0 -9 3 -10 8l-85 254l-34 -74v-178c0 -6 -4 -10 -10 -10h-139c-6 0 -10 4 -10 10z" />
    <glyph glyph-name="L" unicode="L" horiz-adv-x="398" 
d="M37 10v660c0 6 4 10 10 10h139c6 0 10 -4 10 -10v-522c0 -4 2 -6 6 -6h166c6 0 10 -4 10 -10v-122c0 -6 -4 -10 -10 -10h-321c-6 0 -10 4 -10 10z" />
    <glyph glyph-name="M" unicode="M" horiz-adv-x="576" 
d="M37 10v660c0 6 4 10 10 10h133c8 0 13 -4 15 -10l93 -330h4l90 330c2 6 7 10 15 10h132c6 0 10 -4 10 -10v-660c0 -6 -4 -10 -10 -10h-120c-6 0 -10 4 -10 10v351h-5l-60 -230c-2 -7 -6 -10 -12 -10h-68c-6 0 -10 3 -12 10l-60 230h-5v-351c0 -6 -4 -10 -10 -10h-120
c-6 0 -10 4 -10 10z" />
    <glyph glyph-name="N" unicode="N" horiz-adv-x="491" 
d="M37 10v660c0 6 4 10 10 10h145c8 0 12 -4 14 -10l105 -379h5v379c0 6 4 10 10 10h118c6 0 10 -4 10 -10v-660c0 -6 -4 -10 -10 -10h-142c-8 0 -12 4 -14 10l-107 379h-6v-379c0 -6 -4 -10 -10 -10h-118c-6 0 -10 4 -10 10z" />
    <glyph glyph-name="O" unicode="O" horiz-adv-x="471" 
d="M235 -10c-96 0 -162 42 -189 125c-11 34 -16 66 -16 225s5 191 16 225c27 83 93 125 189 125s163 -42 190 -125c11 -34 16 -66 16 -225s-5 -191 -16 -225c-27 -83 -94 -125 -190 -125zM235 132c20 0 33 10 38 25c4 13 5 25 5 183s-1 170 -5 183c-5 15 -18 25 -38 25
c-19 0 -32 -10 -37 -25c-4 -13 -5 -25 -5 -183s1 -170 5 -183c5 -15 18 -25 37 -25z" />
    <glyph glyph-name="P" unicode="P" horiz-adv-x="463" 
d="M186 0h-139c-6 0 -10 4 -10 10v660c0 6 4 10 10 10h187c127 0 208 -66 208 -219c0 -156 -88 -219 -208 -219h-32c-4 0 -6 -2 -6 -6v-226c0 -6 -4 -10 -10 -10zM225 376c40 0 58 18 58 85s-18 85 -58 85h-23c-4 0 -6 -2 -6 -6v-158c0 -4 2 -6 6 -6h23z" />
    <glyph glyph-name="Q" unicode="Q" horiz-adv-x="473" 
d="M235 -10c-96 0 -162 42 -189 125c-11 34 -16 66 -16 225s5 191 16 225c27 83 93 125 189 125s163 -42 190 -125c11 -34 16 -66 16 -225s-5 -191 -16 -225l-5 -13l56 -67c4 -4 3 -11 -1 -14l-94 -72c-5 -4 -11 -3 -15 2l-44 53c-26 -9 -55 -14 -87 -14zM235 132
c20 0 33 10 38 25c4 13 5 25 5 183s-1 170 -5 183c-5 15 -18 25 -38 25c-19 0 -32 -10 -37 -25c-4 -13 -5 -25 -5 -183s1 -170 5 -183c5 -15 18 -25 37 -25z" />
    <glyph glyph-name="R" unicode="R" horiz-adv-x="473" 
d="M455 0h-148c-7 0 -11 3 -13 9l-69 245h-23c-4 0 -6 -2 -6 -6v-238c0 -6 -4 -10 -10 -10h-139c-6 0 -10 4 -10 10v660c0 6 4 10 10 10h191c122 0 204 -62 204 -215c0 -83 -27 -138 -71 -172l89 -283c2 -5 0 -10 -5 -10zM225 385c40 0 58 19 58 80c0 62 -18 81 -58 81h-23
c-4 0 -6 -2 -6 -6v-149c0 -4 2 -6 6 -6h23z" />
    <glyph glyph-name="S" unicode="S" horiz-adv-x="445" 
d="M425 210c0 -146 -64 -220 -205 -220c-138 0 -198 74 -199 187c0 6 2 11 8 12l132 21c7 1 11 -3 11 -9c1 -51 16 -74 48 -74c29 0 44 16 44 63c0 46 -11 62 -61 81l-41 16c-96 38 -135 92 -135 204c0 129 63 199 194 199c127 0 192 -67 196 -174c0 -6 -3 -10 -9 -11
l-126 -19c-6 -1 -11 2 -11 8c-1 40 -16 59 -44 59c-27 0 -41 -17 -41 -51c0 -39 11 -52 63 -73l41 -16c97 -37 135 -90 135 -203z" />
    <glyph glyph-name="T" unicode="T" horiz-adv-x="440" 
d="M289 0h-139c-6 0 -10 4 -10 10v522c0 4 -2 6 -6 6h-112c-6 0 -10 4 -10 10v122c0 6 4 10 10 10h395c6 0 10 -4 10 -10v-122c0 -6 -4 -10 -10 -10h-112c-4 0 -6 -2 -6 -6v-522c0 -6 -4 -10 -10 -10z" />
    <glyph glyph-name="U" unicode="U" horiz-adv-x="472" 
d="M236 -10c-122 0 -200 70 -200 207v473c0 6 4 10 10 10h139c6 0 10 -4 10 -10v-491c0 -30 15 -47 41 -47s41 17 41 47v491c0 6 4 10 10 10h139c6 0 10 -4 10 -10v-473c0 -137 -78 -207 -200 -207z" />
    <glyph glyph-name="V" unicode="V" horiz-adv-x="460" 
d="M302 0h-143c-6 0 -10 4 -12 10l-137 660c-1 6 2 10 9 10h143c6 0 10 -4 12 -10l57 -399h3l55 399c2 6 6 10 12 10h141c7 0 10 -4 8 -10l-137 -660c-2 -6 -5 -10 -11 -10z" />
    <glyph glyph-name="W" unicode="W" horiz-adv-x="653" 
d="M515 0h-124c-6 0 -10 4 -11 10l-52 368h-2l-52 -368c-2 -6 -6 -10 -12 -10h-124c-6 0 -9 4 -11 10l-116 660c-2 6 1 10 8 10h143c6 0 10 -4 11 -10l42 -396h3l51 396c1 6 5 10 11 10h93c6 0 10 -4 12 -10l53 -396h2l41 396c2 6 6 10 12 10h141c7 0 10 -4 8 -10l-116 -660
c-1 -6 -5 -10 -11 -10z" />
    <glyph glyph-name="X" unicode="X" horiz-adv-x="453" 
d="M435 0h-142c-6 0 -9 4 -11 10l-55 169h-1l-56 -169c-2 -6 -6 -10 -12 -10h-140c-6 0 -10 4 -8 10l133 342l-124 318c-2 6 2 10 8 10h142c6 0 9 -4 11 -10l46 -157h2l46 157c2 6 6 10 12 10h139c6 0 10 -4 8 -10l-123 -318l133 -342c2 -6 -2 -10 -8 -10z" />
    <glyph glyph-name="Y" unicode="Y" horiz-adv-x="441" 
d="M290 0h-139c-6 0 -10 4 -10 10v249l-134 411c-2 7 1 10 8 10h137c7 0 11 -4 12 -10l57 -234h3l55 234c1 6 5 10 12 10h135c7 0 10 -3 8 -10l-134 -411v-249c0 -6 -4 -10 -10 -10z" />
    <glyph glyph-name="Z" unicode="Z" horiz-adv-x="396" 
d="M360 0h-323c-6 0 -10 4 -10 10v117c0 4 2 7 3 10l171 399v2h-155c-6 0 -10 4 -10 10v122c0 6 4 10 10 10h314c6 0 10 -4 10 -10v-118c0 -4 -1 -7 -3 -10l-173 -398v-2h166c6 0 10 -4 10 -10v-122c0 -6 -4 -10 -10 -10z" />
    <glyph glyph-name="bracketleft" unicode="[" horiz-adv-x="277" 
d="M234 -84h-175c-6 0 -10 4 -10 10v804c0 6 4 10 10 10h175c6 0 10 -4 10 -10v-91c0 -6 -4 -10 -10 -10h-49c-4 0 -6 -2 -6 -6v-590c0 -4 2 -6 6 -6h49c6 0 10 -4 10 -10v-91c0 -6 -4 -10 -10 -10z" />
    <glyph glyph-name="backslash" unicode="\" horiz-adv-x="284" 
d="M260 -10h-107c-7 0 -12 4 -13 10l-124 680c-1 6 2 10 8 10h107c7 0 12 -4 13 -10l124 -680c1 -6 -2 -10 -8 -10z" />
    <glyph glyph-name="bracketright" unicode="]" horiz-adv-x="277" 
d="M218 -84h-175c-6 0 -10 4 -10 10v91c0 6 4 10 10 10h49c4 0 6 2 6 6v590c0 4 -2 6 -6 6h-49c-6 0 -10 4 -10 10v91c0 6 4 10 10 10h175c6 0 10 -4 10 -10v-804c0 -6 -4 -10 -10 -10z" />
    <glyph glyph-name="asciicircum" unicode="^" 
d="M406 258h-115c-6 0 -10 3 -13 10l-58 216h-2l-58 -216c-3 -7 -7 -10 -13 -10h-116c-6 0 -9 4 -7 10l130 402c2 6 7 10 14 10h101c7 0 12 -4 14 -10l130 -402c2 -6 -1 -10 -7 -10z" />
    <glyph glyph-name="underscore" unicode="_" horiz-adv-x="456" 
d="M456 -159h-456v95h456v-95z" />
    <glyph glyph-name="grave" unicode="`" horiz-adv-x="444" 
d="M318 546h-96c-8 0 -12 2 -18 10l-97 136c-4 5 -1 10 5 10h121c8 0 12 -3 16 -10l75 -136c3 -6 0 -10 -6 -10z" />
    <glyph glyph-name="a" unicode="a" horiz-adv-x="405" 
d="M363 0h-123c-6 0 -10 4 -10 10v29h-1c-14 -30 -48 -49 -91 -49c-61 0 -117 38 -117 147c0 122 80 156 159 156h44c4 0 6 2 6 6v22c0 34 -13 51 -59 51c-34 0 -60 -11 -80 -25c-7 -5 -13 -4 -15 3l-39 93c-2 6 -1 11 5 15c37 24 89 39 152 39c135 0 179 -58 179 -175v-312
c0 -6 -4 -10 -10 -10zM190 102c24 0 40 17 40 48v42c0 4 -2 6 -6 6h-21c-34 0 -47 -20 -47 -50s11 -46 34 -46z" />
    <glyph glyph-name="b" unicode="b" horiz-adv-x="433" 
d="M283 -10c-48 0 -80 22 -97 58h-1v-38c0 -6 -4 -10 -10 -10h-130c-6 0 -10 4 -10 10v660c0 6 4 10 10 10h131c6 0 10 -4 10 -10v-231h1c18 36 48 58 96 58c58 0 90 -23 108 -77c10 -31 15 -69 15 -177c0 -107 -5 -145 -15 -176c-18 -54 -50 -77 -108 -77zM221 118
c16 0 25 8 30 22c3 9 4 18 4 103c0 86 -1 95 -4 104c-5 14 -14 22 -30 22c-17 0 -26 -8 -31 -22c-3 -9 -4 -18 -4 -104c0 -85 1 -94 4 -103c5 -14 14 -22 31 -22z" />
    <glyph glyph-name="c" unicode="c" horiz-adv-x="391" 
d="M202 -10c-84 0 -141 36 -165 109c-10 30 -13 60 -13 144c0 85 3 115 13 145c24 73 81 109 165 109c98 0 166 -54 173 -147c0 -7 -2 -10 -8 -12l-116 -20c-7 -1 -12 1 -12 9c-2 30 -14 42 -32 42c-15 0 -24 -7 -28 -20c-3 -8 -4 -18 -4 -106c0 -87 1 -97 4 -105
c4 -13 13 -20 28 -20c18 0 30 12 32 42c0 8 5 10 12 9l116 -20c6 -2 8 -5 8 -12c-7 -93 -75 -147 -173 -147z" />
    <glyph glyph-name="d" unicode="d" horiz-adv-x="433" 
d="M388 0h-130c-6 0 -10 4 -10 10v38h-1c-17 -36 -49 -58 -97 -58c-58 0 -90 23 -108 77c-10 31 -15 69 -15 176c0 108 5 146 15 177c18 54 50 77 108 77c48 0 78 -22 96 -58h1v231c0 6 4 10 10 10h131c6 0 10 -4 10 -10v-660c0 -6 -4 -10 -10 -10zM213 118c16 0 25 8 30 22
c3 9 4 18 4 103c0 86 -1 95 -4 104c-5 14 -14 22 -30 22c-17 0 -26 -8 -31 -22c-3 -9 -4 -18 -4 -104c0 -85 1 -94 4 -103c5 -14 14 -22 31 -22z" />
    <glyph glyph-name="e" unicode="e" horiz-adv-x="408" 
d="M204 -10c-89 0 -144 40 -167 110c-9 28 -13 57 -13 143s4 116 13 144c23 70 78 110 167 110s144 -40 167 -110c9 -28 14 -54 14 -179c0 -6 -4 -10 -10 -10h-195c-4 0 -6 -2 -6 -6c0 -41 1 -48 3 -56c5 -14 16 -21 31 -21c18 0 30 10 37 31c2 6 6 9 12 8l115 -23
c6 -1 8 -6 7 -12c-16 -84 -84 -129 -175 -129zM236 293c4 0 6 2 6 6c0 43 -1 53 -4 61c-4 13 -14 21 -30 21s-26 -8 -30 -21c-3 -8 -4 -18 -4 -61c0 -4 2 -6 6 -6h56z" />
    <glyph glyph-name="f" unicode="f" horiz-adv-x="306" 
d="M204 0h-131c-6 0 -10 4 -10 10v360c0 4 -2 6 -6 6h-31c-6 0 -10 4 -10 10v91c0 6 4 10 10 10h31c4 0 6 2 6 6v18c0 117 59 169 181 169h35c6 0 10 -4 10 -10v-107c0 -6 -4 -10 -10 -10h-26c-28 0 -39 -11 -39 -35v-25c0 -4 2 -6 6 -6h59c6 0 10 -4 10 -10v-91
c0 -6 -4 -10 -10 -10h-59c-4 0 -6 -2 -6 -6v-360c0 -6 -4 -10 -10 -10z" />
    <glyph glyph-name="g" unicode="g" horiz-adv-x="433" 
d="M211 -190c-97 0 -162 54 -170 127c0 5 1 10 6 11l120 26c5 2 9 0 11 -6c5 -20 16 -31 35 -31c22 0 34 12 34 44v93h-1c-18 -36 -48 -58 -96 -58c-58 0 -90 23 -108 77c-10 31 -15 69 -15 163s5 132 15 163c18 54 50 77 108 77c48 0 80 -22 97 -58h1v39c0 6 4 10 10 10
h130c6 0 10 -4 10 -10v-478c0 -128 -71 -189 -187 -189zM213 143c16 0 25 8 30 22c3 9 4 18 4 91s-1 82 -4 91c-5 14 -14 22 -30 22c-17 0 -26 -8 -31 -22c-3 -9 -4 -18 -4 -91s1 -82 4 -91c5 -14 14 -22 31 -22z" />
    <glyph glyph-name="h" unicode="h" horiz-adv-x="435" 
d="M392 0h-131c-6 0 -10 4 -10 10v311c0 31 -11 45 -32 45c-22 0 -33 -14 -33 -45v-311c0 -6 -4 -10 -10 -10h-131c-6 0 -10 4 -10 10v660c0 6 4 10 10 10h131c6 0 10 -4 10 -10v-230h1c17 33 49 57 98 57c83 0 117 -47 117 -150v-337c0 -6 -4 -10 -10 -10z" />
    <glyph glyph-name="i" unicode="i" horiz-adv-x="221" 
d="M176 550h-131c-6 0 -10 4 -10 10v110c0 6 4 10 10 10h131c6 0 10 -4 10 -10v-110c0 -6 -4 -10 -10 -10zM176 0h-131c-6 0 -10 4 -10 10v467c0 6 4 10 10 10h131c6 0 10 -4 10 -10v-467c0 -6 -4 -10 -10 -10z" />
    <glyph glyph-name="j" unicode="j" horiz-adv-x="222" 
d="M176 550h-131c-6 0 -10 4 -10 10v110c0 6 4 10 10 10h131c6 0 10 -4 10 -10v-110c0 -6 -4 -10 -10 -10zM1 -180h-21c-6 0 -10 4 -10 10v110c0 6 4 10 10 10l14 1c29 2 41 15 41 57v469c0 6 4 10 10 10h131c6 0 10 -4 10 -10v-463c0 -129 -61 -194 -185 -194z" />
    <glyph glyph-name="k" unicode="k" horiz-adv-x="436" 
d="M423 0h-136c-7 0 -12 4 -15 11l-59 182l-27 -50v-133c0 -6 -4 -10 -10 -10h-131c-6 0 -10 4 -10 10v660c0 6 4 10 10 10h131c6 0 10 -4 10 -10v-339l80 147c3 7 7 9 14 9h135c6 0 8 -5 5 -9l-107 -165l116 -304c2 -4 0 -9 -6 -9z" />
    <glyph glyph-name="l" unicode="l" horiz-adv-x="258" 
d="M231 -6h-21c-122 1 -175 43 -175 180v496c0 6 4 10 10 10h131c6 0 10 -4 10 -10v-495c0 -33 15 -48 39 -50l6 -1c6 0 10 -5 10 -11v-109c0 -6 -4 -10 -10 -10z" />
    <glyph glyph-name="m" unicode="m" horiz-adv-x="651" 
d="M608 0h-131c-6 0 -10 4 -10 10v311c0 31 -11 45 -32 45c-22 0 -33 -14 -33 -45v-311c0 -6 -4 -10 -10 -10h-131c-6 0 -10 4 -10 10v311c0 31 -11 45 -32 45c-22 0 -33 -14 -33 -45v-311c0 -6 -4 -10 -10 -10h-131c-6 0 -10 4 -10 10v467c0 6 4 10 10 10h130
c6 0 10 -4 10 -10v-37h1c17 33 50 57 99 57c50 0 83 -18 100 -54h1c18 30 53 54 106 54c85 0 126 -48 126 -150v-337c0 -6 -4 -10 -10 -10z" />
    <glyph glyph-name="n" unicode="n" horiz-adv-x="435" 
d="M392 0h-131c-6 0 -10 4 -10 10v311c0 31 -11 45 -32 45c-22 0 -33 -14 -33 -45v-311c0 -6 -4 -10 -10 -10h-131c-6 0 -10 4 -10 10v467c0 6 4 10 10 10h130c6 0 10 -4 10 -10v-37h1c17 33 50 57 99 57c83 0 117 -47 117 -150v-337c0 -6 -4 -10 -10 -10z" />
    <glyph glyph-name="o" unicode="o" horiz-adv-x="418" 
d="M209 -10c-88 0 -148 39 -172 114c-9 29 -13 57 -13 139c0 83 4 111 13 140c24 75 84 114 172 114s147 -39 172 -114c9 -29 13 -57 13 -140c0 -82 -4 -110 -13 -139c-25 -75 -84 -114 -172 -114zM209 118c15 0 26 8 30 22c3 8 4 18 4 103c0 86 -1 96 -4 104
c-4 14 -15 22 -30 22s-26 -8 -30 -22c-3 -8 -4 -18 -4 -104c0 -85 1 -95 4 -103c4 -14 15 -22 30 -22z" />
    <glyph glyph-name="p" unicode="p" horiz-adv-x="433" 
d="M176 -180h-131c-6 0 -10 4 -10 10v647c0 6 4 10 10 10h130c6 0 10 -4 10 -10v-38h1c17 36 49 58 97 58c58 0 90 -23 108 -77c10 -31 15 -69 15 -177c0 -107 -5 -145 -15 -176c-18 -54 -50 -77 -108 -77c-48 0 -78 22 -96 58h-1v-218c0 -6 -4 -10 -10 -10zM221 118
c16 0 25 8 30 22c3 9 4 18 4 103c0 86 -1 95 -4 104c-5 14 -14 22 -30 22c-17 0 -26 -8 -31 -22c-3 -9 -4 -18 -4 -104c0 -85 1 -94 4 -103c5 -14 14 -22 31 -22z" />
    <glyph glyph-name="q" unicode="q" horiz-adv-x="433" 
d="M388 -180h-131c-6 0 -10 4 -10 10v218h-1c-18 -36 -48 -58 -96 -58c-58 0 -90 23 -108 77c-10 31 -15 69 -15 176c0 108 5 146 15 177c18 54 50 77 108 77c48 0 80 -22 97 -58h1v38c0 6 4 10 10 10h130c6 0 10 -4 10 -10v-647c0 -6 -4 -10 -10 -10zM213 118
c16 0 25 8 30 22c3 9 4 18 4 103c0 86 -1 95 -4 104c-5 14 -14 22 -30 22c-17 0 -26 -8 -31 -22c-3 -9 -4 -18 -4 -104c0 -85 1 -94 4 -103c5 -14 14 -22 31 -22z" />
    <glyph glyph-name="r" unicode="r" horiz-adv-x="334" 
d="M176 0h-131c-6 0 -10 4 -10 10v467c0 6 4 10 10 10h131c6 0 10 -4 10 -10v-43h1c20 42 58 63 118 63c3 0 8 0 11 -1c6 0 9 -3 8 -9l-22 -131c-1 -6 -4 -7 -10 -6c-5 1 -12 1 -20 1c-55 0 -86 -29 -86 -107v-234c0 -6 -4 -10 -10 -10z" />
    <glyph glyph-name="s" unicode="s" horiz-adv-x="380" 
d="M190 -10c-107 0 -168 50 -174 132c-1 6 2 10 8 11l113 19c6 1 11 -2 12 -8c4 -28 18 -42 40 -42s35 14 35 35s-10 31 -38 40l-39 13c-86 29 -123 76 -123 153c0 93 60 154 168 154c100 0 156 -52 163 -121c1 -7 -1 -11 -6 -12l-107 -18c-5 -1 -9 1 -10 6
c-4 20 -13 33 -36 33c-21 0 -31 -13 -31 -30c0 -15 9 -26 38 -36l39 -13c94 -31 123 -76 123 -155c0 -101 -64 -161 -175 -161z" />
    <glyph glyph-name="t" unicode="t" horiz-adv-x="298" 
d="M268 -6h-38c-115 0 -168 33 -168 167v209c0 4 -2 6 -6 6h-32c-6 0 -10 4 -10 10v91c0 6 4 10 10 10h32c4 0 6 2 6 6v127c0 6 4 10 10 10h131c6 0 10 -4 10 -10v-127c0 -4 2 -6 6 -6h49c6 0 10 -4 10 -10v-91c0 -6 -4 -10 -10 -10h-49c-4 0 -6 -2 -6 -6v-201
c0 -33 13 -44 40 -44h15c6 0 10 -4 10 -10v-111c0 -6 -4 -10 -10 -10z" />
    <glyph glyph-name="u" unicode="u" horiz-adv-x="434" 
d="M389 0h-130c-6 0 -10 4 -10 10v37h-1c-17 -33 -49 -57 -99 -57c-81 0 -116 47 -116 150v337c0 6 4 10 10 10h131c6 0 10 -4 10 -10v-312c0 -30 11 -44 32 -44s32 14 32 44v312c0 6 4 10 10 10h131c6 0 10 -4 10 -10v-467c0 -6 -4 -10 -10 -10z" />
    <glyph glyph-name="v" unicode="v" horiz-adv-x="402" 
d="M266 0h-129c-7 0 -10 3 -12 10l-116 467c-2 6 1 10 7 10h129c7 0 10 -4 11 -10l47 -273h1l47 273c1 6 4 10 11 10h124c6 0 9 -4 7 -10l-115 -467c-2 -7 -5 -10 -12 -10z" />
    <glyph glyph-name="w" unicode="w" horiz-adv-x="593" 
d="M461 0h-111c-7 0 -11 3 -12 10l-41 235h-2l-40 -235c-1 -7 -5 -10 -12 -10h-111c-7 0 -10 3 -12 10l-110 467c-2 6 1 10 7 10h126c7 0 10 -4 11 -10l43 -266h2l43 266c1 6 4 10 11 10h88c7 0 10 -4 11 -10l43 -266h1l44 266c1 6 4 10 11 10h126c6 0 9 -4 7 -10l-111 -467
c-2 -7 -5 -10 -12 -10z" />
    <glyph glyph-name="x" unicode="x" horiz-adv-x="408" 
d="M395 0h-127c-7 0 -10 2 -13 8l-51 127h-1l-52 -127c-3 -6 -6 -8 -13 -8h-125c-7 0 -9 5 -6 10l119 241l-111 226c-3 5 -1 10 5 10h127c7 0 10 -2 13 -8l45 -112h1l43 112c3 6 6 8 14 8h124c7 0 9 -5 6 -10l-112 -226l120 -241c3 -5 1 -10 -6 -10z" />
    <glyph glyph-name="y" unicode="y" horiz-adv-x="405" 
d="M75 -180h-14c-6 0 -10 4 -10 10v111c0 6 4 10 10 10h14c36 1 51 13 58 43l5 22l-128 461c-2 6 2 10 8 10h127c6 0 11 -4 12 -10l46 -254h2l49 254c1 6 5 10 12 10h121c6 0 10 -4 8 -10l-131 -491c-35 -131 -83 -166 -189 -166z" />
    <glyph glyph-name="z" unicode="z" horiz-adv-x="354" 
d="M321 0h-291c-6 0 -10 4 -10 10v102c0 4 1 7 3 11l145 237v2h-127c-6 0 -10 4 -10 10v105c0 6 4 10 10 10h280c6 0 10 -4 10 -10v-99c0 -5 -1 -8 -3 -11l-145 -239v-2h138c6 0 10 -4 10 -10v-106c0 -6 -4 -10 -10 -10z" />
    <glyph glyph-name="braceleft" unicode="{" horiz-adv-x="334" 
d="M292 -84h-47c-88 0 -135 46 -135 136v148c0 50 -14 70 -56 70c-6 0 -10 4 -10 10v100c0 6 4 10 10 10c42 0 56 20 56 70v144c0 90 47 136 135 136h47c6 0 10 -4 10 -10v-91c0 -6 -4 -10 -10 -10h-11c-28 0 -42 -18 -42 -46v-119c0 -75 -10 -109 -56 -132v-4
c46 -23 56 -56 56 -131v-124c0 -28 14 -46 42 -46h11c6 0 10 -4 10 -10v-91c0 -6 -4 -10 -10 -10z" />
    <glyph glyph-name="bar" unicode="|" horiz-adv-x="265" 
d="M185 -84h-106c-6 0 -10 4 -10 10v804c0 6 4 10 10 10h106c6 0 10 -4 10 -10v-804c0 -6 -4 -10 -10 -10z" />
    <glyph glyph-name="braceright" unicode="}" horiz-adv-x="334" 
d="M89 -84h-47c-6 0 -10 4 -10 10v91c0 6 4 10 10 10h11c28 0 42 18 42 46v124c0 75 10 108 56 131v4c-46 23 -56 57 -56 132v119c0 28 -14 46 -42 46h-11c-6 0 -10 4 -10 10v91c0 6 4 10 10 10h47c88 0 135 -46 135 -136v-144c0 -50 14 -70 56 -70c6 0 10 -4 10 -10v-100
c0 -6 -4 -10 -10 -10c-42 0 -56 -20 -56 -70v-148c0 -90 -47 -136 -135 -136z" />
    <glyph glyph-name="asciitilde" unicode="~" 
d="M288 176c-27 0 -49 11 -71 23c-21 12 -38 21 -54 21c-20 0 -30 -9 -47 -39c-3 -5 -7 -6 -13 -3l-73 37c-5 3 -7 7 -4 14c31 66 68 98 122 98c28 0 50 -10 72 -22c21 -11 38 -21 53 -21c20 0 31 8 48 38c2 5 7 7 13 4l73 -37c5 -3 7 -8 4 -14c-31 -66 -68 -99 -123 -99z
" />
    <glyph glyph-name="uni00A0" unicode="&#xa0;" horiz-adv-x="195" 
 />
    <glyph glyph-name="Agrave" unicode="&#xc0;" horiz-adv-x="488" 
d="M7 10l149 660c2 6 5 10 12 10h155c7 0 11 -4 12 -10l146 -660c2 -7 -2 -10 -8 -10h-138c-7 0 -11 4 -12 10l-18 107h-121l-19 -107c-1 -6 -4 -10 -11 -10h-139c-6 0 -9 4 -8 10zM205 236h79l-37 221h-2zM296 747h-95c-8 0 -12 3 -19 10l-110 122c-4 5 -1 10 5 10h120
c8 0 11 -3 16 -10l89 -122c4 -5 0 -10 -6 -10z" />
    <glyph glyph-name="Aacute" unicode="&#xc1;" horiz-adv-x="488" 
d="M7 10l149 660c2 6 5 10 12 10h155c7 0 11 -4 12 -10l146 -660c2 -7 -2 -10 -8 -10h-138c-7 0 -11 4 -12 10l-18 107h-121l-19 -107c-1 -6 -4 -10 -11 -10h-139c-6 0 -9 4 -8 10zM205 236h79l-37 221h-2zM291 747h-95c-6 0 -10 5 -6 10l88 122c5 7 8 10 16 10h121
c6 0 9 -5 5 -10l-110 -122c-7 -7 -11 -10 -19 -10z" />
    <glyph glyph-name="Acircumflex" unicode="&#xc2;" horiz-adv-x="488" 
d="M7 10l149 660c2 6 5 10 12 10h155c7 0 11 -4 12 -10l146 -660c2 -7 -2 -10 -8 -10h-138c-7 0 -11 4 -12 10l-18 107h-121l-19 -107c-1 -6 -4 -10 -11 -10h-139c-6 0 -9 4 -8 10zM205 236h79l-37 221h-2zM391 740h-80c-8 0 -13 3 -19 10l-47 56h-2l-47 -56
c-6 -7 -11 -10 -19 -10h-81c-6 0 -8 5 -4 10l94 137c4 6 9 10 17 10h82c7 0 13 -4 17 -10l93 -137c4 -5 2 -10 -4 -10z" />
    <glyph glyph-name="Atilde" unicode="&#xc3;" horiz-adv-x="488" 
d="M7 10l149 660c2 6 5 10 12 10h155c7 0 11 -4 12 -10l146 -660c2 -7 -2 -10 -8 -10h-138c-7 0 -11 4 -12 10l-18 107h-121l-19 -107c-1 -6 -4 -10 -11 -10h-139c-6 0 -9 4 -8 10zM205 236h79l-37 221h-2zM298 744c-25 0 -42 9 -60 19c-17 11 -30 18 -50 18
c-27 0 -43 -12 -62 -31c-5 -5 -11 -3 -11 3v87c0 7 1 10 7 17c18 18 39 30 67 30c25 0 42 -9 60 -19c17 -11 30 -18 50 -18c27 0 43 12 62 31c5 5 11 3 11 -3v-87c0 -7 -1 -11 -7 -17c-18 -18 -39 -30 -67 -30z" />
    <glyph glyph-name="Adieresis" unicode="&#xc4;" horiz-adv-x="488" 
d="M7 10l149 660c2 6 5 10 12 10h155c7 0 11 -4 12 -10l146 -660c2 -7 -2 -10 -8 -10h-138c-7 0 -11 4 -12 10l-18 107h-121l-19 -107c-1 -6 -4 -10 -11 -10h-139c-6 0 -9 4 -8 10zM205 236h79l-37 221h-2zM371 750h-91c-6 0 -10 4 -10 10v110c0 6 4 10 10 10h91
c6 0 10 -4 10 -10v-110c0 -6 -4 -10 -10 -10zM208 750h-91c-6 0 -10 4 -10 10v110c0 6 4 10 10 10h91c6 0 10 -4 10 -10v-110c0 -6 -4 -10 -10 -10z" />
    <glyph glyph-name="Amacron" unicode="&#x100;" horiz-adv-x="488" 
d="M7 10l149 660c2 6 5 10 12 10h155c7 0 11 -4 12 -10l146 -660c2 -7 -2 -10 -8 -10h-138c-7 0 -11 4 -12 10l-18 107h-121l-19 -107c-1 -6 -4 -10 -11 -10h-139c-6 0 -9 4 -8 10zM205 236h79l-37 221h-2zM366 761h-244c-6 0 -10 4 -10 10v89c0 6 4 10 10 10h244
c6 0 10 -4 10 -10v-89c0 -6 -4 -10 -10 -10z" />
    <glyph glyph-name="Abreve" unicode="&#x102;" horiz-adv-x="488" 
d="M7 10l149 660c2 6 5 10 12 10h155c7 0 11 -4 12 -10l146 -660c2 -7 -2 -10 -8 -10h-138c-7 0 -11 4 -12 10l-18 107h-121l-19 -107c-1 -6 -4 -10 -11 -10h-139c-6 0 -9 4 -8 10zM205 236h79l-37 221h-2zM244 731c-90 0 -139 61 -141 138c0 6 5 11 13 11h60
c8 0 11 -4 14 -11c10 -26 28 -42 54 -42s44 16 54 42c3 7 6 11 14 11h60c8 0 13 -5 13 -11c-2 -77 -52 -138 -141 -138z" />
    <glyph glyph-name="Aring" unicode="&#xc5;" horiz-adv-x="488" 
d="M7 10l149 660c2 6 5 10 12 10h155c7 0 11 -4 12 -10l146 -660c2 -7 -2 -10 -8 -10h-138c-7 0 -11 4 -12 10l-18 107h-121l-19 -107c-1 -6 -4 -10 -11 -10h-139c-6 0 -9 4 -8 10zM205 236h79l-37 221h-2zM244 709c-59 0 -103 43 -103 101c0 59 44 102 103 102
s103 -43 103 -102c0 -58 -44 -101 -103 -101zM244 767c23 0 41 18 41 43c0 26 -18 44 -41 44c-24 0 -41 -18 -41 -44c0 -25 17 -43 41 -43z" />
    <glyph glyph-name="Aringacute" unicode="&#x1fa;" horiz-adv-x="488" 
d="M283 768h-93c-6 0 -9 5 -5 10l76 101c6 7 11 10 19 10h119c6 0 9 -5 5 -10l-99 -101c-7 -7 -13 -10 -22 -10zM474 0h-139c-7 0 -11 4 -12 10l-18 107h-121l-19 -107c-1 -6 -4 -10 -11 -10h-140c-6 0 -8 4 -7 10l130 575c1 6 5 10 11 10h7c-9 14 -13 32 -13 51
c0 59 44 102 103 102s103 -43 103 -102c0 -19 -5 -37 -13 -51h8c6 0 10 -4 11 -10l127 -575c2 -7 -1 -10 -7 -10zM245 603c23 0 41 18 41 43c0 26 -18 44 -41 44c-24 0 -41 -18 -41 -44c0 -25 17 -43 41 -43zM245 457l-40 -221h79l-37 221h-2z" />
    <glyph glyph-name="Aogonek" unicode="&#x104;" horiz-adv-x="488" 
d="M401 -192c-62 0 -102 34 -102 92c0 37 19 71 50 100h-16c-6 1 -9 4 -10 10l-18 107h-120l-20 -107c-1 -6 -4 -10 -11 -10h-139c-6 0 -9 4 -8 10l149 660c2 6 5 10 12 10h155c7 0 11 -4 12 -10l146 -660c1 -5 0 -8 -5 -11c-50 -24 -69 -49 -69 -72c0 -13 8 -21 19 -21
c5 0 10 1 15 3c5 3 10 1 12 -5l25 -63c2 -5 0 -10 -5 -13c-17 -12 -47 -20 -72 -20zM285 236l-38 221h-2l-40 -221h80z" />
    <glyph glyph-name="AE" unicode="&#xc6;" horiz-adv-x="695" 
d="M659 0h-318c-6 0 -10 4 -10 10v101c0 4 -2 6 -6 6h-127l-33 -107c-2 -6 -6 -10 -13 -10h-138c-6 0 -9 4 -7 10l218 660c2 6 6 10 12 10h422c6 0 10 -4 10 -10v-122c0 -6 -4 -10 -10 -10h-163c-4 0 -6 -2 -6 -6v-112c0 -4 2 -6 6 -6h140c6 0 10 -4 10 -10v-122
c0 -6 -4 -10 -10 -10h-140c-4 0 -6 -2 -6 -6v-118c0 -4 2 -6 6 -6h163c6 0 10 -4 10 -10v-122c0 -6 -4 -10 -10 -10zM328 538l-94 -302h91c4 0 6 2 6 6v296h-3z" />
    <glyph glyph-name="AEacute" unicode="&#x1fc;" horiz-adv-x="695" 
d="M403 747h-95c-6 0 -10 5 -6 10l88 122c5 7 8 10 16 10h121c6 0 9 -5 5 -10l-110 -122c-7 -7 -11 -10 -19 -10zM659 0h-318c-6 0 -10 4 -10 10v101c0 4 -2 6 -6 6h-127l-33 -107c-2 -6 -6 -10 -13 -10h-138c-6 0 -9 4 -7 10l218 660c2 6 6 10 12 10h422c6 0 10 -4 10 -10
v-122c0 -6 -4 -10 -10 -10h-163c-4 0 -6 -2 -6 -6v-112c0 -4 2 -6 6 -6h140c6 0 10 -4 10 -10v-122c0 -6 -4 -10 -10 -10h-140c-4 0 -6 -2 -6 -6v-118c0 -4 2 -6 6 -6h163c6 0 10 -4 10 -10v-122c0 -6 -4 -10 -10 -10zM328 538l-94 -302h91c4 0 6 2 6 6v296h-3z" />
    <glyph glyph-name="Cacute" unicode="&#x106;" horiz-adv-x="444" 
d="M45 113c-10 31 -15 65 -15 227s5 196 15 227c27 82 87 123 185 123c124 0 190 -69 196 -182c0 -7 -2 -11 -8 -12l-134 -22c-6 -1 -11 2 -11 9c-1 47 -14 65 -41 65c-17 0 -28 -7 -34 -24c-4 -14 -5 -24 -5 -184s1 -170 5 -184c6 -17 17 -24 34 -24c27 0 40 18 41 65
c0 7 5 10 11 9l134 -22c6 -1 8 -5 8 -12c-6 -113 -72 -182 -196 -182c-98 0 -158 41 -185 123zM259 747h-95c-6 0 -10 5 -6 10l88 122c5 7 8 10 16 10h121c6 0 9 -5 5 -10l-110 -122c-7 -7 -11 -10 -19 -10z" />
    <glyph glyph-name="Ccircumflex" unicode="&#x108;" horiz-adv-x="444" 
d="M45 113c-10 31 -15 65 -15 227s5 196 15 227c27 82 87 123 185 123c124 0 190 -69 196 -182c0 -7 -2 -11 -8 -12l-134 -22c-6 -1 -11 2 -11 9c-1 47 -14 65 -41 65c-17 0 -28 -7 -34 -24c-4 -14 -5 -24 -5 -184s1 -170 5 -184c6 -17 17 -24 34 -24c27 0 40 18 41 65
c0 7 5 10 11 9l134 -22c6 -1 8 -5 8 -12c-6 -113 -72 -182 -196 -182c-98 0 -158 41 -185 123zM374 740h-80c-8 0 -13 3 -19 10l-47 56h-2l-47 -56c-6 -7 -11 -10 -19 -10h-81c-6 0 -8 5 -4 10l94 137c4 6 9 10 17 10h82c7 0 13 -4 17 -10l93 -137c4 -5 2 -10 -4 -10z" />
    <glyph glyph-name="Ccaron" unicode="&#x10c;" horiz-adv-x="444" 
d="M45 113c-10 31 -15 65 -15 227s5 196 15 227c27 82 87 123 185 123c124 0 190 -69 196 -182c0 -7 -2 -11 -8 -12l-134 -22c-6 -1 -11 2 -11 9c-1 47 -14 65 -41 65c-17 0 -28 -7 -34 -24c-4 -14 -5 -24 -5 -184s1 -170 5 -184c6 -17 17 -24 34 -24c27 0 40 18 41 65
c0 7 5 10 11 9l134 -22c6 -1 8 -5 8 -12c-6 -113 -72 -182 -196 -182c-98 0 -158 41 -185 123zM266 734h-82c-8 0 -13 4 -17 10l-94 137c-4 5 -2 10 4 10h81c8 0 13 -3 19 -10l47 -56h2l47 56c6 7 11 10 19 10h80c6 0 8 -5 4 -10l-93 -137c-4 -6 -10 -10 -17 -10z" />
    <glyph glyph-name="Cdotaccent" unicode="&#x10a;" horiz-adv-x="444" 
d="M287 750h-131c-6 0 -10 4 -10 10v110c0 6 4 10 10 10h131c6 0 10 -4 10 -10v-110c0 -6 -4 -10 -10 -10zM45 113c-10 31 -15 65 -15 227s5 196 15 227c27 82 87 123 185 123c124 0 190 -69 196 -182c0 -7 -2 -11 -8 -12l-134 -22c-6 -1 -11 2 -11 9c-1 47 -14 65 -41 65
c-17 0 -28 -7 -34 -24c-4 -14 -5 -24 -5 -184s1 -170 5 -184c6 -17 17 -24 34 -24c27 0 40 18 41 65c0 7 5 10 11 9l134 -22c6 -1 8 -5 8 -12c-6 -113 -72 -182 -196 -182c-98 0 -158 41 -185 123z" />
    <glyph glyph-name="Ccedilla" unicode="&#xc7;" horiz-adv-x="444" 
d="M103 -155l66 151c-63 14 -103 53 -124 117c-10 31 -15 65 -15 227s5 196 15 227c27 82 87 123 185 123c124 0 190 -69 196 -182c0 -7 -2 -11 -8 -12l-134 -22c-6 -1 -11 2 -11 9c-1 47 -14 65 -41 65c-17 0 -28 -7 -34 -24c-4 -14 -5 -24 -5 -184s1 -170 5 -184
c6 -17 17 -24 34 -24c27 0 40 18 41 65c0 7 5 10 11 9l134 -22c6 -1 8 -5 8 -12c-5 -96 -53 -160 -143 -177l-54 -150c-3 -8 -7 -10 -15 -10h-104c-6 0 -9 4 -7 10z" />
    <glyph glyph-name="Dcaron" unicode="&#x10e;" horiz-adv-x="472" 
d="M260 734h-82c-8 0 -13 4 -17 10l-94 137c-4 5 -2 10 4 10h81c8 0 13 -3 19 -10l47 -56h2l47 56c6 7 11 10 19 10h80c6 0 8 -5 4 -10l-93 -137c-4 -6 -10 -10 -17 -10zM37 10v660c0 6 4 10 10 10h189c100 0 162 -36 188 -117c12 -38 19 -86 19 -223s-7 -185 -19 -223
c-26 -81 -88 -117 -188 -117h-189c-6 0 -10 4 -10 10zM196 148c0 -4 2 -6 6 -6h19c27 0 43 9 51 32c6 18 9 43 9 166s-3 148 -9 166c-8 23 -24 32 -51 32h-19c-4 0 -6 -2 -6 -6v-384z" />
    <glyph glyph-name="Dcroat" unicode="&#x110;" horiz-adv-x="472" 
d="M236 0h-189c-6 0 -10 4 -10 10v272c0 4 -2 6 -6 6h-23c-6 0 -10 4 -10 10v89c0 6 4 10 10 10h23c4 0 6 2 6 6v267c0 6 4 10 10 10h189c100 0 162 -36 188 -117c12 -38 19 -86 19 -223s-7 -185 -19 -223c-26 -81 -88 -117 -188 -117zM222 142c27 0 43 9 51 32
c6 18 9 43 9 166s-3 148 -9 166c-8 23 -24 32 -51 32h-21c-4 0 -6 -2 -6 -6v-130c0 -4 2 -6 6 -6h32c6 0 10 -4 10 -10v-89c0 -6 -4 -10 -10 -10h-32c-4 0 -6 -2 -6 -6v-133c0 -4 2 -6 6 -6h21z" />
    <glyph glyph-name="Eth" unicode="&#xd0;" horiz-adv-x="472" 
d="M236 0h-189c-6 0 -10 4 -10 10v272c0 4 -2 6 -6 6h-23c-6 0 -10 4 -10 10v89c0 6 4 10 10 10h23c4 0 6 2 6 6v267c0 6 4 10 10 10h189c100 0 162 -36 188 -117c12 -38 19 -86 19 -223s-7 -185 -19 -223c-26 -81 -88 -117 -188 -117zM222 142c27 0 43 9 51 32
c6 18 9 43 9 166s-3 148 -9 166c-8 23 -24 32 -51 32h-21c-4 0 -6 -2 -6 -6v-130c0 -4 2 -6 6 -6h32c6 0 10 -4 10 -10v-89c0 -6 -4 -10 -10 -10h-32c-4 0 -6 -2 -6 -6v-133c0 -4 2 -6 6 -6h21z" />
    <glyph glyph-name="Egrave" unicode="&#xc8;" horiz-adv-x="401" 
d="M260 747h-95c-8 0 -12 3 -19 10l-110 122c-4 5 -1 10 5 10h120c8 0 11 -3 16 -10l89 -122c4 -5 0 -10 -6 -10zM37 10v660c0 6 4 10 10 10h318c6 0 10 -4 10 -10v-122c0 -6 -4 -10 -10 -10h-163c-4 0 -6 -2 -6 -6v-112c0 -4 2 -6 6 -6h140c6 0 10 -4 10 -10v-122
c0 -6 -4 -10 -10 -10h-140c-4 0 -6 -2 -6 -6v-118c0 -4 2 -6 6 -6h163c6 0 10 -4 10 -10v-122c0 -6 -4 -10 -10 -10h-318c-6 0 -10 4 -10 10z" />
    <glyph glyph-name="Eacute" unicode="&#xc9;" horiz-adv-x="401" 
d="M240 747h-95c-6 0 -10 5 -6 10l88 122c5 7 8 10 16 10h121c6 0 9 -5 5 -10l-110 -122c-7 -7 -11 -10 -19 -10zM37 10v660c0 6 4 10 10 10h318c6 0 10 -4 10 -10v-122c0 -6 -4 -10 -10 -10h-163c-4 0 -6 -2 -6 -6v-112c0 -4 2 -6 6 -6h140c6 0 10 -4 10 -10v-122
c0 -6 -4 -10 -10 -10h-140c-4 0 -6 -2 -6 -6v-118c0 -4 2 -6 6 -6h163c6 0 10 -4 10 -10v-122c0 -6 -4 -10 -10 -10h-318c-6 0 -10 4 -10 10z" />
    <glyph glyph-name="Ecircumflex" unicode="&#xca;" horiz-adv-x="401" 
d="M37 10v660c0 6 4 10 10 10h318c6 0 10 -4 10 -10v-122c0 -6 -4 -10 -10 -10h-163c-4 0 -6 -2 -6 -6v-112c0 -4 2 -6 6 -6h140c6 0 10 -4 10 -10v-122c0 -6 -4 -10 -10 -10h-140c-4 0 -6 -2 -6 -6v-118c0 -4 2 -6 6 -6h163c6 0 10 -4 10 -10v-122c0 -6 -4 -10 -10 -10
h-318c-6 0 -10 4 -10 10zM351 740h-80c-8 0 -13 3 -19 10l-47 56h-2l-47 -56c-6 -7 -11 -10 -19 -10h-81c-6 0 -8 5 -4 10l94 137c4 6 9 10 17 10h82c7 0 13 -4 17 -10l93 -137c4 -5 2 -10 -4 -10z" />
    <glyph glyph-name="Ecaron" unicode="&#x11a;" horiz-adv-x="401" 
d="M245 734h-82c-8 0 -13 4 -17 10l-94 137c-4 5 -2 10 4 10h81c8 0 13 -3 19 -10l47 -56h2l47 56c6 7 11 10 19 10h80c6 0 8 -5 4 -10l-93 -137c-4 -6 -10 -10 -17 -10zM37 10v660c0 6 4 10 10 10h318c6 0 10 -4 10 -10v-122c0 -6 -4 -10 -10 -10h-163c-4 0 -6 -2 -6 -6
v-112c0 -4 2 -6 6 -6h140c6 0 10 -4 10 -10v-122c0 -6 -4 -10 -10 -10h-140c-4 0 -6 -2 -6 -6v-118c0 -4 2 -6 6 -6h163c6 0 10 -4 10 -10v-122c0 -6 -4 -10 -10 -10h-318c-6 0 -10 4 -10 10z" />
    <glyph glyph-name="Edieresis" unicode="&#xcb;" horiz-adv-x="401" 
d="M330 750h-91c-6 0 -10 4 -10 10v110c0 6 4 10 10 10h91c6 0 10 -4 10 -10v-110c0 -6 -4 -10 -10 -10zM167 750h-91c-6 0 -10 4 -10 10v110c0 6 4 10 10 10h91c6 0 10 -4 10 -10v-110c0 -6 -4 -10 -10 -10zM37 10v660c0 6 4 10 10 10h318c6 0 10 -4 10 -10v-122
c0 -6 -4 -10 -10 -10h-163c-4 0 -6 -2 -6 -6v-112c0 -4 2 -6 6 -6h140c6 0 10 -4 10 -10v-122c0 -6 -4 -10 -10 -10h-140c-4 0 -6 -2 -6 -6v-118c0 -4 2 -6 6 -6h163c6 0 10 -4 10 -10v-122c0 -6 -4 -10 -10 -10h-318c-6 0 -10 4 -10 10z" />
    <glyph glyph-name="Emacron" unicode="&#x112;" horiz-adv-x="401" 
d="M325 761h-244c-6 0 -10 4 -10 10v89c0 6 4 10 10 10h244c6 0 10 -4 10 -10v-89c0 -6 -4 -10 -10 -10zM37 10v660c0 6 4 10 10 10h318c6 0 10 -4 10 -10v-122c0 -6 -4 -10 -10 -10h-163c-4 0 -6 -2 -6 -6v-112c0 -4 2 -6 6 -6h140c6 0 10 -4 10 -10v-122
c0 -6 -4 -10 -10 -10h-140c-4 0 -6 -2 -6 -6v-118c0 -4 2 -6 6 -6h163c6 0 10 -4 10 -10v-122c0 -6 -4 -10 -10 -10h-318c-6 0 -10 4 -10 10z" />
    <glyph glyph-name="Ebreve" unicode="&#x114;" horiz-adv-x="401" 
d="M203 731c-90 0 -139 61 -141 138c0 6 5 11 13 11h60c8 0 11 -4 14 -11c10 -26 28 -42 54 -42s44 16 54 42c3 7 6 11 14 11h60c8 0 13 -5 13 -11c-2 -77 -52 -138 -141 -138zM37 10v660c0 6 4 10 10 10h318c6 0 10 -4 10 -10v-122c0 -6 -4 -10 -10 -10h-163
c-4 0 -6 -2 -6 -6v-112c0 -4 2 -6 6 -6h140c6 0 10 -4 10 -10v-122c0 -6 -4 -10 -10 -10h-140c-4 0 -6 -2 -6 -6v-118c0 -4 2 -6 6 -6h163c6 0 10 -4 10 -10v-122c0 -6 -4 -10 -10 -10h-318c-6 0 -10 4 -10 10z" />
    <glyph glyph-name="Edotaccent" unicode="&#x116;" horiz-adv-x="401" 
d="M268 750h-131c-6 0 -10 4 -10 10v110c0 6 4 10 10 10h131c6 0 10 -4 10 -10v-110c0 -6 -4 -10 -10 -10zM37 10v660c0 6 4 10 10 10h318c6 0 10 -4 10 -10v-122c0 -6 -4 -10 -10 -10h-163c-4 0 -6 -2 -6 -6v-112c0 -4 2 -6 6 -6h140c6 0 10 -4 10 -10v-122
c0 -6 -4 -10 -10 -10h-140c-4 0 -6 -2 -6 -6v-118c0 -4 2 -6 6 -6h163c6 0 10 -4 10 -10v-122c0 -6 -4 -10 -10 -10h-318c-6 0 -10 4 -10 10z" />
    <glyph glyph-name="Eogonek" unicode="&#x118;" horiz-adv-x="401" 
d="M280 -192c-62 0 -101 34 -101 92c0 39 20 71 49 100h-181c-6 0 -10 4 -10 10v660c0 6 4 10 10 10h318c6 0 10 -4 10 -10v-122c0 -6 -4 -10 -10 -10h-163c-4 0 -6 -2 -6 -6v-112c0 -4 2 -6 6 -6h140c6 0 10 -4 10 -10v-122c0 -6 -4 -10 -10 -10h-140c-4 0 -6 -2 -6 -6
v-118c0 -4 2 -6 6 -6h163c6 0 10 -4 10 -10v-122c0 -6 -4 -10 -10 -10h-12c-47 -26 -66 -50 -66 -73c0 -13 7 -21 18 -21c6 0 10 1 15 3c6 3 11 1 13 -5l25 -63c2 -5 0 -10 -5 -13c-17 -12 -47 -20 -73 -20z" />
    <glyph glyph-name="Gcircumflex" unicode="&#x11c;" horiz-adv-x="466" 
d="M45 114c-11 34 -15 67 -15 226s4 192 15 226c27 83 92 124 191 124c124 0 191 -70 199 -181c0 -7 -3 -11 -8 -12l-134 -21c-6 -1 -11 2 -11 8c-3 45 -17 64 -46 64c-19 0 -33 -11 -38 -26c-4 -13 -5 -24 -5 -182c0 -156 1 -169 5 -181c5 -16 20 -27 41 -27
c22 0 37 11 42 27c4 11 5 23 5 91c0 4 -2 6 -6 6h-31c-6 0 -10 4 -10 10v103c0 6 4 10 10 10h179c6 0 10 -4 10 -10v-29c0 -159 -4 -191 -15 -225c-27 -83 -92 -125 -187 -125c-99 0 -164 41 -191 124zM381 740h-80c-8 0 -13 3 -19 10l-47 56h-2l-47 -56
c-6 -7 -11 -10 -19 -10h-81c-6 0 -8 5 -4 10l94 137c4 6 9 10 17 10h82c7 0 13 -4 17 -10l93 -137c4 -5 2 -10 -4 -10z" />
    <glyph glyph-name="Gbreve" unicode="&#x11e;" horiz-adv-x="466" 
d="M233 731c-90 0 -139 61 -141 138c0 6 5 11 13 11h60c8 0 11 -4 14 -11c10 -26 28 -42 54 -42s44 16 54 42c3 7 6 11 14 11h60c8 0 13 -5 13 -11c-2 -77 -52 -138 -141 -138zM45 114c-11 34 -15 67 -15 226s4 192 15 226c27 83 92 124 191 124c124 0 191 -70 199 -181
c0 -7 -3 -11 -8 -12l-134 -21c-6 -1 -11 2 -11 8c-3 45 -17 64 -46 64c-19 0 -33 -11 -38 -26c-4 -13 -5 -24 -5 -182c0 -156 1 -169 5 -181c5 -16 20 -27 41 -27c22 0 37 11 42 27c4 11 5 23 5 91c0 4 -2 6 -6 6h-31c-6 0 -10 4 -10 10v103c0 6 4 10 10 10h179
c6 0 10 -4 10 -10v-29c0 -159 -4 -191 -15 -225c-27 -83 -92 -125 -187 -125c-99 0 -164 41 -191 124z" />
    <glyph glyph-name="Gdotaccent" unicode="&#x120;" horiz-adv-x="466" 
d="M299 750h-131c-6 0 -10 4 -10 10v110c0 6 4 10 10 10h131c6 0 10 -4 10 -10v-110c0 -6 -4 -10 -10 -10zM45 114c-11 34 -15 67 -15 226s4 192 15 226c27 83 92 124 191 124c124 0 191 -70 199 -181c0 -7 -3 -11 -8 -12l-134 -21c-6 -1 -11 2 -11 8c-3 45 -17 64 -46 64
c-19 0 -33 -11 -38 -26c-4 -13 -5 -24 -5 -182c0 -156 1 -169 5 -181c5 -16 20 -27 41 -27c22 0 37 11 42 27c4 11 5 23 5 91c0 4 -2 6 -6 6h-31c-6 0 -10 4 -10 10v103c0 6 4 10 10 10h179c6 0 10 -4 10 -10v-29c0 -159 -4 -191 -15 -225c-27 -83 -92 -125 -187 -125
c-99 0 -164 41 -191 124z" />
    <glyph glyph-name="Gcommaaccent" unicode="&#x122;" horiz-adv-x="466" 
d="M182 -242c-6 0 -11 3 -11 11v170c0 6 4 10 10 10h100c6 0 10 -4 10 -10v-67c0 -11 -3 -17 -9 -24l-88 -84c-3 -4 -7 -6 -12 -6zM45 114c-11 34 -15 67 -15 226s4 192 15 226c27 83 92 124 191 124c124 0 191 -70 199 -181c0 -7 -3 -11 -8 -12l-134 -21c-6 -1 -11 2 -11 8
c-3 45 -17 64 -46 64c-19 0 -33 -11 -38 -26c-4 -13 -5 -24 -5 -182c0 -156 1 -169 5 -181c5 -16 20 -27 41 -27c22 0 37 11 42 27c4 11 5 23 5 91c0 4 -2 6 -6 6h-31c-6 0 -10 4 -10 10v103c0 6 4 10 10 10h179c6 0 10 -4 10 -10v-29c0 -159 -4 -191 -15 -225
c-27 -83 -92 -125 -187 -125c-99 0 -164 41 -191 124z" />
    <glyph glyph-name="Hcircumflex" unicode="&#x124;" horiz-adv-x="478" 
d="M37 10v660c0 6 4 10 10 10h139c6 0 10 -4 10 -10v-246c0 -4 2 -6 6 -6h74c4 0 6 2 6 6v246c0 6 4 10 10 10h139c6 0 10 -4 10 -10v-660c0 -6 -4 -10 -10 -10h-139c-6 0 -10 4 -10 10v261c0 4 -2 6 -6 6h-74c-4 0 -6 -2 -6 -6v-261c0 -6 -4 -10 -10 -10h-139
c-6 0 -10 4 -10 10zM386 740h-80c-8 0 -13 3 -19 10l-47 56h-2l-47 -56c-6 -7 -11 -10 -19 -10h-81c-6 0 -8 5 -4 10l94 137c4 6 9 10 17 10h82c7 0 13 -4 17 -10l93 -137c4 -5 2 -10 -4 -10z" />
    <glyph glyph-name="Hbar" unicode="&#x126;" horiz-adv-x="478" 
d="M431 0h-139c-6 0 -10 4 -10 10v261c0 4 -2 6 -6 6h-74c-4 0 -6 -2 -6 -6v-261c0 -6 -4 -10 -10 -10h-139c-6 0 -10 4 -10 10v481c0 4 -2 6 -6 6h-22c-6 0 -10 4 -10 10v85c0 6 4 10 10 10h22c4 0 6 2 6 6v62c0 6 4 10 10 10h139c6 0 10 -4 10 -10v-62c0 -4 2 -6 6 -6h74
c4 0 6 2 6 6v62c0 6 4 10 10 10h139c6 0 10 -4 10 -10v-62c0 -4 2 -6 6 -6h22c6 0 10 -4 10 -10v-85c0 -6 -4 -10 -10 -10h-22c-4 0 -6 -2 -6 -6v-481c0 -6 -4 -10 -10 -10zM276 418c4 0 6 2 6 6v67c0 4 -2 6 -6 6h-74c-4 0 -6 -2 -6 -6v-67c0 -4 2 -6 6 -6h74z" />
    <glyph glyph-name="Igrave" unicode="&#xcc;" horiz-adv-x="233" 
d="M37 10v660c0 6 4 10 10 10h139c6 0 10 -4 10 -10v-660c0 -6 -4 -10 -10 -10h-139c-6 0 -10 4 -10 10zM166 747h-95c-8 0 -12 3 -19 10l-110 122c-4 5 -1 10 5 10h120c8 0 11 -3 16 -10l89 -122c4 -5 0 -10 -6 -10z" />
    <glyph glyph-name="Iacute" unicode="&#xcd;" horiz-adv-x="233" 
d="M37 10v660c0 6 4 10 10 10h139c6 0 10 -4 10 -10v-660c0 -6 -4 -10 -10 -10h-139c-6 0 -10 4 -10 10zM164 747h-95c-6 0 -10 5 -6 10l88 122c5 7 8 10 16 10h121c6 0 9 -5 5 -10l-110 -122c-7 -7 -11 -10 -19 -10z" />
    <glyph glyph-name="Ibreve" unicode="&#x12c;" horiz-adv-x="233" 
d="M37 10v660c0 6 4 10 10 10h139c6 0 10 -4 10 -10v-660c0 -6 -4 -10 -10 -10h-139c-6 0 -10 4 -10 10zM117 731c-90 0 -139 61 -141 138c0 6 5 11 13 11h60c8 0 11 -4 14 -11c10 -26 28 -42 54 -42s44 16 54 42c3 7 6 11 14 11h60c8 0 13 -5 13 -11
c-2 -77 -52 -138 -141 -138z" />
    <glyph glyph-name="Icircumflex" unicode="&#xce;" horiz-adv-x="233" 
d="M37 10v660c0 6 4 10 10 10h139c6 0 10 -4 10 -10v-660c0 -6 -4 -10 -10 -10h-139c-6 0 -10 4 -10 10zM264 740h-80c-8 0 -13 3 -19 10l-47 56h-2l-47 -56c-6 -7 -11 -10 -19 -10h-81c-6 0 -8 5 -4 10l94 137c4 6 9 10 17 10h82c7 0 13 -4 17 -10l93 -137
c4 -5 2 -10 -4 -10z" />
    <glyph glyph-name="Itilde" unicode="&#x128;" horiz-adv-x="233" 
d="M37 10v660c0 6 4 10 10 10h139c6 0 10 -4 10 -10v-660c0 -6 -4 -10 -10 -10h-139c-6 0 -10 4 -10 10zM172 744c-25 0 -42 9 -60 19c-17 11 -30 18 -50 18c-27 0 -43 -12 -62 -31c-5 -5 -11 -3 -11 3v87c0 7 1 10 7 17c18 18 39 30 67 30c25 0 42 -9 60 -19
c17 -11 30 -18 50 -18c27 0 43 12 62 31c5 5 11 3 11 -3v-87c0 -7 -1 -11 -7 -17c-18 -18 -39 -30 -67 -30z" />
    <glyph glyph-name="Idieresis" unicode="&#xcf;" horiz-adv-x="233" 
d="M37 10v660c0 6 4 10 10 10h139c6 0 10 -4 10 -10v-660c0 -6 -4 -10 -10 -10h-139c-6 0 -10 4 -10 10zM244 750h-91c-6 0 -10 4 -10 10v110c0 6 4 10 10 10h91c6 0 10 -4 10 -10v-110c0 -6 -4 -10 -10 -10zM81 750h-91c-6 0 -10 4 -10 10v110c0 6 4 10 10 10h91
c6 0 10 -4 10 -10v-110c0 -6 -4 -10 -10 -10z" />
    <glyph glyph-name="Imacron" unicode="&#x12a;" horiz-adv-x="233" 
d="M37 10v660c0 6 4 10 10 10h139c6 0 10 -4 10 -10v-660c0 -6 -4 -10 -10 -10h-139c-6 0 -10 4 -10 10zM239 761h-244c-6 0 -10 4 -10 10v89c0 6 4 10 10 10h244c6 0 10 -4 10 -10v-89c0 -6 -4 -10 -10 -10z" />
    <glyph glyph-name="Idotaccent" unicode="&#x130;" horiz-adv-x="233" 
d="M37 10v660c0 6 4 10 10 10h139c6 0 10 -4 10 -10v-660c0 -6 -4 -10 -10 -10h-139c-6 0 -10 4 -10 10zM183 750h-131c-6 0 -10 4 -10 10v110c0 6 4 10 10 10h131c6 0 10 -4 10 -10v-110c0 -6 -4 -10 -10 -10z" />
    <glyph glyph-name="Iogonek" unicode="&#x12e;" horiz-adv-x="233" 
d="M118 -192c-62 0 -102 34 -102 92c0 37 18 69 49 100h-18c-6 0 -10 4 -10 10v660c0 6 4 10 10 10h139c6 0 10 -4 10 -10v-660c0 -5 -1 -7 -4 -9c-53 -31 -68 -53 -68 -74c0 -13 8 -21 19 -21c5 0 10 1 15 3c5 3 10 1 12 -5l25 -63c2 -5 0 -10 -5 -13
c-17 -12 -47 -20 -72 -20z" />
    <glyph glyph-name="Jcircumflex" unicode="&#x134;" horiz-adv-x="386" 
d="M11 48c-5 5 -4 9 1 14l84 85c5 5 11 5 17 0c10 -9 22 -15 35 -15c28 0 42 16 42 51v487c0 6 4 10 10 10h139c6 0 10 -4 10 -10v-472c0 -142 -75 -208 -198 -208c-58 0 -111 23 -140 58zM416 740h-80c-8 0 -13 3 -19 10l-47 56h-2l-47 -56c-6 -7 -11 -10 -19 -10h-81
c-6 0 -8 5 -4 10l94 137c4 6 9 10 17 10h82c7 0 13 -4 17 -10l93 -137c4 -5 2 -10 -4 -10z" />
    <glyph glyph-name="Kcommaaccent" unicode="&#x136;" horiz-adv-x="486" 
d="M207 -242c-6 0 -11 3 -11 11v170c0 6 4 10 10 10h100c6 0 10 -4 10 -10v-67c0 -11 -3 -17 -9 -24l-88 -84c-3 -4 -7 -6 -12 -6zM37 10v660c0 6 4 10 10 10h139c6 0 10 -4 10 -10v-241l110 242c3 6 7 9 14 9h141c5 0 8 -5 5 -10l-134 -262l146 -398c2 -5 -1 -10 -6 -10
h-147c-6 0 -9 3 -10 8l-85 254l-34 -74v-178c0 -6 -4 -10 -10 -10h-139c-6 0 -10 4 -10 10z" />
    <glyph glyph-name="Lacute" unicode="&#x139;" horiz-adv-x="398" 
d="M167 747h-95c-6 0 -10 5 -6 10l88 122c5 7 8 10 16 10h121c6 0 9 -5 5 -10l-110 -122c-7 -7 -11 -10 -19 -10zM37 10v660c0 6 4 10 10 10h139c6 0 10 -4 10 -10v-522c0 -4 2 -6 6 -6h166c6 0 10 -4 10 -10v-122c0 -6 -4 -10 -10 -10h-321c-6 0 -10 4 -10 10z" />
    <glyph glyph-name="Lcaron" unicode="&#x13d;" horiz-adv-x="398" 
d="M243 475c-6 0 -10 3 -10 10v185c0 6 4 10 10 10h93c6 0 10 -4 10 -10v-84c0 -11 -3 -17 -9 -24l-82 -81c-3 -4 -7 -6 -12 -6zM37 10v660c0 6 4 10 10 10h139c6 0 10 -4 10 -10v-522c0 -4 2 -6 6 -6h166c6 0 10 -4 10 -10v-122c0 -6 -4 -10 -10 -10h-321
c-6 0 -10 4 -10 10z" />
    <glyph glyph-name="Lcommaaccent" unicode="&#x13b;" horiz-adv-x="398" 
d="M151 -242c-6 0 -11 3 -11 11v170c0 6 4 10 10 10h100c6 0 10 -4 10 -10v-67c0 -11 -3 -17 -9 -24l-88 -84c-3 -4 -7 -6 -12 -6zM37 10v660c0 6 4 10 10 10h139c6 0 10 -4 10 -10v-522c0 -4 2 -6 6 -6h166c6 0 10 -4 10 -10v-122c0 -6 -4 -10 -10 -10h-321
c-6 0 -10 4 -10 10z" />
    <glyph glyph-name="Lslash" unicode="&#x141;" horiz-adv-x="398" 
d="M279 386l-83 -57v-181c0 -4 2 -6 6 -6h166c6 0 10 -4 10 -10v-122c0 -6 -4 -10 -10 -10h-321c-6 0 -10 4 -10 10v217l-24 -16c-5 -3 -10 0 -10 5v111c0 7 3 11 10 16l24 16v311c0 6 4 10 10 10h139c6 0 10 -4 10 -10v-208l83 57c5 3 10 0 10 -5v-112c0 -7 -3 -11 -10 -16
z" />
    <glyph glyph-name="Ldot" unicode="&#x13f;" horiz-adv-x="398" 
d="M37 10v660c0 6 4 10 10 10h139c6 0 10 -4 10 -10v-522c0 -4 2 -6 6 -6h166c6 0 10 -4 10 -10v-122c0 -6 -4 -10 -10 -10h-321c-6 0 -10 4 -10 10zM377 230h-121c-6 0 -10 4 -10 10v135c0 6 4 10 10 10h121c6 0 10 -4 10 -10v-135c0 -6 -4 -10 -10 -10z" />
    <glyph glyph-name="Nacute" unicode="&#x143;" horiz-adv-x="491" 
d="M276 747h-95c-6 0 -10 5 -6 10l88 122c5 7 8 10 16 10h121c6 0 9 -5 5 -10l-110 -122c-7 -7 -11 -10 -19 -10zM37 10v660c0 6 4 10 10 10h145c8 0 12 -4 14 -10l105 -379h5v379c0 6 4 10 10 10h118c6 0 10 -4 10 -10v-660c0 -6 -4 -10 -10 -10h-142c-8 0 -12 4 -14 10
l-107 379h-6v-379c0 -6 -4 -10 -10 -10h-118c-6 0 -10 4 -10 10z" />
    <glyph glyph-name="Ncaron" unicode="&#x147;" horiz-adv-x="491" 
d="M286 734h-82c-8 0 -13 4 -17 10l-94 137c-4 5 -2 10 4 10h81c8 0 13 -3 19 -10l47 -56h2l47 56c6 7 11 10 19 10h80c6 0 8 -5 4 -10l-93 -137c-4 -6 -10 -10 -17 -10zM37 10v660c0 6 4 10 10 10h145c8 0 12 -4 14 -10l105 -379h5v379c0 6 4 10 10 10h118
c6 0 10 -4 10 -10v-660c0 -6 -4 -10 -10 -10h-142c-8 0 -12 4 -14 10l-107 379h-6v-379c0 -6 -4 -10 -10 -10h-118c-6 0 -10 4 -10 10z" />
    <glyph glyph-name="Ntilde" unicode="&#xd1;" horiz-adv-x="491" 
d="M300 744c-25 0 -42 9 -60 19c-17 11 -30 18 -50 18c-27 0 -43 -12 -62 -31c-5 -5 -11 -3 -11 3v87c0 7 1 10 7 17c18 18 39 30 67 30c25 0 42 -9 60 -19c17 -11 30 -18 50 -18c27 0 43 12 62 31c5 5 11 3 11 -3v-87c0 -7 -1 -11 -7 -17c-18 -18 -39 -30 -67 -30zM37 10
v660c0 6 4 10 10 10h145c8 0 12 -4 14 -10l105 -379h5v379c0 6 4 10 10 10h118c6 0 10 -4 10 -10v-660c0 -6 -4 -10 -10 -10h-142c-8 0 -12 4 -14 10l-107 379h-6v-379c0 -6 -4 -10 -10 -10h-118c-6 0 -10 4 -10 10z" />
    <glyph glyph-name="Ncommaaccent" unicode="&#x145;" horiz-adv-x="491" 
d="M212 -242c-6 0 -11 3 -11 11v170c0 6 4 10 10 10h100c6 0 10 -4 10 -10v-67c0 -11 -3 -17 -9 -24l-88 -84c-3 -4 -7 -6 -12 -6zM37 10v660c0 6 4 10 10 10h145c8 0 12 -4 14 -10l105 -379h5v379c0 6 4 10 10 10h118c6 0 10 -4 10 -10v-660c0 -6 -4 -10 -10 -10h-142
c-8 0 -12 4 -14 10l-107 379h-6v-379c0 -6 -4 -10 -10 -10h-118c-6 0 -10 4 -10 10z" />
    <glyph glyph-name="Ograve" unicode="&#xd2;" horiz-adv-x="471" 
d="M285 747h-95c-8 0 -12 3 -19 10l-110 122c-4 5 -1 10 5 10h120c8 0 11 -3 16 -10l89 -122c4 -5 0 -10 -6 -10zM235 -10c-96 0 -162 42 -189 125c-11 34 -16 66 -16 225s5 191 16 225c27 83 93 125 189 125s163 -42 190 -125c11 -34 16 -66 16 -225s-5 -191 -16 -225
c-27 -83 -94 -125 -190 -125zM235 132c20 0 33 10 38 25c4 13 5 25 5 183s-1 170 -5 183c-5 15 -18 25 -38 25c-19 0 -32 -10 -37 -25c-4 -13 -5 -25 -5 -183s1 -170 5 -183c5 -15 18 -25 37 -25z" />
    <glyph glyph-name="Oacute" unicode="&#xd3;" horiz-adv-x="471" 
d="M281 747h-95c-6 0 -10 5 -6 10l88 122c5 7 8 10 16 10h121c6 0 9 -5 5 -10l-110 -122c-7 -7 -11 -10 -19 -10zM235 -10c-96 0 -162 42 -189 125c-11 34 -16 66 -16 225s5 191 16 225c27 83 93 125 189 125s163 -42 190 -125c11 -34 16 -66 16 -225s-5 -191 -16 -225
c-27 -83 -94 -125 -190 -125zM235 132c20 0 33 10 38 25c4 13 5 25 5 183s-1 170 -5 183c-5 15 -18 25 -38 25c-19 0 -32 -10 -37 -25c-4 -13 -5 -25 -5 -183s1 -170 5 -183c5 -15 18 -25 37 -25z" />
    <glyph glyph-name="Ocircumflex" unicode="&#xd4;" horiz-adv-x="471" 
d="M235 -10c-96 0 -162 42 -189 125c-11 34 -16 66 -16 225s5 191 16 225c27 83 93 125 189 125s163 -42 190 -125c11 -34 16 -66 16 -225s-5 -191 -16 -225c-27 -83 -94 -125 -190 -125zM235 132c20 0 33 10 38 25c4 13 5 25 5 183s-1 170 -5 183c-5 15 -18 25 -38 25
c-19 0 -32 -10 -37 -25c-4 -13 -5 -25 -5 -183s1 -170 5 -183c5 -15 18 -25 37 -25zM383 740h-80c-8 0 -13 3 -19 10l-47 56h-2l-47 -56c-6 -7 -11 -10 -19 -10h-81c-6 0 -8 5 -4 10l94 137c4 6 9 10 17 10h82c7 0 13 -4 17 -10l93 -137c4 -5 2 -10 -4 -10z" />
    <glyph glyph-name="Otilde" unicode="&#xd5;" horiz-adv-x="471" 
d="M290 744c-25 0 -42 9 -60 19c-17 11 -30 18 -50 18c-27 0 -43 -12 -62 -31c-5 -5 -11 -3 -11 3v87c0 7 1 10 7 17c18 18 39 30 67 30c25 0 42 -9 60 -19c17 -11 30 -18 50 -18c27 0 43 12 62 31c5 5 11 3 11 -3v-87c0 -7 -1 -11 -7 -17c-18 -18 -39 -30 -67 -30zM235 -10
c-96 0 -162 42 -189 125c-11 34 -16 66 -16 225s5 191 16 225c27 83 93 125 189 125s163 -42 190 -125c11 -34 16 -66 16 -225s-5 -191 -16 -225c-27 -83 -94 -125 -190 -125zM235 132c20 0 33 10 38 25c4 13 5 25 5 183s-1 170 -5 183c-5 15 -18 25 -38 25
c-19 0 -32 -10 -37 -25c-4 -13 -5 -25 -5 -183s1 -170 5 -183c5 -15 18 -25 37 -25z" />
    <glyph glyph-name="Odieresis" unicode="&#xd6;" horiz-adv-x="471" 
d="M362 750h-91c-6 0 -10 4 -10 10v110c0 6 4 10 10 10h91c6 0 10 -4 10 -10v-110c0 -6 -4 -10 -10 -10zM199 750h-91c-6 0 -10 4 -10 10v110c0 6 4 10 10 10h91c6 0 10 -4 10 -10v-110c0 -6 -4 -10 -10 -10zM235 -10c-96 0 -162 42 -189 125c-11 34 -16 66 -16 225
s5 191 16 225c27 83 93 125 189 125s163 -42 190 -125c11 -34 16 -66 16 -225s-5 -191 -16 -225c-27 -83 -94 -125 -190 -125zM235 132c20 0 33 10 38 25c4 13 5 25 5 183s-1 170 -5 183c-5 15 -18 25 -38 25c-19 0 -32 -10 -37 -25c-4 -13 -5 -25 -5 -183s1 -170 5 -183
c5 -15 18 -25 37 -25z" />
    <glyph glyph-name="Omacron" unicode="&#x14c;" horiz-adv-x="471" 
d="M357 761h-244c-6 0 -10 4 -10 10v89c0 6 4 10 10 10h244c6 0 10 -4 10 -10v-89c0 -6 -4 -10 -10 -10zM235 -10c-96 0 -162 42 -189 125c-11 34 -16 66 -16 225s5 191 16 225c27 83 93 125 189 125s163 -42 190 -125c11 -34 16 -66 16 -225s-5 -191 -16 -225
c-27 -83 -94 -125 -190 -125zM235 132c20 0 33 10 38 25c4 13 5 25 5 183s-1 170 -5 183c-5 15 -18 25 -38 25c-19 0 -32 -10 -37 -25c-4 -13 -5 -25 -5 -183s1 -170 5 -183c5 -15 18 -25 37 -25z" />
    <glyph glyph-name="Obreve" unicode="&#x14e;" horiz-adv-x="471" 
d="M235 731c-90 0 -139 61 -141 138c0 6 5 11 13 11h60c8 0 11 -4 14 -11c10 -26 28 -42 54 -42s44 16 54 42c3 7 6 11 14 11h60c8 0 13 -5 13 -11c-2 -77 -52 -138 -141 -138zM235 -10c-96 0 -162 42 -189 125c-11 34 -16 66 -16 225s5 191 16 225c27 83 93 125 189 125
s163 -42 190 -125c11 -34 16 -66 16 -225s-5 -191 -16 -225c-27 -83 -94 -125 -190 -125zM235 132c20 0 33 10 38 25c4 13 5 25 5 183s-1 170 -5 183c-5 15 -18 25 -38 25c-19 0 -32 -10 -37 -25c-4 -13 -5 -25 -5 -183s1 -170 5 -183c5 -15 18 -25 37 -25z" />
    <glyph glyph-name="Ohungarumlaut" unicode="&#x150;" horiz-adv-x="471" 
d="M235 -10c-96 0 -162 42 -189 125c-11 34 -16 66 -16 225s5 191 16 225c27 83 93 125 189 125s163 -42 190 -125c11 -34 16 -66 16 -225s-5 -191 -16 -225c-27 -83 -94 -125 -190 -125zM235 132c20 0 33 10 38 25c4 13 5 25 5 183s-1 170 -5 183c-5 15 -18 25 -38 25
c-19 0 -32 -10 -37 -25c-4 -13 -5 -25 -5 -183s1 -170 5 -183c5 -15 18 -25 37 -25zM347 747h-80c-6 0 -9 4 -6 10l72 119c4 6 8 10 16 10h99c6 0 8 -5 4 -10l-86 -119c-6 -7 -10 -10 -19 -10zM192 747h-81c-6 0 -9 4 -5 10l71 119c4 6 8 10 16 10h99c6 0 8 -5 5 -10
l-87 -119c-5 -7 -10 -10 -18 -10z" />
    <glyph glyph-name="Oslash" unicode="&#xd8;" horiz-adv-x="471" 
d="M235 -10c-43 0 -80 9 -110 25l-18 -35c-4 -8 -7 -10 -16 -10h-78c-6 0 -9 5 -6 10l53 101c-5 10 -10 22 -14 34c-12 34 -16 66 -16 225s4 191 16 225c28 83 94 125 189 125c43 0 80 -9 110 -25l19 35c4 8 7 10 16 10h78c6 0 9 -5 6 -10l-54 -101c6 -11 11 -22 15 -34
c11 -34 16 -66 16 -225s-5 -191 -16 -225c-27 -83 -94 -125 -190 -125zM235 132c20 0 33 10 38 25c4 13 5 23 5 183s-1 170 -5 183c-5 15 -18 25 -38 25c-19 0 -32 -10 -37 -25c-4 -13 -5 -23 -5 -183s1 -170 5 -183c5 -15 18 -25 37 -25z" />
    <glyph glyph-name="Oslashacute" unicode="&#x1fe;" horiz-adv-x="471" 
d="M220 -10c-43 0 -80 9 -110 25l-18 -35c-4 -8 -7 -10 -16 -10h-78c-6 0 -9 5 -6 10l53 101c-5 10 -10 22 -14 34c-12 34 -16 66 -16 225s4 191 16 225c28 83 94 125 189 125c43 0 80 -9 110 -25l19 35c4 8 7 10 16 10h78c6 0 9 -5 6 -10l-54 -101c6 -11 11 -22 15 -34
c11 -34 16 -66 16 -225s-5 -191 -16 -225c-27 -83 -94 -125 -190 -125zM220 132c20 0 33 10 38 25c4 13 5 23 5 183s-1 170 -5 183c-5 15 -18 25 -38 25c-19 0 -32 -10 -37 -25c-4 -13 -5 -23 -5 -183s1 -170 5 -183c5 -15 18 -25 37 -25zM281 747h-95c-6 0 -10 5 -6 10
l88 122c5 7 8 10 16 10h121c6 0 9 -5 5 -10l-110 -122c-7 -7 -11 -10 -19 -10z" />
    <glyph glyph-name="OE" unicode="&#x152;" horiz-adv-x="642" 
d="M606 0h-317c-6 0 -10 4 -10 10v14h-1c-12 -18 -43 -34 -89 -34c-73 0 -121 35 -144 108c-11 33 -15 82 -15 242s4 209 15 242c23 73 71 108 144 108c46 0 77 -16 89 -34h1v14c0 6 4 10 10 10h317c6 0 10 -4 10 -10v-122c0 -6 -4 -10 -10 -10h-163c-4 0 -6 -2 -6 -6v-112
c0 -4 2 -6 6 -6h140c6 0 10 -4 10 -10v-122c0 -6 -4 -10 -10 -10h-140c-4 0 -6 -2 -6 -6v-118c0 -4 2 -6 6 -6h163c6 0 10 -4 10 -10v-122c0 -6 -4 -10 -10 -10zM235 132c20 0 33 10 38 25c4 13 5 23 5 183s-1 170 -5 183c-5 15 -18 25 -38 25c-19 0 -32 -10 -37 -25
c-4 -13 -5 -23 -5 -183s1 -170 5 -183c5 -15 18 -25 37 -25z" />
    <glyph glyph-name="Racute" unicode="&#x154;" horiz-adv-x="473" 
d="M455 0h-148c-7 0 -11 3 -13 9l-69 245h-23c-4 0 -6 -2 -6 -6v-238c0 -6 -4 -10 -10 -10h-139c-6 0 -10 4 -10 10v660c0 6 4 10 10 10h191c122 0 204 -62 204 -215c0 -83 -27 -138 -71 -172l89 -283c2 -5 0 -10 -5 -10zM225 385c40 0 58 19 58 80c0 62 -18 81 -58 81h-23
c-4 0 -6 -2 -6 -6v-149c0 -4 2 -6 6 -6h23zM245 747h-95c-6 0 -10 5 -6 10l88 122c5 7 8 10 16 10h121c6 0 9 -5 5 -10l-110 -122c-7 -7 -11 -10 -19 -10z" />
    <glyph glyph-name="Rcaron" unicode="&#x158;" horiz-adv-x="473" 
d="M255 734h-82c-8 0 -13 4 -17 10l-94 137c-4 5 -2 10 4 10h81c8 0 13 -3 19 -10l47 -56h2l47 56c6 7 11 10 19 10h80c6 0 8 -5 4 -10l-93 -137c-4 -6 -10 -10 -17 -10zM455 0h-148c-7 0 -11 3 -13 9l-69 245h-23c-4 0 -6 -2 -6 -6v-238c0 -6 -4 -10 -10 -10h-139
c-6 0 -10 4 -10 10v660c0 6 4 10 10 10h191c122 0 204 -62 204 -215c0 -83 -27 -138 -71 -172l89 -283c2 -5 0 -10 -5 -10zM225 385c40 0 58 19 58 80c0 62 -18 81 -58 81h-23c-4 0 -6 -2 -6 -6v-149c0 -4 2 -6 6 -6h23z" />
    <glyph glyph-name="Rcommaaccent" unicode="&#x156;" horiz-adv-x="473" 
d="M187 -242c-6 0 -11 3 -11 11v170c0 6 4 10 10 10h100c6 0 10 -4 10 -10v-67c0 -11 -3 -17 -9 -24l-88 -84c-3 -4 -7 -6 -12 -6zM455 0h-148c-7 0 -11 3 -13 9l-69 245h-23c-4 0 -6 -2 -6 -6v-238c0 -6 -4 -10 -10 -10h-139c-6 0 -10 4 -10 10v660c0 6 4 10 10 10h191
c122 0 204 -62 204 -215c0 -83 -27 -138 -71 -172l89 -283c2 -5 0 -10 -5 -10zM225 385c40 0 58 19 58 80c0 62 -18 81 -58 81h-23c-4 0 -6 -2 -6 -6v-149c0 -4 2 -6 6 -6h23z" />
    <glyph glyph-name="Sacute" unicode="&#x15a;" horiz-adv-x="445" 
d="M425 210c0 -146 -64 -220 -205 -220c-138 0 -198 74 -199 187c0 6 2 11 8 12l132 21c7 1 11 -3 11 -9c1 -51 16 -74 48 -74c29 0 44 16 44 63c0 46 -11 62 -61 81l-41 16c-96 38 -135 92 -135 204c0 129 63 199 194 199c127 0 192 -67 196 -174c0 -6 -3 -10 -9 -11
l-126 -19c-6 -1 -11 2 -11 8c-1 40 -16 59 -44 59c-27 0 -41 -17 -41 -51c0 -39 11 -52 63 -73l41 -16c97 -37 135 -90 135 -203zM257 747h-95c-6 0 -10 5 -6 10l88 122c5 7 8 10 16 10h121c6 0 9 -5 5 -10l-110 -122c-7 -7 -11 -10 -19 -10z" />
    <glyph glyph-name="Scircumflex" unicode="&#x15c;" horiz-adv-x="445" 
d="M425 210c0 -146 -64 -220 -205 -220c-138 0 -198 74 -199 187c0 6 2 11 8 12l132 21c7 1 11 -3 11 -9c1 -51 16 -74 48 -74c29 0 44 16 44 63c0 46 -11 62 -61 81l-41 16c-96 38 -135 92 -135 204c0 129 63 199 194 199c127 0 192 -67 196 -174c0 -6 -3 -10 -9 -11
l-126 -19c-6 -1 -11 2 -11 8c-1 40 -16 59 -44 59c-27 0 -41 -17 -41 -51c0 -39 11 -52 63 -73l41 -16c97 -37 135 -90 135 -203zM369 740h-80c-8 0 -13 3 -19 10l-47 56h-2l-47 -56c-6 -7 -11 -10 -19 -10h-81c-6 0 -8 5 -4 10l94 137c4 6 9 10 17 10h82c7 0 13 -4 17 -10
l93 -137c4 -5 2 -10 -4 -10z" />
    <glyph glyph-name="Scaron" unicode="&#x160;" horiz-adv-x="445" 
d="M425 210c0 -146 -64 -220 -205 -220c-138 0 -198 74 -199 187c0 6 2 11 8 12l132 21c7 1 11 -3 11 -9c1 -51 16 -74 48 -74c29 0 44 16 44 63c0 46 -11 62 -61 81l-41 16c-96 38 -135 92 -135 204c0 129 63 199 194 199c127 0 192 -67 196 -174c0 -6 -3 -10 -9 -11
l-126 -19c-6 -1 -11 2 -11 8c-1 40 -16 59 -44 59c-27 0 -41 -17 -41 -51c0 -39 11 -52 63 -73l41 -16c97 -37 135 -90 135 -203zM260 734h-82c-8 0 -13 4 -17 10l-94 137c-4 5 -2 10 4 10h81c8 0 13 -3 19 -10l47 -56h2l47 56c6 7 11 10 19 10h80c6 0 8 -5 4 -10l-93 -137
c-4 -6 -10 -10 -17 -10z" />
    <glyph glyph-name="Scedilla" unicode="&#x15e;" horiz-adv-x="445" 
d="M107 -155l65 149c-104 15 -150 84 -151 183c0 6 2 11 8 12l132 21c7 1 11 -3 11 -9c1 -51 16 -74 48 -74c29 0 44 16 44 63c0 46 -11 62 -61 81l-41 16c-96 38 -135 92 -135 204c0 129 63 199 194 199c127 0 192 -67 196 -174c0 -6 -3 -10 -9 -11l-126 -19
c-6 -1 -11 2 -11 8c-1 40 -16 59 -44 59c-27 0 -41 -17 -41 -51c0 -39 11 -52 63 -73l41 -16c97 -37 135 -90 135 -203c0 -120 -43 -192 -137 -213l-55 -152c-3 -8 -7 -10 -15 -10h-104c-6 0 -9 4 -7 10z" />
    <glyph glyph-name="Scommaaccent" unicode="&#x218;" horiz-adv-x="445" 
d="M173 -242c-6 0 -11 3 -11 11v170c0 6 4 10 10 10h100c6 0 10 -4 10 -10v-67c0 -11 -3 -17 -9 -24l-88 -84c-3 -4 -7 -6 -12 -6zM425 210c0 -146 -64 -220 -205 -220c-138 0 -198 74 -199 187c0 6 2 11 8 12l132 21c7 1 11 -3 11 -9c1 -51 16 -74 48 -74c29 0 44 16 44 63
c0 46 -11 62 -61 81l-41 16c-96 38 -135 92 -135 204c0 129 63 199 194 199c127 0 192 -67 196 -174c0 -6 -3 -10 -9 -11l-126 -19c-6 -1 -11 2 -11 8c-1 40 -16 59 -44 59c-27 0 -41 -17 -41 -51c0 -39 11 -52 63 -73l41 -16c97 -37 135 -90 135 -203z" />
    <glyph glyph-name="Tcaron" unicode="&#x164;" horiz-adv-x="440" 
d="M262 734h-82c-8 0 -13 4 -17 10l-94 137c-4 5 -2 10 4 10h81c8 0 13 -3 19 -10l47 -56h2l47 56c6 7 11 10 19 10h80c6 0 8 -5 4 -10l-93 -137c-4 -6 -10 -10 -17 -10zM289 0h-139c-6 0 -10 4 -10 10v522c0 4 -2 6 -6 6h-112c-6 0 -10 4 -10 10v122c0 6 4 10 10 10h395
c6 0 10 -4 10 -10v-122c0 -6 -4 -10 -10 -10h-112c-4 0 -6 -2 -6 -6v-522c0 -6 -4 -10 -10 -10z" />
    <glyph glyph-name="Tcommaaccent" unicode="&#x162;" horiz-adv-x="440" 
d="M172 -242c-6 0 -11 3 -11 11v170c0 6 4 10 10 10h100c6 0 10 -4 10 -10v-67c0 -11 -3 -17 -9 -24l-88 -84c-3 -4 -7 -6 -12 -6zM289 0h-139c-6 0 -10 4 -10 10v522c0 4 -2 6 -6 6h-112c-6 0 -10 4 -10 10v122c0 6 4 10 10 10h395c6 0 10 -4 10 -10v-122
c0 -6 -4 -10 -10 -10h-112c-4 0 -6 -2 -6 -6v-522c0 -6 -4 -10 -10 -10z" />
    <glyph glyph-name="uni021A" unicode="&#x21a;" horiz-adv-x="440" 
d="M172 -242c-6 0 -11 3 -11 11v170c0 6 4 10 10 10h100c6 0 10 -4 10 -10v-67c0 -11 -3 -17 -9 -24l-88 -84c-3 -4 -7 -6 -12 -6zM289 0h-139c-6 0 -10 4 -10 10v522c0 4 -2 6 -6 6h-112c-6 0 -10 4 -10 10v122c0 6 4 10 10 10h395c6 0 10 -4 10 -10v-122
c0 -6 -4 -10 -10 -10h-112c-4 0 -6 -2 -6 -6v-522c0 -6 -4 -10 -10 -10z" />
    <glyph glyph-name="Tbar" unicode="&#x166;" horiz-adv-x="440" 
d="M289 0h-139c-6 0 -10 4 -10 10v290c0 4 -2 6 -6 6h-59c-6 0 -10 4 -10 10v94c0 6 4 10 10 10h59c4 0 6 2 6 6v106c0 4 -2 6 -6 6h-112c-6 0 -10 4 -10 10v122c0 6 4 10 10 10h395c6 0 10 -4 10 -10v-122c0 -6 -4 -10 -10 -10h-112c-4 0 -6 -2 -6 -6v-106c0 -4 2 -6 6 -6
h59c6 0 10 -4 10 -10v-94c0 -6 -4 -10 -10 -10h-59c-4 0 -6 -2 -6 -6v-290c0 -6 -4 -10 -10 -10z" />
    <glyph glyph-name="Thorn" unicode="&#xde;" horiz-adv-x="463" 
d="M186 0h-139c-6 0 -10 4 -10 10v660c0 6 4 10 10 10h139c6 0 10 -4 10 -10v-96c0 -4 2 -6 6 -6h32c127 0 208 -65 208 -219c0 -156 -88 -219 -208 -219h-32c-4 0 -6 -2 -6 -6v-114c0 -6 -4 -10 -10 -10zM225 264c40 0 58 18 58 85s-18 85 -58 85h-23c-4 0 -6 -2 -6 -6
v-158c0 -4 2 -6 6 -6h23z" />
    <glyph glyph-name="Ugrave" unicode="&#xd9;" horiz-adv-x="472" 
d="M287 747h-95c-8 0 -12 3 -19 10l-110 122c-4 5 -1 10 5 10h120c8 0 11 -3 16 -10l89 -122c4 -5 0 -10 -6 -10zM236 -10c-122 0 -200 70 -200 207v473c0 6 4 10 10 10h139c6 0 10 -4 10 -10v-491c0 -30 15 -47 41 -47s41 17 41 47v491c0 6 4 10 10 10h139
c6 0 10 -4 10 -10v-473c0 -137 -78 -207 -200 -207z" />
    <glyph glyph-name="Uacute" unicode="&#xda;" horiz-adv-x="472" 
d="M282 747h-95c-6 0 -10 5 -6 10l88 122c5 7 8 10 16 10h121c6 0 9 -5 5 -10l-110 -122c-7 -7 -11 -10 -19 -10zM236 -10c-122 0 -200 70 -200 207v473c0 6 4 10 10 10h139c6 0 10 -4 10 -10v-491c0 -30 15 -47 41 -47s41 17 41 47v491c0 6 4 10 10 10h139
c6 0 10 -4 10 -10v-473c0 -137 -78 -207 -200 -207z" />
    <glyph glyph-name="Ucircumflex" unicode="&#xdb;" horiz-adv-x="472" 
d="M236 -10c-122 0 -200 70 -200 207v473c0 6 4 10 10 10h139c6 0 10 -4 10 -10v-491c0 -30 15 -47 41 -47s41 17 41 47v491c0 6 4 10 10 10h139c6 0 10 -4 10 -10v-473c0 -137 -78 -207 -200 -207zM383 740h-80c-8 0 -13 3 -19 10l-47 56h-2l-47 -56c-6 -7 -11 -10 -19 -10
h-81c-6 0 -8 5 -4 10l94 137c4 6 9 10 17 10h82c7 0 13 -4 17 -10l93 -137c4 -5 2 -10 -4 -10z" />
    <glyph glyph-name="Utilde" unicode="&#x168;" horiz-adv-x="472" 
d="M290 744c-25 0 -42 9 -60 19c-17 11 -30 18 -50 18c-27 0 -43 -12 -62 -31c-5 -5 -11 -3 -11 3v87c0 7 1 10 7 17c18 18 39 30 67 30c25 0 42 -9 60 -19c17 -11 30 -18 50 -18c27 0 43 12 62 31c5 5 11 3 11 -3v-87c0 -7 -1 -11 -7 -17c-18 -18 -39 -30 -67 -30zM236 -10
c-122 0 -200 70 -200 207v473c0 6 4 10 10 10h139c6 0 10 -4 10 -10v-491c0 -30 15 -47 41 -47s41 17 41 47v491c0 6 4 10 10 10h139c6 0 10 -4 10 -10v-473c0 -137 -78 -207 -200 -207z" />
    <glyph glyph-name="Udieresis" unicode="&#xdc;" horiz-adv-x="472" 
d="M363 750h-91c-6 0 -10 4 -10 10v110c0 6 4 10 10 10h91c6 0 10 -4 10 -10v-110c0 -6 -4 -10 -10 -10zM200 750h-91c-6 0 -10 4 -10 10v110c0 6 4 10 10 10h91c6 0 10 -4 10 -10v-110c0 -6 -4 -10 -10 -10zM236 -10c-122 0 -200 70 -200 207v473c0 6 4 10 10 10h139
c6 0 10 -4 10 -10v-491c0 -30 15 -47 41 -47s41 17 41 47v491c0 6 4 10 10 10h139c6 0 10 -4 10 -10v-473c0 -137 -78 -207 -200 -207z" />
    <glyph glyph-name="Umacron" unicode="&#x16a;" horiz-adv-x="472" 
d="M358 761h-244c-6 0 -10 4 -10 10v89c0 6 4 10 10 10h244c6 0 10 -4 10 -10v-89c0 -6 -4 -10 -10 -10zM236 -10c-122 0 -200 70 -200 207v473c0 6 4 10 10 10h139c6 0 10 -4 10 -10v-491c0 -30 15 -47 41 -47s41 17 41 47v491c0 6 4 10 10 10h139c6 0 10 -4 10 -10v-473
c0 -137 -78 -207 -200 -207z" />
    <glyph glyph-name="Ubreve" unicode="&#x16c;" horiz-adv-x="472" 
d="M236 731c-90 0 -139 61 -141 138c0 6 5 11 13 11h60c8 0 11 -4 14 -11c10 -26 28 -42 54 -42s44 16 54 42c3 7 6 11 14 11h60c8 0 13 -5 13 -11c-2 -77 -52 -138 -141 -138zM236 -10c-122 0 -200 70 -200 207v473c0 6 4 10 10 10h139c6 0 10 -4 10 -10v-491
c0 -30 15 -47 41 -47s41 17 41 47v491c0 6 4 10 10 10h139c6 0 10 -4 10 -10v-473c0 -137 -78 -207 -200 -207z" />
    <glyph glyph-name="Uring" unicode="&#x16e;" horiz-adv-x="472" 
d="M236 -10c-122 0 -200 70 -200 207v473c0 6 4 10 10 10h139c6 0 10 -4 10 -10v-491c0 -30 15 -47 41 -47s41 17 41 47v491c0 6 4 10 10 10h139c6 0 10 -4 10 -10v-473c0 -137 -78 -207 -200 -207zM236 709c-59 0 -103 43 -103 101c0 59 44 102 103 102s103 -43 103 -102
c0 -58 -44 -101 -103 -101zM236 767c23 0 41 18 41 43c0 26 -18 44 -41 44c-24 0 -41 -18 -41 -44c0 -25 17 -43 41 -43z" />
    <glyph glyph-name="Uhungarumlaut" unicode="&#x170;" horiz-adv-x="472" 
d="M236 -10c-122 0 -200 70 -200 207v473c0 6 4 10 10 10h139c6 0 10 -4 10 -10v-491c0 -30 15 -47 41 -47s41 17 41 47v491c0 6 4 10 10 10h139c6 0 10 -4 10 -10v-473c0 -137 -78 -207 -200 -207zM354 747h-80c-6 0 -9 4 -6 10l72 119c4 6 8 10 16 10h99c6 0 8 -5 4 -10
l-86 -119c-6 -7 -10 -10 -19 -10zM199 747h-81c-6 0 -9 4 -5 10l71 119c4 6 8 10 16 10h99c6 0 8 -5 5 -10l-87 -119c-5 -7 -10 -10 -18 -10z" />
    <glyph glyph-name="Uogonek" unicode="&#x172;" horiz-adv-x="472" 
d="M246 -192c-62 0 -102 34 -102 92c0 33 13 61 40 95c-91 17 -148 84 -148 202v473c0 6 4 10 10 10h139c6 0 10 -4 10 -10v-491c0 -30 15 -47 41 -47s41 17 41 47v491c0 6 4 10 10 10h139c6 0 10 -4 10 -10v-473c0 -109 -49 -175 -129 -198c-47 -37 -54 -54 -54 -72
c0 -13 7 -21 18 -21c5 0 10 1 15 3c5 3 10 1 12 -5l26 -63c2 -5 0 -10 -5 -13c-18 -12 -47 -20 -73 -20z" />
    <glyph glyph-name="Wacute" unicode="&#x1e82;" horiz-adv-x="653" 
d="M375 747h-95c-6 0 -10 5 -6 10l88 122c5 7 8 10 16 10h121c6 0 9 -5 5 -10l-110 -122c-7 -7 -11 -10 -19 -10zM515 0h-124c-6 0 -10 4 -11 10l-52 368h-2l-52 -368c-2 -6 -6 -10 -12 -10h-124c-6 0 -9 4 -11 10l-116 660c-2 6 1 10 8 10h143c6 0 10 -4 11 -10l42 -396h3
l51 396c1 6 5 10 11 10h93c6 0 10 -4 12 -10l53 -396h2l41 396c2 6 6 10 12 10h141c7 0 10 -4 8 -10l-116 -660c-1 -6 -5 -10 -11 -10z" />
    <glyph glyph-name="Wcircumflex" unicode="&#x174;" horiz-adv-x="653" 
d="M515 0h-124c-6 0 -10 4 -11 10l-52 368h-2l-52 -368c-2 -6 -6 -10 -12 -10h-124c-6 0 -9 4 -11 10l-116 660c-2 6 1 10 8 10h143c6 0 10 -4 11 -10l42 -396h3l51 396c1 6 5 10 11 10h93c6 0 10 -4 12 -10l53 -396h2l41 396c2 6 6 10 12 10h141c7 0 10 -4 8 -10l-116 -660
c-1 -6 -5 -10 -11 -10zM473 740h-80c-8 0 -13 3 -19 10l-47 56h-2l-47 -56c-6 -7 -11 -10 -19 -10h-81c-6 0 -8 5 -4 10l94 137c4 6 9 10 17 10h82c7 0 13 -4 17 -10l93 -137c4 -5 2 -10 -4 -10z" />
    <glyph glyph-name="Wdieresis" unicode="&#x1e84;" horiz-adv-x="653" 
d="M453 750h-91c-6 0 -10 4 -10 10v110c0 6 4 10 10 10h91c6 0 10 -4 10 -10v-110c0 -6 -4 -10 -10 -10zM290 750h-91c-6 0 -10 4 -10 10v110c0 6 4 10 10 10h91c6 0 10 -4 10 -10v-110c0 -6 -4 -10 -10 -10zM515 0h-124c-6 0 -10 4 -11 10l-52 368h-2l-52 -368
c-2 -6 -6 -10 -12 -10h-124c-6 0 -9 4 -11 10l-116 660c-2 6 1 10 8 10h143c6 0 10 -4 11 -10l42 -396h3l51 396c1 6 5 10 11 10h93c6 0 10 -4 12 -10l53 -396h2l41 396c2 6 6 10 12 10h141c7 0 10 -4 8 -10l-116 -660c-1 -6 -5 -10 -11 -10z" />
    <glyph glyph-name="Wgrave" unicode="&#x1e80;" horiz-adv-x="653" 
d="M373 747h-95c-8 0 -12 3 -19 10l-110 122c-4 5 -1 10 5 10h120c8 0 11 -3 16 -10l89 -122c4 -5 0 -10 -6 -10zM515 0h-124c-6 0 -10 4 -11 10l-52 368h-2l-52 -368c-2 -6 -6 -10 -12 -10h-124c-6 0 -9 4 -11 10l-116 660c-2 6 1 10 8 10h143c6 0 10 -4 11 -10l42 -396h3
l51 396c1 6 5 10 11 10h93c6 0 10 -4 12 -10l53 -396h2l41 396c2 6 6 10 12 10h141c7 0 10 -4 8 -10l-116 -660c-1 -6 -5 -10 -11 -10z" />
    <glyph glyph-name="Yacute" unicode="&#xdd;" horiz-adv-x="441" 
d="M290 0h-139c-6 0 -10 4 -10 10v249l-134 411c-2 7 1 10 8 10h137c7 0 11 -4 12 -10l57 -234h3l55 234c1 6 5 10 12 10h135c7 0 10 -3 8 -10l-134 -411v-249c0 -6 -4 -10 -10 -10zM262 747h-95c-6 0 -10 5 -6 10l88 122c5 7 8 10 16 10h121c6 0 9 -5 5 -10l-110 -122
c-7 -7 -11 -10 -19 -10z" />
    <glyph glyph-name="Ycircumflex" unicode="&#x176;" horiz-adv-x="441" 
d="M290 0h-139c-6 0 -10 4 -10 10v249l-134 411c-2 7 1 10 8 10h137c7 0 11 -4 12 -10l57 -234h3l55 234c1 6 5 10 12 10h135c7 0 10 -3 8 -10l-134 -411v-249c0 -6 -4 -10 -10 -10zM368 740h-80c-8 0 -13 3 -19 10l-47 56h-2l-47 -56c-6 -7 -11 -10 -19 -10h-81
c-6 0 -8 5 -4 10l94 137c4 6 9 10 17 10h82c7 0 13 -4 17 -10l93 -137c4 -5 2 -10 -4 -10z" />
    <glyph glyph-name="Ydieresis" unicode="&#x178;" horiz-adv-x="441" 
d="M290 0h-139c-6 0 -10 4 -10 10v249l-134 411c-2 7 1 10 8 10h137c7 0 11 -4 12 -10l57 -234h3l55 234c1 6 5 10 12 10h135c7 0 10 -3 8 -10l-134 -411v-249c0 -6 -4 -10 -10 -10zM348 750h-91c-6 0 -10 4 -10 10v110c0 6 4 10 10 10h91c6 0 10 -4 10 -10v-110
c0 -6 -4 -10 -10 -10zM185 750h-91c-6 0 -10 4 -10 10v110c0 6 4 10 10 10h91c6 0 10 -4 10 -10v-110c0 -6 -4 -10 -10 -10z" />
    <glyph glyph-name="Ygrave" unicode="&#x1ef2;" horiz-adv-x="441" 
d="M290 0h-139c-6 0 -10 4 -10 10v249l-134 411c-2 7 1 10 8 10h137c7 0 11 -4 12 -10l57 -234h3l55 234c1 6 5 10 12 10h135c7 0 10 -3 8 -10l-134 -411v-249c0 -6 -4 -10 -10 -10zM272 747h-95c-8 0 -12 3 -19 10l-110 122c-4 5 -1 10 5 10h120c8 0 11 -3 16 -10l89 -122
c4 -5 0 -10 -6 -10z" />
    <glyph glyph-name="Zacute" unicode="&#x179;" horiz-adv-x="396" 
d="M360 0h-323c-6 0 -10 4 -10 10v117c0 4 2 7 3 10l171 399v2h-155c-6 0 -10 4 -10 10v122c0 6 4 10 10 10h314c6 0 10 -4 10 -10v-118c0 -4 -1 -7 -3 -10l-173 -398v-2h166c6 0 10 -4 10 -10v-122c0 -6 -4 -10 -10 -10zM237 747h-95c-6 0 -10 5 -6 10l88 122
c5 7 8 10 16 10h121c6 0 9 -5 5 -10l-110 -122c-7 -7 -11 -10 -19 -10z" />
    <glyph glyph-name="Zcaron" unicode="&#x17d;" horiz-adv-x="396" 
d="M242 734h-82c-8 0 -13 4 -17 10l-94 137c-4 5 -2 10 4 10h81c8 0 13 -3 19 -10l47 -56h2l47 56c6 7 11 10 19 10h80c6 0 8 -5 4 -10l-93 -137c-4 -6 -10 -10 -17 -10zM360 0h-323c-6 0 -10 4 -10 10v117c0 4 2 7 3 10l171 399v2h-155c-6 0 -10 4 -10 10v122
c0 6 4 10 10 10h314c6 0 10 -4 10 -10v-118c0 -4 -1 -7 -3 -10l-173 -398v-2h166c6 0 10 -4 10 -10v-122c0 -6 -4 -10 -10 -10z" />
    <glyph glyph-name="Zdotaccent" unicode="&#x17b;" horiz-adv-x="396" 
d="M266 750h-131c-6 0 -10 4 -10 10v110c0 6 4 10 10 10h131c6 0 10 -4 10 -10v-110c0 -6 -4 -10 -10 -10zM360 0h-323c-6 0 -10 4 -10 10v117c0 4 2 7 3 10l171 399v2h-155c-6 0 -10 4 -10 10v122c0 6 4 10 10 10h314c6 0 10 -4 10 -10v-118c0 -4 -1 -7 -3 -10l-173 -398
v-2h166c6 0 10 -4 10 -10v-122c0 -6 -4 -10 -10 -10z" />
    <glyph glyph-name="agrave" unicode="&#xe0;" horiz-adv-x="405" 
d="M363 0h-123c-6 0 -10 4 -10 10v29h-1c-14 -30 -48 -49 -91 -49c-61 0 -117 38 -117 147c0 122 80 156 159 156h44c4 0 6 2 6 6v22c0 34 -13 51 -59 51c-34 0 -60 -11 -80 -25c-7 -5 -13 -4 -15 3l-39 93c-2 6 -1 11 5 15c37 24 89 39 152 39c135 0 179 -58 179 -175v-312
c0 -6 -4 -10 -10 -10zM190 102c24 0 40 17 40 48v42c0 4 -2 6 -6 6h-21c-34 0 -47 -20 -47 -50s11 -46 34 -46zM265 546h-96c-8 0 -12 2 -18 10l-97 136c-4 5 -1 10 5 10h121c8 0 12 -3 16 -10l75 -136c3 -6 0 -10 -6 -10z" />
    <glyph glyph-name="aacute" unicode="&#xe1;" horiz-adv-x="405" 
d="M363 0h-123c-6 0 -10 4 -10 10v29h-1c-14 -30 -48 -49 -91 -49c-61 0 -117 38 -117 147c0 122 80 156 159 156h44c4 0 6 2 6 6v22c0 34 -13 51 -59 51c-34 0 -60 -11 -80 -25c-7 -5 -13 -4 -15 3l-39 93c-2 6 -1 11 5 15c37 24 89 39 152 39c135 0 179 -58 179 -175v-312
c0 -6 -4 -10 -10 -10zM190 102c24 0 40 17 40 48v42c0 4 -2 6 -6 6h-21c-34 0 -47 -20 -47 -50s11 -46 34 -46zM240 546h-96c-6 0 -9 4 -6 10l75 136c4 7 8 10 16 10h121c6 0 9 -5 5 -10l-97 -136c-6 -8 -10 -10 -18 -10z" />
    <glyph glyph-name="acircumflex" unicode="&#xe2;" horiz-adv-x="405" 
d="M363 0h-123c-6 0 -10 4 -10 10v29h-1c-14 -30 -48 -49 -91 -49c-61 0 -117 38 -117 147c0 122 80 156 159 156h44c4 0 6 2 6 6v22c0 34 -13 51 -59 51c-34 0 -60 -11 -80 -25c-7 -5 -13 -4 -15 3l-39 93c-2 6 -1 11 5 15c37 24 89 39 152 39c135 0 179 -58 179 -175v-312
c0 -6 -4 -10 -10 -10zM190 102c24 0 40 17 40 48v42c0 4 -2 6 -6 6h-21c-34 0 -47 -20 -47 -50s11 -46 34 -46zM351 545h-80c-8 0 -13 3 -19 10l-47 56h-2l-47 -56c-6 -7 -11 -10 -19 -10h-81c-6 0 -8 5 -4 10l94 136c4 6 9 10 17 10h82c7 0 13 -4 17 -10l93 -136
c4 -5 2 -10 -4 -10z" />
    <glyph glyph-name="atilde" unicode="&#xe3;" horiz-adv-x="405" 
d="M363 0h-123c-6 0 -10 4 -10 10v29h-1c-14 -30 -48 -49 -91 -49c-61 0 -117 38 -117 147c0 122 80 156 159 156h44c4 0 6 2 6 6v22c0 34 -13 51 -59 51c-34 0 -60 -11 -80 -25c-7 -5 -13 -4 -15 3l-39 93c-2 6 -1 11 5 15c37 24 89 39 152 39c135 0 179 -58 179 -175v-312
c0 -6 -4 -10 -10 -10zM190 102c24 0 40 17 40 48v42c0 4 -2 6 -6 6h-21c-34 0 -47 -20 -47 -50s11 -46 34 -46zM258 548c-25 0 -42 10 -60 20c-17 11 -30 18 -50 18c-27 0 -43 -12 -62 -31c-5 -5 -11 -3 -11 3v87c0 7 1 10 7 16c18 18 39 31 67 31c25 0 42 -9 60 -20
c17 -10 30 -17 50 -17c27 0 43 12 62 31c5 5 11 3 11 -3v-87c0 -8 -1 -11 -7 -17c-18 -18 -39 -31 -67 -31z" />
    <glyph glyph-name="adieresis" unicode="&#xe4;" horiz-adv-x="405" 
d="M363 0h-123c-6 0 -10 4 -10 10v29h-1c-14 -30 -48 -49 -91 -49c-61 0 -117 38 -117 147c0 122 80 156 159 156h44c4 0 6 2 6 6v22c0 34 -13 51 -59 51c-34 0 -60 -11 -80 -25c-7 -5 -13 -4 -15 3l-39 93c-2 6 -1 11 5 15c37 24 89 39 152 39c135 0 179 -58 179 -175v-312
c0 -6 -4 -10 -10 -10zM190 102c24 0 40 17 40 48v42c0 4 -2 6 -6 6h-21c-34 0 -47 -20 -47 -50s11 -46 34 -46zM331 551h-91c-6 0 -10 4 -10 10v110c0 6 4 10 10 10h91c6 0 10 -4 10 -10v-110c0 -6 -4 -10 -10 -10zM168 551h-91c-6 0 -10 4 -10 10v110c0 6 4 10 10 10h91
c6 0 10 -4 10 -10v-110c0 -6 -4 -10 -10 -10z" />
    <glyph glyph-name="amacron" unicode="&#x101;" horiz-adv-x="405" 
d="M363 0h-123c-6 0 -10 4 -10 10v29h-1c-14 -30 -48 -49 -91 -49c-61 0 -117 38 -117 147c0 122 80 156 159 156h44c4 0 6 2 6 6v22c0 34 -13 51 -59 51c-34 0 -60 -11 -80 -25c-7 -5 -13 -4 -15 3l-39 93c-2 6 -1 11 5 15c37 24 89 39 152 39c135 0 179 -58 179 -175v-312
c0 -6 -4 -10 -10 -10zM190 102c24 0 40 17 40 48v42c0 4 -2 6 -6 6h-21c-34 0 -47 -20 -47 -50s11 -46 34 -46zM326 563h-244c-6 0 -10 4 -10 10v89c0 6 4 10 10 10h244c6 0 10 -4 10 -10v-89c0 -6 -4 -10 -10 -10z" />
    <glyph glyph-name="abreve" unicode="&#x103;" horiz-adv-x="405" 
d="M363 0h-123c-6 0 -10 4 -10 10v29h-1c-14 -30 -48 -49 -91 -49c-61 0 -117 38 -117 147c0 122 80 156 159 156h44c4 0 6 2 6 6v22c0 34 -13 51 -59 51c-34 0 -60 -11 -80 -25c-7 -5 -13 -4 -15 3l-39 93c-2 6 -1 11 5 15c37 24 89 39 152 39c135 0 179 -58 179 -175v-312
c0 -6 -4 -10 -10 -10zM190 102c24 0 40 17 40 48v42c0 4 -2 6 -6 6h-21c-34 0 -47 -20 -47 -50s11 -46 34 -46zM204 541c-90 0 -139 61 -141 138c0 6 5 11 13 11h60c8 0 11 -3 14 -11c10 -25 28 -42 54 -42s44 17 54 42c3 8 6 11 14 11h60c8 0 13 -5 13 -11
c-2 -77 -52 -138 -141 -138z" />
    <glyph glyph-name="aring" unicode="&#xe5;" horiz-adv-x="405" 
d="M363 0h-123c-6 0 -10 4 -10 10v29h-1c-14 -30 -48 -49 -91 -49c-61 0 -117 38 -117 147c0 122 80 156 159 156h44c4 0 6 2 6 6v22c0 34 -13 51 -59 51c-34 0 -60 -11 -80 -25c-7 -5 -13 -4 -15 3l-39 93c-2 6 -1 11 5 15c37 24 89 39 152 39c135 0 179 -58 179 -175v-312
c0 -6 -4 -10 -10 -10zM190 102c24 0 40 17 40 48v42c0 4 -2 6 -6 6h-21c-34 0 -47 -20 -47 -50s11 -46 34 -46zM204 528c-59 0 -103 42 -103 101s44 101 103 101s103 -42 103 -101s-44 -101 -103 -101zM204 586c23 0 41 18 41 43s-18 43 -41 43c-24 0 -41 -18 -41 -43
s17 -43 41 -43z" />
    <glyph glyph-name="aringacute" unicode="&#x1fb;" horiz-adv-x="405" 
d="M245 768h-96c-6 0 -9 5 -5 10l77 101c5 7 9 10 18 10h119c6 0 9 -5 5 -10l-98 -101c-7 -7 -12 -10 -20 -10zM363 0h-123c-6 0 -10 4 -10 10v29h-1c-14 -30 -48 -49 -91 -49c-61 0 -117 38 -117 147c0 122 80 156 159 156h44c4 0 6 2 6 6v22c0 34 -13 51 -59 51
c-34 0 -60 -11 -80 -25c-7 -5 -13 -4 -15 3l-39 93c-2 6 -1 11 5 15c37 24 89 39 152 39c135 0 179 -58 179 -175v-312c0 -6 -4 -10 -10 -10zM190 102c24 0 40 17 40 48v42c0 4 -2 6 -6 6h-21c-34 0 -47 -20 -47 -50s11 -46 34 -46zM204 528c-59 0 -103 42 -103 101
s44 101 103 101s103 -42 103 -101s-44 -101 -103 -101zM204 586c23 0 41 18 41 43s-18 43 -41 43c-24 0 -41 -18 -41 -43s17 -43 41 -43z" />
    <glyph glyph-name="aogonek" unicode="&#x105;" horiz-adv-x="405" 
d="M289 -192c-61 0 -101 34 -101 92c0 39 19 72 51 102h-2c-5 0 -7 4 -7 8v29h-1c-14 -30 -48 -49 -91 -49c-61 0 -117 38 -117 147c0 122 80 156 159 156h44c4 0 6 2 6 6v22c0 34 -13 51 -59 51c-34 0 -60 -11 -80 -25c-7 -5 -13 -4 -15 3l-39 93c-2 6 -1 11 5 15
c37 24 89 39 152 39c135 0 179 -58 179 -175v-312c0 -6 -2 -8 -7 -10c-52 -26 -70 -50 -70 -73c0 -13 7 -21 18 -21c6 0 10 1 15 3c6 3 11 1 13 -5l25 -63c2 -5 0 -10 -5 -13c-17 -12 -47 -20 -73 -20zM190 102c24 0 40 17 40 48v42c0 4 -2 6 -6 6h-21
c-34 0 -47 -20 -47 -50s11 -46 34 -46z" />
    <glyph glyph-name="ae" unicode="&#xe6;" horiz-adv-x="612" 
d="M408 -10c-55 0 -103 18 -132 53h-2c-32 -38 -65 -53 -122 -53c-72 0 -131 42 -131 147c0 122 80 156 159 156h44c4 0 6 2 6 6v22c0 34 -13 51 -59 51c-34 0 -60 -11 -80 -25c-7 -5 -13 -4 -15 3l-39 93c-2 6 -1 11 5 15c37 24 89 39 152 39c49 0 88 -9 114 -26h1
c25 17 60 26 99 26c89 0 145 -40 168 -110c9 -28 13 -54 13 -179c0 -6 -4 -10 -10 -10h-195c-4 0 -6 -2 -6 -6c0 -41 1 -48 3 -56c5 -14 16 -21 31 -21c19 0 30 10 37 31c2 6 6 9 12 8l115 -23c6 -1 8 -6 7 -12c-16 -84 -84 -129 -175 -129zM441 293c4 0 6 2 6 6
c0 43 -2 53 -5 61c-4 13 -14 21 -30 21s-26 -8 -30 -21c-3 -8 -4 -18 -4 -61c0 -4 2 -6 6 -6h57zM190 102c24 0 40 17 40 48v42c0 4 -2 6 -6 6h-21c-34 0 -47 -20 -47 -50s11 -46 34 -46z" />
    <glyph glyph-name="aeacute" unicode="&#x1fd;" horiz-adv-x="612" 
d="M350 546h-96c-6 0 -9 4 -6 10l75 136c4 7 8 10 16 10h121c6 0 9 -5 5 -10l-97 -136c-6 -8 -10 -10 -18 -10zM408 -10c-55 0 -103 18 -132 53h-2c-32 -38 -65 -53 -122 -53c-72 0 -131 42 -131 147c0 122 80 156 159 156h44c4 0 6 2 6 6v22c0 34 -13 51 -59 51
c-34 0 -60 -11 -80 -25c-7 -5 -13 -4 -15 3l-39 93c-2 6 -1 11 5 15c37 24 89 39 152 39c49 0 88 -9 114 -26h1c25 17 60 26 99 26c89 0 145 -40 168 -110c9 -28 13 -54 13 -179c0 -6 -4 -10 -10 -10h-195c-4 0 -6 -2 -6 -6c0 -41 1 -48 3 -56c5 -14 16 -21 31 -21
c19 0 30 10 37 31c2 6 6 9 12 8l115 -23c6 -1 8 -6 7 -12c-16 -84 -84 -129 -175 -129zM441 293c4 0 6 2 6 6c0 43 -2 53 -5 61c-4 13 -14 21 -30 21s-26 -8 -30 -21c-3 -8 -4 -18 -4 -61c0 -4 2 -6 6 -6h57zM190 102c24 0 40 17 40 48v42c0 4 -2 6 -6 6h-21
c-34 0 -47 -20 -47 -50s11 -46 34 -46z" />
    <glyph glyph-name="cacute" unicode="&#x107;" horiz-adv-x="391" 
d="M242 546h-96c-6 0 -9 4 -6 10l75 136c4 7 8 10 16 10h121c6 0 9 -5 5 -10l-97 -136c-6 -8 -10 -10 -18 -10zM202 -10c-84 0 -141 36 -165 109c-10 30 -13 60 -13 144c0 85 3 115 13 145c24 73 81 109 165 109c98 0 166 -54 173 -147c0 -7 -2 -10 -8 -12l-116 -20
c-7 -1 -12 1 -12 9c-2 30 -14 42 -32 42c-15 0 -24 -7 -28 -20c-3 -8 -4 -18 -4 -106c0 -87 1 -97 4 -105c4 -13 13 -20 28 -20c18 0 30 12 32 42c0 8 5 10 12 9l116 -20c6 -2 8 -5 8 -12c-7 -93 -75 -147 -173 -147z" />
    <glyph glyph-name="ccircumflex" unicode="&#x109;" horiz-adv-x="391" 
d="M347 545h-80c-8 0 -13 3 -19 10l-47 56h-2l-47 -56c-6 -7 -11 -10 -19 -10h-81c-6 0 -8 5 -4 10l94 136c4 6 9 10 17 10h82c7 0 13 -4 17 -10l93 -136c4 -5 2 -10 -4 -10zM202 -10c-84 0 -141 36 -165 109c-10 30 -13 60 -13 144c0 85 3 115 13 145c24 73 81 109 165 109
c98 0 166 -54 173 -147c0 -7 -2 -10 -8 -12l-116 -20c-7 -1 -12 1 -12 9c-2 30 -14 42 -32 42c-15 0 -24 -7 -28 -20c-3 -8 -4 -18 -4 -106c0 -87 1 -97 4 -105c4 -13 13 -20 28 -20c18 0 30 12 32 42c0 8 5 10 12 9l116 -20c6 -2 8 -5 8 -12c-7 -93 -75 -147 -173 -147z
" />
    <glyph glyph-name="ccaron" unicode="&#x10d;" horiz-adv-x="391" 
d="M241 542h-82c-8 0 -13 4 -17 10l-94 137c-4 5 -2 10 4 10h81c8 0 13 -3 19 -10l47 -56h2l47 56c6 7 11 10 19 10h80c6 0 8 -5 4 -10l-93 -137c-4 -6 -10 -10 -17 -10zM202 -10c-84 0 -141 36 -165 109c-10 30 -13 60 -13 144c0 85 3 115 13 145c24 73 81 109 165 109
c98 0 166 -54 173 -147c0 -7 -2 -10 -8 -12l-116 -20c-7 -1 -12 1 -12 9c-2 30 -14 42 -32 42c-15 0 -24 -7 -28 -20c-3 -8 -4 -18 -4 -106c0 -87 1 -97 4 -105c4 -13 13 -20 28 -20c18 0 30 12 32 42c0 8 5 10 12 9l116 -20c6 -2 8 -5 8 -12c-7 -93 -75 -147 -173 -147z
" />
    <glyph glyph-name="cdotaccent" unicode="&#x10b;" horiz-adv-x="391" 
d="M202 -10c-84 0 -141 36 -165 109c-10 30 -13 60 -13 144c0 85 3 115 13 145c24 73 81 109 165 109c98 0 166 -54 173 -147c0 -7 -2 -10 -8 -12l-116 -20c-7 -1 -12 1 -12 9c-2 30 -14 42 -32 42c-15 0 -24 -7 -28 -20c-3 -8 -4 -18 -4 -106c0 -87 1 -97 4 -105
c4 -13 13 -20 28 -20c18 0 30 12 32 42c0 8 5 10 12 9l116 -20c6 -2 8 -5 8 -12c-7 -93 -75 -147 -173 -147zM262 550h-131c-6 0 -10 4 -10 10v110c0 6 4 10 10 10h131c6 0 10 -4 10 -10v-110c0 -6 -4 -10 -10 -10z" />
    <glyph glyph-name="ccedilla" unicode="&#xe7;" horiz-adv-x="391" 
d="M80 -155l66 151c-54 13 -91 47 -109 103c-10 30 -13 60 -13 144c0 85 3 115 13 145c24 73 81 109 165 109c98 0 166 -54 173 -147c0 -7 -2 -10 -8 -12l-116 -20c-7 -1 -12 1 -12 9c-2 30 -14 42 -32 42c-15 0 -24 -7 -28 -20c-3 -8 -4 -18 -4 -106c0 -87 1 -97 4 -105
c4 -13 13 -20 28 -20c18 0 30 12 32 42c0 8 5 10 12 9l116 -20c6 -2 8 -5 8 -12c-6 -73 -49 -122 -114 -139l-55 -153c-3 -8 -7 -10 -15 -10h-104c-6 0 -9 4 -7 10z" />
    <glyph glyph-name="dcaron" unicode="&#x10f;" horiz-adv-x="433" 
d="M435 475c-6 0 -10 3 -10 10v185c0 6 4 10 10 10h93c6 0 10 -4 10 -10v-84c0 -11 -3 -17 -9 -24l-82 -81c-3 -4 -7 -6 -12 -6zM388 0h-130c-6 0 -10 4 -10 10v38h-1c-17 -36 -49 -58 -97 -58c-58 0 -90 23 -108 77c-10 31 -15 69 -15 176c0 108 5 146 15 177
c18 54 50 77 108 77c48 0 78 -22 96 -58h1v231c0 6 4 10 10 10h131c6 0 10 -4 10 -10v-660c0 -6 -4 -10 -10 -10zM213 118c16 0 25 8 30 22c3 9 4 18 4 103c0 86 -1 95 -4 104c-5 14 -14 22 -30 22c-17 0 -26 -8 -31 -22c-3 -9 -4 -18 -4 -104c0 -85 1 -94 4 -103
c5 -14 14 -22 31 -22z" />
    <glyph glyph-name="dcroat" unicode="&#x111;" horiz-adv-x="433" 
d="M388 0h-130c-6 0 -10 4 -10 10v38h-1c-17 -36 -49 -58 -97 -58c-58 0 -90 23 -108 77c-10 31 -15 69 -15 176c0 108 5 146 15 177c18 54 50 77 108 77c48 0 78 -22 96 -58h1v97c0 4 -2 6 -6 6h-92c-6 0 -10 4 -10 10v70c0 6 4 10 10 10h92c4 0 6 2 6 6v32c0 6 4 10 10 10
h131c6 0 10 -4 10 -10v-32c0 -4 2 -6 6 -6h18c6 0 10 -4 10 -10v-70c0 -6 -4 -10 -10 -10h-18c-4 0 -6 -2 -6 -6v-526c0 -6 -4 -10 -10 -10zM213 118c16 0 25 8 30 22c3 9 4 18 4 103c0 86 -1 95 -4 104c-5 14 -14 22 -30 22c-17 0 -26 -8 -31 -22c-3 -9 -4 -18 -4 -104
c0 -85 1 -94 4 -103c5 -14 14 -22 31 -22z" />
    <glyph glyph-name="eth" unicode="&#xf0;" horiz-adv-x="419" 
d="M346 568l-53 -17l29 -56c53 -102 72 -164 72 -265c0 -67 -4 -97 -13 -126c-25 -75 -84 -114 -172 -114s-148 39 -172 114c-9 29 -13 57 -13 115c0 60 5 90 14 119c20 62 65 107 131 107c13 0 28 -3 33 -7h1l-38 72l-67 -21c-6 -2 -10 0 -12 6l-20 63c-2 6 0 11 6 13
l54 17l-42 82c-3 6 0 10 6 10h128c6 0 10 -3 14 -10l21 -41l66 21c7 2 10 0 12 -6l22 -63c2 -6 -1 -11 -7 -13zM209 118c15 0 26 8 30 22c3 9 4 18 4 79c0 63 -1 72 -4 81c-4 14 -15 21 -30 21s-26 -7 -30 -21c-3 -9 -4 -18 -4 -81c0 -61 1 -70 4 -79c4 -14 15 -22 30 -22z
" />
    <glyph glyph-name="egrave" unicode="&#xe8;" horiz-adv-x="408" 
d="M204 -10c-89 0 -144 40 -167 110c-9 28 -13 57 -13 143s4 116 13 144c23 70 78 110 167 110s144 -40 167 -110c9 -28 14 -54 14 -179c0 -6 -4 -10 -10 -10h-195c-4 0 -6 -2 -6 -6c0 -41 1 -48 3 -56c5 -14 16 -21 31 -21c18 0 30 10 37 31c2 6 6 9 12 8l115 -23
c6 -1 8 -6 7 -12c-16 -84 -84 -129 -175 -129zM236 293c4 0 6 2 6 6c0 43 -1 53 -4 61c-4 13 -14 21 -30 21s-26 -8 -30 -21c-3 -8 -4 -18 -4 -61c0 -4 2 -6 6 -6h56zM260 546h-96c-8 0 -12 2 -18 10l-97 136c-4 5 -1 10 5 10h121c8 0 12 -3 16 -10l75 -136
c3 -6 0 -10 -6 -10z" />
    <glyph glyph-name="eacute" unicode="&#xe9;" horiz-adv-x="408" 
d="M239 546h-96c-6 0 -9 4 -6 10l75 136c4 7 8 10 16 10h121c6 0 9 -5 5 -10l-97 -136c-6 -8 -10 -10 -18 -10zM204 -10c-89 0 -144 40 -167 110c-9 28 -13 57 -13 143s4 116 13 144c23 70 78 110 167 110s144 -40 167 -110c9 -28 14 -54 14 -179c0 -6 -4 -10 -10 -10h-195
c-4 0 -6 -2 -6 -6c0 -41 1 -48 3 -56c5 -14 16 -21 31 -21c18 0 30 10 37 31c2 6 6 9 12 8l115 -23c6 -1 8 -6 7 -12c-16 -84 -84 -129 -175 -129zM236 293c4 0 6 2 6 6c0 43 -1 53 -4 61c-4 13 -14 21 -30 21s-26 -8 -30 -21c-3 -8 -4 -18 -4 -61c0 -4 2 -6 6 -6h56z" />
    <glyph glyph-name="ecircumflex" unicode="&#xea;" horiz-adv-x="408" 
d="M351 545h-80c-8 0 -13 3 -19 10l-47 56h-2l-47 -56c-6 -7 -11 -10 -19 -10h-81c-6 0 -8 5 -4 10l94 136c4 6 9 10 17 10h82c7 0 13 -4 17 -10l93 -136c4 -5 2 -10 -4 -10zM204 -10c-89 0 -144 40 -167 110c-9 28 -13 57 -13 143s4 116 13 144c23 70 78 110 167 110
s144 -40 167 -110c9 -28 14 -54 14 -179c0 -6 -4 -10 -10 -10h-195c-4 0 -6 -2 -6 -6c0 -41 1 -48 3 -56c5 -14 16 -21 31 -21c18 0 30 10 37 31c2 6 6 9 12 8l115 -23c6 -1 8 -6 7 -12c-16 -84 -84 -129 -175 -129zM236 293c4 0 6 2 6 6c0 43 -1 53 -4 61
c-4 13 -14 21 -30 21s-26 -8 -30 -21c-3 -8 -4 -18 -4 -61c0 -4 2 -6 6 -6h56z" />
    <glyph glyph-name="ecaron" unicode="&#x11b;" horiz-adv-x="408" 
d="M245 542h-82c-8 0 -13 4 -17 10l-94 137c-4 5 -2 10 4 10h81c8 0 13 -3 19 -10l47 -56h2l47 56c6 7 11 10 19 10h80c6 0 8 -5 4 -10l-93 -137c-4 -6 -10 -10 -17 -10zM204 -10c-89 0 -144 40 -167 110c-9 28 -13 57 -13 143s4 116 13 144c23 70 78 110 167 110
s144 -40 167 -110c9 -28 14 -54 14 -179c0 -6 -4 -10 -10 -10h-195c-4 0 -6 -2 -6 -6c0 -41 1 -48 3 -56c5 -14 16 -21 31 -21c18 0 30 10 37 31c2 6 6 9 12 8l115 -23c6 -1 8 -6 7 -12c-16 -84 -84 -129 -175 -129zM236 293c4 0 6 2 6 6c0 43 -1 53 -4 61
c-4 13 -14 21 -30 21s-26 -8 -30 -21c-3 -8 -4 -18 -4 -61c0 -4 2 -6 6 -6h56z" />
    <glyph glyph-name="edieresis" unicode="&#xeb;" horiz-adv-x="408" 
d="M331 551h-91c-6 0 -10 4 -10 10v110c0 6 4 10 10 10h91c6 0 10 -4 10 -10v-110c0 -6 -4 -10 -10 -10zM168 551h-91c-6 0 -10 4 -10 10v110c0 6 4 10 10 10h91c6 0 10 -4 10 -10v-110c0 -6 -4 -10 -10 -10zM204 -10c-89 0 -144 40 -167 110c-9 28 -13 57 -13 143
s4 116 13 144c23 70 78 110 167 110s144 -40 167 -110c9 -28 14 -54 14 -179c0 -6 -4 -10 -10 -10h-195c-4 0 -6 -2 -6 -6c0 -41 1 -48 3 -56c5 -14 16 -21 31 -21c18 0 30 10 37 31c2 6 6 9 12 8l115 -23c6 -1 8 -6 7 -12c-16 -84 -84 -129 -175 -129zM236 293c4 0 6 2 6 6
c0 43 -1 53 -4 61c-4 13 -14 21 -30 21s-26 -8 -30 -21c-3 -8 -4 -18 -4 -61c0 -4 2 -6 6 -6h56z" />
    <glyph glyph-name="emacron" unicode="&#x113;" horiz-adv-x="408" 
d="M204 -10c-89 0 -144 40 -167 110c-9 28 -13 57 -13 143s4 116 13 144c23 70 78 110 167 110s144 -40 167 -110c9 -28 14 -54 14 -179c0 -6 -4 -10 -10 -10h-195c-4 0 -6 -2 -6 -6c0 -41 1 -48 3 -56c5 -14 16 -21 31 -21c18 0 30 10 37 31c2 6 6 9 12 8l115 -23
c6 -1 8 -6 7 -12c-16 -84 -84 -129 -175 -129zM236 293c4 0 6 2 6 6c0 43 -1 53 -4 61c-4 13 -14 21 -30 21s-26 -8 -30 -21c-3 -8 -4 -18 -4 -61c0 -4 2 -6 6 -6h56zM326 563h-244c-6 0 -10 4 -10 10v89c0 6 4 10 10 10h244c6 0 10 -4 10 -10v-89c0 -6 -4 -10 -10 -10z" />
    <glyph glyph-name="ebreve" unicode="&#x115;" horiz-adv-x="408" 
d="M204 -10c-89 0 -144 40 -167 110c-9 28 -13 57 -13 143s4 116 13 144c23 70 78 110 167 110s144 -40 167 -110c9 -28 14 -54 14 -179c0 -6 -4 -10 -10 -10h-195c-4 0 -6 -2 -6 -6c0 -41 1 -48 3 -56c5 -14 16 -21 31 -21c18 0 30 10 37 31c2 6 6 9 12 8l115 -23
c6 -1 8 -6 7 -12c-16 -84 -84 -129 -175 -129zM236 293c4 0 6 2 6 6c0 43 -1 53 -4 61c-4 13 -14 21 -30 21s-26 -8 -30 -21c-3 -8 -4 -18 -4 -61c0 -4 2 -6 6 -6h56zM204 541c-90 0 -139 61 -141 138c0 6 5 11 13 11h60c8 0 11 -3 14 -11c10 -25 28 -42 54 -42s44 17 54 42
c3 8 6 11 14 11h60c8 0 13 -5 13 -11c-2 -77 -52 -138 -141 -138z" />
    <glyph glyph-name="edotaccent" unicode="&#x117;" horiz-adv-x="408" 
d="M204 -10c-89 0 -144 40 -167 110c-9 28 -13 57 -13 143s4 116 13 144c23 70 78 110 167 110s144 -40 167 -110c9 -28 14 -54 14 -179c0 -6 -4 -10 -10 -10h-195c-4 0 -6 -2 -6 -6c0 -41 1 -48 3 -56c5 -14 16 -21 31 -21c18 0 30 10 37 31c2 6 6 9 12 8l115 -23
c6 -1 8 -6 7 -12c-16 -84 -84 -129 -175 -129zM236 293c4 0 6 2 6 6c0 43 -1 53 -4 61c-4 13 -14 21 -30 21s-26 -8 -30 -21c-3 -8 -4 -18 -4 -61c0 -4 2 -6 6 -6h56zM270 550h-131c-6 0 -10 4 -10 10v110c0 6 4 10 10 10h131c6 0 10 -4 10 -10v-110c0 -6 -4 -10 -10 -10z
" />
    <glyph glyph-name="eogonek" unicode="&#x119;" horiz-adv-x="408" 
d="M200 -10c-86 1 -140 41 -163 110c-9 28 -13 57 -13 143s4 116 13 144c23 70 78 110 167 110s145 -40 167 -110c10 -28 14 -54 14 -179c0 -6 -4 -10 -10 -10h-195c-4 0 -6 -2 -6 -6c0 -41 1 -48 3 -56c5 -14 16 -21 31 -21c18 0 30 10 37 31c2 6 6 9 12 8l115 -23
c6 -1 8 -6 7 -12c-6 -27 -15 -50 -34 -72c-51 -69 -64 -97 -64 -120c0 -13 7 -21 18 -21c6 0 10 1 15 3c6 3 10 1 12 -5l26 -63c2 -5 0 -10 -5 -13c-18 -12 -47 -20 -73 -20c-62 0 -101 34 -101 92c0 30 9 60 35 91c-3 -1 -5 -1 -8 -1zM236 293c4 0 6 2 6 6
c0 43 -1 53 -4 61c-4 13 -14 21 -30 21s-26 -8 -30 -21c-3 -8 -4 -18 -4 -61c0 -4 2 -6 6 -6h56z" />
    <glyph glyph-name="gcircumflex" unicode="&#x11d;" horiz-adv-x="433" 
d="M364 545h-80c-8 0 -13 3 -19 10l-47 56h-2l-47 -56c-6 -7 -11 -10 -19 -10h-81c-6 0 -8 5 -4 10l94 136c4 6 9 10 17 10h82c7 0 13 -4 17 -10l93 -136c4 -5 2 -10 -4 -10zM211 -190c-97 0 -162 54 -170 127c0 5 1 10 6 11l120 26c5 2 9 0 11 -6c5 -20 16 -31 35 -31
c22 0 34 12 34 44v93h-1c-18 -36 -48 -58 -96 -58c-58 0 -90 23 -108 77c-10 31 -15 69 -15 163s5 132 15 163c18 54 50 77 108 77c48 0 80 -22 97 -58h1v39c0 6 4 10 10 10h130c6 0 10 -4 10 -10v-478c0 -128 -71 -189 -187 -189zM213 143c16 0 25 8 30 22c3 9 4 18 4 91
s-1 82 -4 91c-5 14 -14 22 -30 22c-17 0 -26 -8 -31 -22c-3 -9 -4 -18 -4 -91s1 -82 4 -91c5 -14 14 -22 31 -22z" />
    <glyph glyph-name="gbreve" unicode="&#x11f;" horiz-adv-x="433" 
d="M211 -190c-97 0 -162 54 -170 127c0 5 1 10 6 11l120 26c5 2 9 0 11 -6c5 -20 16 -31 35 -31c22 0 34 12 34 44v93h-1c-18 -36 -48 -58 -96 -58c-58 0 -90 23 -108 77c-10 31 -15 69 -15 163s5 132 15 163c18 54 50 77 108 77c48 0 80 -22 97 -58h1v39c0 6 4 10 10 10
h130c6 0 10 -4 10 -10v-478c0 -128 -71 -189 -187 -189zM213 143c16 0 25 8 30 22c3 9 4 18 4 91s-1 82 -4 91c-5 14 -14 22 -30 22c-17 0 -26 -8 -31 -22c-3 -9 -4 -18 -4 -91s1 -82 4 -91c5 -14 14 -22 31 -22zM217 541c-90 0 -139 61 -141 138c0 6 5 11 13 11h60
c8 0 11 -3 14 -11c10 -25 28 -42 54 -42s44 17 54 42c3 8 6 11 14 11h60c8 0 13 -5 13 -11c-2 -77 -52 -138 -141 -138z" />
    <glyph glyph-name="gdotaccent" unicode="&#x121;" horiz-adv-x="433" 
d="M211 -190c-97 0 -162 54 -170 127c0 5 1 10 6 11l120 26c5 2 9 0 11 -6c5 -20 16 -31 35 -31c22 0 34 12 34 44v93h-1c-18 -36 -48 -58 -96 -58c-58 0 -90 23 -108 77c-10 31 -15 69 -15 163s5 132 15 163c18 54 50 77 108 77c48 0 80 -22 97 -58h1v39c0 6 4 10 10 10
h130c6 0 10 -4 10 -10v-478c0 -128 -71 -189 -187 -189zM213 143c16 0 25 8 30 22c3 9 4 18 4 91s-1 82 -4 91c-5 14 -14 22 -30 22c-17 0 -26 -8 -31 -22c-3 -9 -4 -18 -4 -91s1 -82 4 -91c5 -14 14 -22 31 -22zM282 550h-131c-6 0 -10 4 -10 10v110c0 6 4 10 10 10h131
c6 0 10 -4 10 -10v-110c0 -6 -4 -10 -10 -10z" />
    <glyph glyph-name="gcommaaccent" unicode="&#x123;" horiz-adv-x="433" 
d="M267 550h-100c-6 0 -10 4 -10 10v67c0 11 3 17 10 24l87 84c4 4 8 6 13 6c6 0 10 -3 10 -11v-170c0 -6 -4 -10 -10 -10zM211 -190c-97 0 -162 54 -170 127c0 5 1 10 6 11l120 26c5 2 9 0 11 -6c5 -20 16 -31 35 -31c22 0 34 12 34 44v93h-1c-18 -36 -48 -58 -96 -58
c-58 0 -90 23 -108 77c-10 31 -15 69 -15 163s5 132 15 163c18 54 50 77 108 77c48 0 80 -22 97 -58h1v39c0 6 4 10 10 10h130c6 0 10 -4 10 -10v-478c0 -128 -71 -189 -187 -189zM213 143c16 0 25 8 30 22c3 9 4 18 4 91s-1 82 -4 91c-5 14 -14 22 -30 22
c-17 0 -26 -8 -31 -22c-3 -9 -4 -18 -4 -91s1 -82 4 -91c5 -14 14 -22 31 -22z" />
    <glyph glyph-name="hcircumflex" unicode="&#x125;" horiz-adv-x="435" 
d="M392 0h-131c-6 0 -10 4 -10 10v311c0 31 -11 45 -32 45c-22 0 -33 -14 -33 -45v-311c0 -6 -4 -10 -10 -10h-131c-6 0 -10 4 -10 10v660c0 6 4 10 10 10h131c6 0 10 -4 10 -10v-230h1c17 33 49 57 98 57c83 0 117 -47 117 -150v-337c0 -6 -4 -10 -10 -10zM260 740h-80
c-8 0 -13 3 -19 10l-47 56h-2l-47 -56c-6 -7 -11 -10 -19 -10h-81c-6 0 -8 5 -4 10l94 137c4 6 9 10 17 10h82c7 0 13 -4 17 -10l93 -137c4 -5 2 -10 -4 -10z" />
    <glyph glyph-name="hbar" unicode="&#x127;" horiz-adv-x="435" 
d="M392 0h-131c-6 0 -10 4 -10 10v311c0 31 -11 45 -32 45c-22 0 -33 -14 -33 -45v-311c0 -6 -4 -10 -10 -10h-131c-6 0 -10 4 -10 10v526c0 4 -2 6 -6 6h-18c-6 0 -10 4 -10 10v70c0 6 4 10 10 10h18c4 0 6 2 6 6v32c0 6 4 10 10 10h131c6 0 10 -4 10 -10v-32
c0 -4 2 -6 6 -6h93c6 0 10 -4 10 -10v-70c0 -6 -4 -10 -10 -10h-93c-4 0 -6 -2 -6 -6v-96h1c17 33 49 57 98 57c83 0 117 -47 117 -150v-337c0 -6 -4 -10 -10 -10z" />
    <glyph glyph-name="dotlessi" unicode="&#x131;" horiz-adv-x="221" 
d="M176 0h-131c-6 0 -10 4 -10 10v467c0 6 4 10 10 10h131c6 0 10 -4 10 -10v-467c0 -6 -4 -10 -10 -10z" />
    <glyph glyph-name="igrave" unicode="&#xec;" horiz-adv-x="221" 
d="M176 0h-131c-6 0 -10 4 -10 10v467c0 6 4 10 10 10h131c6 0 10 -4 10 -10v-467c0 -6 -4 -10 -10 -10zM171 546h-96c-8 0 -12 2 -18 10l-97 136c-4 5 -1 10 5 10h121c8 0 12 -3 16 -10l75 -136c3 -6 0 -10 -6 -10z" />
    <glyph glyph-name="iacute" unicode="&#xed;" horiz-adv-x="221" 
d="M154 546h-96c-6 0 -9 4 -6 10l75 136c4 7 8 10 16 10h121c6 0 9 -5 5 -10l-97 -136c-6 -8 -10 -10 -18 -10zM176 0h-131c-6 0 -10 4 -10 10v467c0 6 4 10 10 10h131c6 0 10 -4 10 -10v-467c0 -6 -4 -10 -10 -10z" />
    <glyph glyph-name="ibreve" unicode="&#x12d;" horiz-adv-x="221" 
d="M176 0h-131c-6 0 -10 4 -10 10v467c0 6 4 10 10 10h131c6 0 10 -4 10 -10v-467c0 -6 -4 -10 -10 -10zM112 541c-90 0 -139 61 -141 138c0 6 5 11 13 11h60c8 0 11 -3 14 -11c10 -25 28 -42 54 -42s44 17 54 42c3 8 6 11 14 11h60c8 0 13 -5 13 -11
c-2 -77 -52 -138 -141 -138z" />
    <glyph glyph-name="icircumflex" unicode="&#xee;" horiz-adv-x="221" 
d="M258 545h-80c-8 0 -13 3 -19 10l-47 56h-2l-47 -56c-6 -7 -11 -10 -19 -10h-81c-6 0 -8 5 -4 10l94 136c4 6 9 10 17 10h82c7 0 13 -4 17 -10l93 -136c4 -5 2 -10 -4 -10zM176 0h-131c-6 0 -10 4 -10 10v467c0 6 4 10 10 10h131c6 0 10 -4 10 -10v-467
c0 -6 -4 -10 -10 -10z" />
    <glyph glyph-name="itilde" unicode="&#x129;" horiz-adv-x="221" 
d="M176 0h-131c-6 0 -10 4 -10 10v467c0 6 4 10 10 10h131c6 0 10 -4 10 -10v-467c0 -6 -4 -10 -10 -10zM166 548c-25 0 -42 10 -60 20c-17 11 -30 18 -50 18c-27 0 -43 -12 -62 -31c-5 -5 -11 -3 -11 3v87c0 7 1 10 7 16c18 18 39 31 67 31c25 0 42 -9 60 -20
c17 -10 30 -17 50 -17c27 0 43 12 62 31c5 5 11 3 11 -3v-87c0 -8 -1 -11 -7 -17c-18 -18 -39 -31 -67 -31z" />
    <glyph glyph-name="idieresis" unicode="&#xef;" horiz-adv-x="221" 
d="M237 551h-91c-6 0 -10 4 -10 10v110c0 6 4 10 10 10h91c6 0 10 -4 10 -10v-110c0 -6 -4 -10 -10 -10zM74 551h-91c-6 0 -10 4 -10 10v110c0 6 4 10 10 10h91c6 0 10 -4 10 -10v-110c0 -6 -4 -10 -10 -10zM176 0h-131c-6 0 -10 4 -10 10v467c0 6 4 10 10 10h131
c6 0 10 -4 10 -10v-467c0 -6 -4 -10 -10 -10z" />
    <glyph glyph-name="imacron" unicode="&#x12b;" horiz-adv-x="221" 
d="M176 0h-131c-6 0 -10 4 -10 10v467c0 6 4 10 10 10h131c6 0 10 -4 10 -10v-467c0 -6 -4 -10 -10 -10zM234 563h-244c-6 0 -10 4 -10 10v89c0 6 4 10 10 10h244c6 0 10 -4 10 -10v-89c0 -6 -4 -10 -10 -10z" />
    <glyph glyph-name="iogonek" unicode="&#x12f;" horiz-adv-x="221" 
d="M176 550h-131c-6 0 -10 4 -10 10v110c0 6 4 10 10 10h131c6 0 10 -4 10 -10v-110c0 -6 -4 -10 -10 -10zM108 -192c-62 0 -102 34 -102 92c0 37 17 69 49 100h-10c-6 0 -10 4 -10 10v467c0 6 4 10 10 10h131c6 0 10 -4 10 -10v-467c0 -5 -1 -7 -5 -10
c-53 -30 -67 -52 -67 -73c0 -13 8 -21 19 -21c5 0 9 1 14 3c6 3 11 1 13 -5l25 -63c2 -5 0 -10 -5 -13c-17 -12 -47 -20 -72 -20z" />
    <glyph glyph-name="dotlessj" unicode="&#x237;" horiz-adv-x="222" 
d="M1 -180h-21c-6 0 -10 4 -10 10v111c0 6 4 10 10 10l14 1c29 2 41 15 41 57v468c0 6 4 10 10 10h131c6 0 10 -4 10 -10v-463c0 -129 -61 -194 -185 -194z" />
    <glyph glyph-name="jcircumflex" unicode="&#x135;" horiz-adv-x="222" 
d="M1 -180h-21c-6 0 -10 4 -10 10v111c0 6 4 10 10 10l14 1c29 2 41 15 41 57v468c0 6 4 10 10 10h131c6 0 10 -4 10 -10v-463c0 -129 -61 -194 -185 -194zM259 545h-80c-8 0 -13 3 -19 10l-47 56h-2l-47 -56c-6 -7 -11 -10 -19 -10h-81c-6 0 -8 5 -4 10l94 136
c4 6 9 10 17 10h82c7 0 13 -4 17 -10l93 -136c4 -5 2 -10 -4 -10z" />
    <glyph glyph-name="kcommaaccent" unicode="&#x137;" horiz-adv-x="436" 
d="M170 -242c-6 0 -11 3 -11 11v170c0 6 4 10 10 10h100c6 0 10 -4 10 -10v-67c0 -11 -3 -17 -9 -24l-88 -84c-3 -4 -7 -6 -12 -6zM423 0h-136c-7 0 -12 4 -15 11l-59 182l-27 -50v-133c0 -6 -4 -10 -10 -10h-131c-6 0 -10 4 -10 10v660c0 6 4 10 10 10h131
c6 0 10 -4 10 -10v-339l80 147c3 7 7 9 14 9h135c6 0 8 -5 5 -9l-107 -165l116 -304c2 -4 0 -9 -6 -9z" />
    <glyph glyph-name="kgreenlandic" unicode="&#x138;" horiz-adv-x="436" 
d="M423 0h-136c-7 0 -12 4 -15 11l-59 182l-27 -50v-133c0 -6 -4 -10 -10 -10h-131c-6 0 -10 4 -10 10v467c0 6 4 10 10 10h131c6 0 10 -4 10 -10v-146l80 147c3 7 7 9 14 9h135c6 0 8 -5 5 -9l-107 -165l116 -304c2 -4 0 -9 -6 -9z" />
    <glyph glyph-name="lacute" unicode="&#x13a;" horiz-adv-x="259" 
d="M155 747h-95c-6 0 -10 5 -6 10l88 122c5 7 8 10 16 10h121c6 0 9 -5 5 -10l-110 -122c-7 -7 -11 -10 -19 -10zM231 -6h-21c-122 1 -175 43 -175 180v496c0 6 4 10 10 10h131c6 0 10 -4 10 -10v-495c0 -33 15 -48 39 -50l6 -1c6 0 10 -5 10 -11v-109c0 -6 -4 -10 -10 -10z
" />
    <glyph glyph-name="lcaron" unicode="&#x13e;" horiz-adv-x="259" 
d="M235 475c-6 0 -10 3 -10 10v185c0 6 4 10 10 10h93c6 0 10 -4 10 -10v-84c0 -11 -3 -17 -9 -24l-82 -81c-3 -4 -7 -6 -12 -6zM231 -6h-21c-122 1 -175 43 -175 180v496c0 6 4 10 10 10h131c6 0 10 -4 10 -10v-495c0 -33 15 -48 39 -50l6 -1c6 0 10 -5 10 -11v-109
c0 -6 -4 -10 -10 -10z" />
    <glyph glyph-name="lcommaaccent" unicode="&#x13c;" horiz-adv-x="259" 
d="M94 -242c-6 0 -11 3 -11 11v170c0 6 4 10 10 10h100c6 0 10 -4 10 -10v-67c0 -11 -3 -17 -9 -24l-88 -84c-3 -4 -7 -6 -12 -6zM231 -6h-21c-122 1 -175 43 -175 180v496c0 6 4 10 10 10h131c6 0 10 -4 10 -10v-495c0 -33 15 -48 39 -50l6 -1c6 0 10 -5 10 -11v-109
c0 -6 -4 -10 -10 -10z" />
    <glyph glyph-name="lslash" unicode="&#x142;" horiz-adv-x="258" 
d="M230 390l-44 -31v-184c0 -33 15 -48 39 -50l6 -1c6 0 10 -5 10 -11v-109c0 -6 -4 -10 -10 -10h-21c-122 1 -175 43 -175 180v89l-21 -14c-5 -3 -10 0 -10 5v104c0 7 3 11 10 16l21 14v282c0 6 4 10 10 10h131c6 0 10 -4 10 -10v-186l44 31c5 3 10 0 10 -5v-104
c0 -7 -3 -11 -10 -16z" />
    <glyph glyph-name="ldot" unicode="&#x140;" horiz-adv-x="367" 
d="M231 -6h-21c-122 1 -175 43 -175 180v496c0 6 4 10 10 10h131c6 0 10 -4 10 -10v-495c0 -33 15 -48 39 -50l6 -1c6 0 10 -5 10 -11v-109c0 -6 -4 -10 -10 -10zM354 237h-121c-6 0 -10 4 -10 10v135c0 6 4 10 10 10h121c6 0 10 -4 10 -10v-135c0 -6 -4 -10 -10 -10z" />
    <glyph glyph-name="nacute" unicode="&#x144;" horiz-adv-x="435" 
d="M241 546h-96c-6 0 -9 4 -6 10l75 136c4 7 8 10 16 10h121c6 0 9 -5 5 -10l-97 -136c-6 -8 -10 -10 -18 -10zM392 0h-131c-6 0 -10 4 -10 10v311c0 31 -11 45 -32 45c-22 0 -33 -14 -33 -45v-311c0 -6 -4 -10 -10 -10h-131c-6 0 -10 4 -10 10v467c0 6 4 10 10 10h130
c6 0 10 -4 10 -10v-37h1c17 33 50 57 99 57c83 0 117 -47 117 -150v-337c0 -6 -4 -10 -10 -10z" />
    <glyph glyph-name="ncaron" unicode="&#x148;" horiz-adv-x="435" 
d="M259 542h-82c-8 0 -13 4 -17 10l-94 137c-4 5 -2 10 4 10h81c8 0 13 -3 19 -10l47 -56h2l47 56c6 7 11 10 19 10h80c6 0 8 -5 4 -10l-93 -137c-4 -6 -10 -10 -17 -10zM392 0h-131c-6 0 -10 4 -10 10v311c0 31 -11 45 -32 45c-22 0 -33 -14 -33 -45v-311
c0 -6 -4 -10 -10 -10h-131c-6 0 -10 4 -10 10v467c0 6 4 10 10 10h130c6 0 10 -4 10 -10v-37h1c17 33 50 57 99 57c83 0 117 -47 117 -150v-337c0 -6 -4 -10 -10 -10z" />
    <glyph glyph-name="ntilde" unicode="&#xf1;" horiz-adv-x="435" 
d="M392 0h-131c-6 0 -10 4 -10 10v311c0 31 -11 45 -32 45c-22 0 -33 -14 -33 -45v-311c0 -6 -4 -10 -10 -10h-131c-6 0 -10 4 -10 10v467c0 6 4 10 10 10h130c6 0 10 -4 10 -10v-37h1c17 33 50 57 99 57c83 0 117 -47 117 -150v-337c0 -6 -4 -10 -10 -10zM273 548
c-25 0 -42 10 -60 20c-17 11 -30 18 -50 18c-27 0 -43 -12 -62 -31c-5 -5 -11 -3 -11 3v87c0 7 1 10 7 16c18 18 39 31 67 31c25 0 42 -9 60 -20c17 -10 30 -17 50 -17c27 0 43 12 62 31c5 5 11 3 11 -3v-87c0 -8 -1 -11 -7 -17c-18 -18 -39 -31 -67 -31z" />
    <glyph glyph-name="ncommaaccent" unicode="&#x146;" horiz-adv-x="435" 
d="M169 -242c-6 0 -11 3 -11 11v170c0 6 4 10 10 10h100c6 0 10 -4 10 -10v-67c0 -11 -3 -17 -9 -24l-88 -84c-3 -4 -7 -6 -12 -6zM392 0h-131c-6 0 -10 4 -10 10v311c0 31 -11 45 -32 45c-22 0 -33 -14 -33 -45v-311c0 -6 -4 -10 -10 -10h-131c-6 0 -10 4 -10 10v467
c0 6 4 10 10 10h130c6 0 10 -4 10 -10v-37h1c17 33 50 57 99 57c83 0 117 -47 117 -150v-337c0 -6 -4 -10 -10 -10z" />
    <glyph glyph-name="ograve" unicode="&#xf2;" horiz-adv-x="418" 
d="M209 -10c-88 0 -148 39 -172 114c-9 29 -13 57 -13 139c0 83 4 111 13 140c24 75 84 114 172 114s147 -39 172 -114c9 -29 13 -57 13 -140c0 -82 -4 -110 -13 -139c-25 -75 -84 -114 -172 -114zM209 118c15 0 26 8 30 22c3 8 4 18 4 103c0 86 -1 96 -4 104
c-4 14 -15 22 -30 22s-26 -8 -30 -22c-3 -8 -4 -18 -4 -104c0 -85 1 -95 4 -103c4 -14 15 -22 30 -22zM261 546h-96c-8 0 -12 2 -18 10l-97 136c-4 5 -1 10 5 10h121c8 0 12 -3 16 -10l75 -136c3 -6 0 -10 -6 -10z" />
    <glyph glyph-name="oacute" unicode="&#xf3;" horiz-adv-x="418" 
d="M242 546h-96c-6 0 -9 4 -6 10l75 136c4 7 8 10 16 10h121c6 0 9 -5 5 -10l-97 -136c-6 -8 -10 -10 -18 -10zM209 -10c-88 0 -148 39 -172 114c-9 29 -13 57 -13 139c0 83 4 111 13 140c24 75 84 114 172 114s147 -39 172 -114c9 -29 13 -57 13 -140
c0 -82 -4 -110 -13 -139c-25 -75 -84 -114 -172 -114zM209 118c15 0 26 8 30 22c3 8 4 18 4 103c0 86 -1 96 -4 104c-4 14 -15 22 -30 22s-26 -8 -30 -22c-3 -8 -4 -18 -4 -104c0 -85 1 -95 4 -103c4 -14 15 -22 30 -22z" />
    <glyph glyph-name="ocircumflex" unicode="&#xf4;" horiz-adv-x="418" 
d="M357 545h-80c-8 0 -13 3 -19 10l-47 56h-2l-47 -56c-6 -7 -11 -10 -19 -10h-81c-6 0 -8 5 -4 10l94 136c4 6 9 10 17 10h82c7 0 13 -4 17 -10l93 -136c4 -5 2 -10 -4 -10zM209 -10c-88 0 -148 39 -172 114c-9 29 -13 57 -13 139c0 83 4 111 13 140c24 75 84 114 172 114
s147 -39 172 -114c9 -29 13 -57 13 -140c0 -82 -4 -110 -13 -139c-25 -75 -84 -114 -172 -114zM209 118c15 0 26 8 30 22c3 8 4 18 4 103c0 86 -1 96 -4 104c-4 14 -15 22 -30 22s-26 -8 -30 -22c-3 -8 -4 -18 -4 -104c0 -85 1 -95 4 -103c4 -14 15 -22 30 -22z" />
    <glyph glyph-name="otilde" unicode="&#xf5;" horiz-adv-x="418" 
d="M209 -10c-88 0 -148 39 -172 114c-9 29 -13 57 -13 139c0 83 4 111 13 140c24 75 84 114 172 114s147 -39 172 -114c9 -29 13 -57 13 -140c0 -82 -4 -110 -13 -139c-25 -75 -84 -114 -172 -114zM209 118c15 0 26 8 30 22c3 8 4 18 4 103c0 86 -1 96 -4 104
c-4 14 -15 22 -30 22s-26 -8 -30 -22c-3 -8 -4 -18 -4 -104c0 -85 1 -95 4 -103c4 -14 15 -22 30 -22zM264 548c-25 0 -42 10 -60 20c-17 11 -30 18 -50 18c-27 0 -43 -12 -62 -31c-5 -5 -11 -3 -11 3v87c0 7 1 10 7 16c18 18 39 31 67 31c25 0 42 -9 60 -20
c17 -10 30 -17 50 -17c27 0 43 12 62 31c5 5 11 3 11 -3v-87c0 -8 -1 -11 -7 -17c-18 -18 -39 -31 -67 -31z" />
    <glyph glyph-name="odieresis" unicode="&#xf6;" horiz-adv-x="418" 
d="M337 551h-91c-6 0 -10 4 -10 10v110c0 6 4 10 10 10h91c6 0 10 -4 10 -10v-110c0 -6 -4 -10 -10 -10zM174 551h-91c-6 0 -10 4 -10 10v110c0 6 4 10 10 10h91c6 0 10 -4 10 -10v-110c0 -6 -4 -10 -10 -10zM209 -10c-88 0 -148 39 -172 114c-9 29 -13 57 -13 139
c0 83 4 111 13 140c24 75 84 114 172 114s147 -39 172 -114c9 -29 13 -57 13 -140c0 -82 -4 -110 -13 -139c-25 -75 -84 -114 -172 -114zM209 118c15 0 26 8 30 22c3 8 4 18 4 103c0 86 -1 96 -4 104c-4 14 -15 22 -30 22s-26 -8 -30 -22c-3 -8 -4 -18 -4 -104
c0 -85 1 -95 4 -103c4 -14 15 -22 30 -22z" />
    <glyph glyph-name="omacron" unicode="&#x14d;" horiz-adv-x="418" 
d="M332 563h-244c-6 0 -10 4 -10 10v89c0 6 4 10 10 10h244c6 0 10 -4 10 -10v-89c0 -6 -4 -10 -10 -10zM209 -10c-88 0 -148 39 -172 114c-9 29 -13 57 -13 139c0 83 4 111 13 140c24 75 84 114 172 114s147 -39 172 -114c9 -29 13 -57 13 -140c0 -82 -4 -110 -13 -139
c-25 -75 -84 -114 -172 -114zM209 118c15 0 26 8 30 22c3 8 4 18 4 103c0 86 -1 96 -4 104c-4 14 -15 22 -30 22s-26 -8 -30 -22c-3 -8 -4 -18 -4 -104c0 -85 1 -95 4 -103c4 -14 15 -22 30 -22z" />
    <glyph glyph-name="obreve" unicode="&#x14f;" horiz-adv-x="418" 
d="M209 -10c-88 0 -148 39 -172 114c-9 29 -13 57 -13 139c0 83 4 111 13 140c24 75 84 114 172 114s147 -39 172 -114c9 -29 13 -57 13 -140c0 -82 -4 -110 -13 -139c-25 -75 -84 -114 -172 -114zM209 118c15 0 26 8 30 22c3 8 4 18 4 103c0 86 -1 96 -4 104
c-4 14 -15 22 -30 22s-26 -8 -30 -22c-3 -8 -4 -18 -4 -104c0 -85 1 -95 4 -103c4 -14 15 -22 30 -22zM210 541c-90 0 -139 61 -141 138c0 6 5 11 13 11h60c8 0 11 -3 14 -11c10 -25 28 -42 54 -42s44 17 54 42c3 8 6 11 14 11h60c8 0 13 -5 13 -11
c-2 -77 -52 -138 -141 -138z" />
    <glyph glyph-name="ohungarumlaut" unicode="&#x151;" horiz-adv-x="418" 
d="M319 543h-81c-6 0 -9 4 -6 10l65 137c3 7 8 10 16 10h99c6 0 8 -5 5 -10l-80 -137c-5 -7 -10 -10 -18 -10zM163 543h-80c-6 0 -9 4 -6 10l65 137c3 7 8 10 16 10h99c6 0 8 -5 5 -10l-81 -137c-5 -7 -9 -10 -18 -10zM209 -10c-88 0 -148 39 -172 114c-9 29 -13 57 -13 139
c0 83 4 111 13 140c24 75 84 114 172 114s147 -39 172 -114c9 -29 13 -57 13 -140c0 -82 -4 -110 -13 -139c-25 -75 -84 -114 -172 -114zM209 118c15 0 26 8 30 22c3 8 4 18 4 103c0 86 -1 96 -4 104c-4 14 -15 22 -30 22s-26 -8 -30 -22c-3 -8 -4 -18 -4 -104
c0 -85 1 -95 4 -103c4 -14 15 -22 30 -22z" />
    <glyph glyph-name="oslash" unicode="&#xf8;" horiz-adv-x="418" 
d="M209 -10c-36 0 -68 7 -94 19l-17 -29c-5 -7 -10 -10 -16 -10h-66c-6 0 -8 5 -5 10l47 79c-9 13 -16 28 -21 45c-9 29 -13 57 -13 139c0 83 4 111 13 140c24 75 84 114 172 114c36 0 67 -7 93 -20l18 30c5 7 10 10 16 10h66c6 0 8 -5 5 -10l-48 -80c9 -13 16 -28 22 -44
c10 -29 13 -57 13 -140c0 -82 -4 -110 -13 -139c-25 -75 -84 -114 -172 -114zM209 118c15 0 26 7 31 22c3 8 4 18 4 103c0 86 -1 96 -4 104c-5 15 -16 22 -31 22s-26 -7 -31 -22c-3 -8 -4 -18 -4 -104c0 -85 1 -95 4 -103c5 -15 16 -22 31 -22z" />
    <glyph glyph-name="oslashacute" unicode="&#x1ff;" horiz-adv-x="418" 
d="M209 -10c-36 0 -68 7 -94 19l-17 -29c-5 -7 -10 -10 -16 -10h-66c-6 0 -8 5 -5 10l47 79c-9 13 -16 28 -21 45c-9 29 -13 57 -13 139c0 83 4 111 13 140c24 75 84 114 172 114c36 0 67 -7 93 -20l18 30c5 7 10 10 16 10h66c6 0 8 -5 5 -10l-48 -80c9 -13 16 -28 22 -44
c10 -29 13 -57 13 -140c0 -82 -4 -110 -13 -139c-25 -75 -84 -114 -172 -114zM209 118c15 0 26 7 31 22c3 8 4 18 4 103c0 86 -1 96 -4 104c-5 15 -16 22 -31 22s-26 -7 -31 -22c-3 -8 -4 -18 -4 -104c0 -85 1 -95 4 -103c5 -15 16 -22 31 -22zM242 546h-96c-6 0 -9 4 -6 10
l75 136c4 7 8 10 16 10h121c6 0 9 -5 5 -10l-97 -136c-6 -8 -10 -10 -18 -10z" />
    <glyph glyph-name="oe" unicode="&#x153;" horiz-adv-x="627" 
d="M423 -10c-42 0 -79 11 -105 35h-2c-31 -24 -64 -35 -107 -35c-88 0 -148 39 -172 114c-9 29 -13 57 -13 139c0 83 4 111 13 140c24 75 83 114 171 114c42 0 81 -12 108 -35h2c27 23 67 35 107 35c89 0 143 -41 166 -111c9 -28 13 -54 13 -178c0 -6 -4 -10 -10 -10h-195
c-4 0 -6 -2 -6 -6c0 -41 1 -48 4 -56c4 -14 15 -21 30 -21c19 0 31 10 37 31c2 6 6 9 12 8l115 -23c6 -1 8 -6 7 -12c-16 -84 -84 -129 -175 -129zM456 293c4 0 6 2 6 6c0 43 -2 53 -4 61c-4 13 -15 21 -31 21s-26 -8 -30 -21c-3 -8 -4 -18 -4 -61c0 -4 2 -6 6 -6h57z
M209 118c15 0 26 8 30 22c3 8 4 18 4 103c0 86 -1 96 -4 104c-4 14 -15 22 -30 22s-26 -8 -30 -22c-3 -8 -4 -18 -4 -104c0 -85 1 -95 4 -103c4 -14 15 -22 30 -22z" />
    <glyph glyph-name="racute" unicode="&#x155;" horiz-adv-x="334" 
d="M213 546h-96c-6 0 -9 4 -6 10l75 136c4 7 8 10 16 10h121c6 0 9 -5 5 -10l-97 -136c-6 -8 -10 -10 -18 -10zM176 0h-131c-6 0 -10 4 -10 10v467c0 6 4 10 10 10h131c6 0 10 -4 10 -10v-43h1c20 42 58 63 118 63c3 0 8 0 11 -1c6 0 9 -3 8 -9l-22 -131c-1 -6 -4 -7 -10 -6
c-5 1 -12 1 -20 1c-55 0 -86 -29 -86 -107v-234c0 -6 -4 -10 -10 -10z" />
    <glyph glyph-name="rcaron" unicode="&#x159;" horiz-adv-x="334" 
d="M216 542h-82c-8 0 -13 4 -17 10l-94 137c-4 5 -2 10 4 10h81c8 0 13 -3 19 -10l47 -56h2l47 56c6 7 11 10 19 10h80c6 0 8 -5 4 -10l-93 -137c-4 -6 -10 -10 -17 -10zM176 0h-131c-6 0 -10 4 -10 10v467c0 6 4 10 10 10h131c6 0 10 -4 10 -10v-43h1c20 42 58 63 118 63
c3 0 8 0 11 -1c6 0 9 -3 8 -9l-22 -131c-1 -6 -4 -7 -10 -6c-5 1 -12 1 -20 1c-55 0 -86 -29 -86 -107v-234c0 -6 -4 -10 -10 -10z" />
    <glyph glyph-name="rcommaaccent" unicode="&#x157;" horiz-adv-x="334" 
d="M64 -242c-6 0 -11 3 -11 11v170c0 6 4 10 10 10h100c6 0 10 -4 10 -10v-67c0 -11 -3 -17 -9 -24l-88 -84c-3 -4 -7 -6 -12 -6zM176 0h-131c-6 0 -10 4 -10 10v467c0 6 4 10 10 10h131c6 0 10 -4 10 -10v-43h1c20 42 58 63 118 63c3 0 8 0 11 -1c6 0 9 -3 8 -9l-22 -131
c-1 -6 -4 -7 -10 -6c-5 1 -12 1 -20 1c-55 0 -86 -29 -86 -107v-234c0 -6 -4 -10 -10 -10z" />
    <glyph glyph-name="sacute" unicode="&#x15b;" horiz-adv-x="380" 
d="M224 546h-96c-6 0 -9 4 -6 10l75 136c4 7 8 10 16 10h121c6 0 9 -5 5 -10l-97 -136c-6 -8 -10 -10 -18 -10zM190 -10c-107 0 -168 50 -174 132c-1 6 2 10 8 11l113 19c6 1 11 -2 12 -8c4 -28 18 -42 40 -42s35 14 35 35s-10 31 -38 40l-39 13c-86 29 -123 76 -123 153
c0 93 60 154 168 154c100 0 156 -52 163 -121c1 -7 -1 -11 -6 -12l-107 -18c-5 -1 -9 1 -10 6c-4 20 -13 33 -36 33c-21 0 -31 -13 -31 -30c0 -15 9 -26 38 -36l39 -13c94 -31 123 -76 123 -155c0 -101 -64 -161 -175 -161z" />
    <glyph glyph-name="scircumflex" unicode="&#x15d;" horiz-adv-x="380" 
d="M338 545h-80c-8 0 -13 3 -19 10l-47 56h-2l-47 -56c-6 -7 -11 -10 -19 -10h-81c-6 0 -8 5 -4 10l94 136c4 6 9 10 17 10h82c7 0 13 -4 17 -10l93 -136c4 -5 2 -10 -4 -10zM190 -10c-107 0 -168 50 -174 132c-1 6 2 10 8 11l113 19c6 1 11 -2 12 -8c4 -28 18 -42 40 -42
s35 14 35 35s-10 31 -38 40l-39 13c-86 29 -123 76 -123 153c0 93 60 154 168 154c100 0 156 -52 163 -121c1 -7 -1 -11 -6 -12l-107 -18c-5 -1 -9 1 -10 6c-4 20 -13 33 -36 33c-21 0 -31 -13 -31 -30c0 -15 9 -26 38 -36l39 -13c94 -31 123 -76 123 -155
c0 -101 -64 -161 -175 -161z" />
    <glyph glyph-name="scaron" unicode="&#x161;" horiz-adv-x="380" 
d="M232 542h-82c-8 0 -13 4 -17 10l-94 137c-4 5 -2 10 4 10h81c8 0 13 -3 19 -10l47 -56h2l47 56c6 7 11 10 19 10h80c6 0 8 -5 4 -10l-93 -137c-4 -6 -10 -10 -17 -10zM190 -10c-107 0 -168 50 -174 132c-1 6 2 10 8 11l113 19c6 1 11 -2 12 -8c4 -28 18 -42 40 -42
s35 14 35 35s-10 31 -38 40l-39 13c-86 29 -123 76 -123 153c0 93 60 154 168 154c100 0 156 -52 163 -121c1 -7 -1 -11 -6 -12l-107 -18c-5 -1 -9 1 -10 6c-4 20 -13 33 -36 33c-21 0 -31 -13 -31 -30c0 -15 9 -26 38 -36l39 -13c94 -31 123 -76 123 -155
c0 -101 -64 -161 -175 -161z" />
    <glyph glyph-name="scedilla" unicode="&#x15f;" horiz-adv-x="380" 
d="M73 -155l65 150c-75 13 -117 59 -122 127c-1 6 2 10 8 11l113 19c6 1 11 -2 12 -8c4 -28 18 -42 40 -42s35 14 35 35s-10 31 -38 40l-39 13c-86 29 -123 76 -123 153c0 93 60 154 168 154c100 0 156 -52 163 -121c1 -7 -1 -11 -6 -12l-107 -18c-5 -1 -9 1 -10 6
c-4 20 -13 33 -36 33c-21 0 -31 -13 -31 -30c0 -15 9 -26 38 -36l39 -13c94 -31 123 -76 123 -155c0 -80 -40 -134 -111 -153l-55 -153c-3 -8 -7 -10 -15 -10h-104c-6 0 -9 4 -7 10z" />
    <glyph glyph-name="scommaaccent" unicode="&#x219;" horiz-adv-x="380" 
d="M142 -242c-6 0 -11 3 -11 11v170c0 6 4 10 10 10h100c6 0 10 -4 10 -10v-67c0 -11 -3 -17 -9 -24l-88 -84c-3 -4 -7 -6 -12 -6zM190 -10c-107 0 -168 50 -174 132c-1 6 2 10 8 11l113 19c6 1 11 -2 12 -8c4 -28 18 -42 40 -42s35 14 35 35s-10 31 -38 40l-39 13
c-86 29 -123 76 -123 153c0 93 60 154 168 154c100 0 156 -52 163 -121c1 -7 -1 -11 -6 -12l-107 -18c-5 -1 -9 1 -10 6c-4 20 -13 33 -36 33c-21 0 -31 -13 -31 -30c0 -15 9 -26 38 -36l39 -13c94 -31 123 -76 123 -155c0 -101 -64 -161 -175 -161z" />
    <glyph glyph-name="germandbls" unicode="&#xdf;" horiz-adv-x="454" 
d="M248 -5h-11c-6 0 -10 4 -10 10v108c0 6 4 10 10 10h6c14 0 23 6 27 17c3 8 4 16 4 85c0 70 -1 77 -4 85c-4 11 -13 18 -27 18h-6c-6 0 -10 4 -10 10v108c0 6 4 10 10 10h5c11 0 19 5 23 16c2 6 3 15 3 39c0 33 -12 52 -40 52s-42 -18 -42 -52v-501c0 -6 -4 -10 -10 -10
h-131c-6 0 -10 4 -10 10v492c0 122 68 188 193 188c121 0 191 -67 191 -171c0 -59 -14 -93 -51 -120v-2c23 -14 39 -33 48 -61c7 -21 9 -45 9 -111c0 -83 -3 -114 -11 -137c-22 -69 -76 -93 -166 -93z" />
    <glyph glyph-name="tcaron" unicode="&#x165;" horiz-adv-x="298" 
d="M304 475c-6 0 -10 3 -10 10v185c0 6 4 10 10 10h93c6 0 10 -4 10 -10v-84c0 -11 -3 -17 -9 -24l-82 -81c-3 -4 -7 -6 -12 -6zM268 -6h-38c-115 0 -168 33 -168 167v209c0 4 -2 6 -6 6h-32c-6 0 -10 4 -10 10v91c0 6 4 10 10 10h32c4 0 6 2 6 6v127c0 6 4 10 10 10h131
c6 0 10 -4 10 -10v-127c0 -4 2 -6 6 -6h49c6 0 10 -4 10 -10v-91c0 -6 -4 -10 -10 -10h-49c-4 0 -6 -2 -6 -6v-201c0 -33 13 -44 40 -44h15c6 0 10 -4 10 -10v-111c0 -6 -4 -10 -10 -10z" />
    <glyph glyph-name="tcommaaccent" unicode="&#x163;" horiz-adv-x="298" 
d="M124 -242c-6 0 -11 3 -11 11v170c0 6 4 10 10 10h100c6 0 10 -4 10 -10v-67c0 -11 -3 -17 -9 -24l-88 -84c-3 -4 -7 -6 -12 -6zM268 -6h-38c-115 0 -168 33 -168 167v209c0 4 -2 6 -6 6h-32c-6 0 -10 4 -10 10v91c0 6 4 10 10 10h32c4 0 6 2 6 6v127c0 6 4 10 10 10h131
c6 0 10 -4 10 -10v-127c0 -4 2 -6 6 -6h49c6 0 10 -4 10 -10v-91c0 -6 -4 -10 -10 -10h-49c-4 0 -6 -2 -6 -6v-201c0 -33 13 -44 40 -44h15c6 0 10 -4 10 -10v-111c0 -6 -4 -10 -10 -10z" />
    <glyph glyph-name="uni021B" unicode="&#x21b;" horiz-adv-x="298" 
d="M124 -242c-6 0 -11 3 -11 11v170c0 6 4 10 10 10h100c6 0 10 -4 10 -10v-67c0 -11 -3 -17 -9 -24l-88 -84c-3 -4 -7 -6 -12 -6zM268 -6h-38c-115 0 -168 33 -168 167v209c0 4 -2 6 -6 6h-32c-6 0 -10 4 -10 10v91c0 6 4 10 10 10h32c4 0 6 2 6 6v127c0 6 4 10 10 10h131
c6 0 10 -4 10 -10v-127c0 -4 2 -6 6 -6h49c6 0 10 -4 10 -10v-91c0 -6 -4 -10 -10 -10h-49c-4 0 -6 -2 -6 -6v-201c0 -33 13 -44 40 -44h15c6 0 10 -4 10 -10v-111c0 -6 -4 -10 -10 -10z" />
    <glyph glyph-name="tbar" unicode="&#x167;" horiz-adv-x="298" 
d="M268 -6h-38c-115 0 -168 33 -168 167v66c0 4 -2 6 -6 6h-25c-6 0 -10 4 -10 10v69c0 6 4 10 10 10h25c4 0 6 2 6 6v42c0 4 -2 6 -6 6h-32c-6 0 -10 4 -10 10v91c0 6 4 10 10 10h32c4 0 6 2 6 6v127c0 6 4 10 10 10h131c6 0 10 -4 10 -10v-127c0 -4 2 -6 6 -6h49
c6 0 10 -4 10 -10v-91c0 -6 -4 -10 -10 -10h-49c-4 0 -6 -2 -6 -6v-42c0 -4 2 -6 6 -6h38c6 0 10 -4 10 -10v-69c0 -6 -4 -10 -10 -10h-38c-4 0 -6 -2 -6 -6v-58c0 -33 13 -44 40 -44h15c6 0 10 -4 10 -10v-111c0 -6 -4 -10 -10 -10z" />
    <glyph glyph-name="thorn" unicode="&#xfe;" horiz-adv-x="433" 
d="M176 -180h-131c-6 0 -10 4 -10 10v840c0 6 4 10 10 10h131c6 0 10 -4 10 -10v-231h1c18 36 48 58 96 58c58 0 90 -23 108 -77c10 -31 15 -69 15 -177c0 -107 -5 -145 -15 -176c-18 -54 -50 -77 -108 -77c-48 0 -78 22 -96 58h-1v-218c0 -6 -4 -10 -10 -10zM221 118
c16 0 25 8 30 22c3 9 4 18 4 103c0 86 -1 95 -4 104c-5 14 -14 22 -30 22c-17 0 -26 -8 -31 -22c-3 -9 -4 -18 -4 -104c0 -85 1 -94 4 -103c5 -14 14 -22 31 -22z" />
    <glyph glyph-name="ugrave" unicode="&#xf9;" horiz-adv-x="434" 
d="M389 0h-130c-6 0 -10 4 -10 10v37h-1c-17 -33 -49 -57 -99 -57c-81 0 -116 47 -116 150v337c0 6 4 10 10 10h131c6 0 10 -4 10 -10v-312c0 -30 11 -44 32 -44s32 14 32 44v312c0 6 4 10 10 10h131c6 0 10 -4 10 -10v-467c0 -6 -4 -10 -10 -10zM274 546h-96
c-8 0 -12 2 -18 10l-97 136c-4 5 -1 10 5 10h121c8 0 12 -3 16 -10l75 -136c3 -6 0 -10 -6 -10z" />
    <glyph glyph-name="uacute" unicode="&#xfa;" horiz-adv-x="434" 
d="M252 546h-96c-6 0 -9 4 -6 10l75 136c4 7 8 10 16 10h121c6 0 9 -5 5 -10l-97 -136c-6 -8 -10 -10 -18 -10zM389 0h-130c-6 0 -10 4 -10 10v37h-1c-17 -33 -49 -57 -99 -57c-81 0 -116 47 -116 150v337c0 6 4 10 10 10h131c6 0 10 -4 10 -10v-312c0 -30 11 -44 32 -44
s32 14 32 44v312c0 6 4 10 10 10h131c6 0 10 -4 10 -10v-467c0 -6 -4 -10 -10 -10z" />
    <glyph glyph-name="ucircumflex" unicode="&#xfb;" horiz-adv-x="434" 
d="M365 545h-80c-8 0 -13 3 -19 10l-47 56h-2l-47 -56c-6 -7 -11 -10 -19 -10h-81c-6 0 -8 5 -4 10l94 136c4 6 9 10 17 10h82c7 0 13 -4 17 -10l93 -136c4 -5 2 -10 -4 -10zM389 0h-130c-6 0 -10 4 -10 10v37h-1c-17 -33 -49 -57 -99 -57c-81 0 -116 47 -116 150v337
c0 6 4 10 10 10h131c6 0 10 -4 10 -10v-312c0 -30 11 -44 32 -44s32 14 32 44v312c0 6 4 10 10 10h131c6 0 10 -4 10 -10v-467c0 -6 -4 -10 -10 -10z" />
    <glyph glyph-name="utilde" unicode="&#x169;" horiz-adv-x="434" 
d="M389 0h-130c-6 0 -10 4 -10 10v37h-1c-17 -33 -49 -57 -99 -57c-81 0 -116 47 -116 150v337c0 6 4 10 10 10h131c6 0 10 -4 10 -10v-312c0 -30 11 -44 32 -44s32 14 32 44v312c0 6 4 10 10 10h131c6 0 10 -4 10 -10v-467c0 -6 -4 -10 -10 -10zM272 548
c-25 0 -42 10 -60 20c-17 11 -30 18 -50 18c-27 0 -43 -12 -62 -31c-5 -5 -11 -3 -11 3v87c0 7 1 10 7 16c18 18 39 31 67 31c25 0 42 -9 60 -20c17 -10 30 -17 50 -17c27 0 43 12 62 31c5 5 11 3 11 -3v-87c0 -8 -1 -11 -7 -17c-18 -18 -39 -31 -67 -31z" />
    <glyph glyph-name="udieresis" unicode="&#xfc;" horiz-adv-x="434" 
d="M345 551h-91c-6 0 -10 4 -10 10v110c0 6 4 10 10 10h91c6 0 10 -4 10 -10v-110c0 -6 -4 -10 -10 -10zM182 551h-91c-6 0 -10 4 -10 10v110c0 6 4 10 10 10h91c6 0 10 -4 10 -10v-110c0 -6 -4 -10 -10 -10zM389 0h-130c-6 0 -10 4 -10 10v37h-1c-17 -33 -49 -57 -99 -57
c-81 0 -116 47 -116 150v337c0 6 4 10 10 10h131c6 0 10 -4 10 -10v-312c0 -30 11 -44 32 -44s32 14 32 44v312c0 6 4 10 10 10h131c6 0 10 -4 10 -10v-467c0 -6 -4 -10 -10 -10z" />
    <glyph glyph-name="umacron" unicode="&#x16b;" horiz-adv-x="434" 
d="M389 0h-130c-6 0 -10 4 -10 10v37h-1c-17 -33 -49 -57 -99 -57c-81 0 -116 47 -116 150v337c0 6 4 10 10 10h131c6 0 10 -4 10 -10v-312c0 -30 11 -44 32 -44s32 14 32 44v312c0 6 4 10 10 10h131c6 0 10 -4 10 -10v-467c0 -6 -4 -10 -10 -10zM340 563h-244
c-6 0 -10 4 -10 10v89c0 6 4 10 10 10h244c6 0 10 -4 10 -10v-89c0 -6 -4 -10 -10 -10z" />
    <glyph glyph-name="ubreve" unicode="&#x16d;" horiz-adv-x="434" 
d="M389 0h-130c-6 0 -10 4 -10 10v37h-1c-17 -33 -49 -57 -99 -57c-81 0 -116 47 -116 150v337c0 6 4 10 10 10h131c6 0 10 -4 10 -10v-312c0 -30 11 -44 32 -44s32 14 32 44v312c0 6 4 10 10 10h131c6 0 10 -4 10 -10v-467c0 -6 -4 -10 -10 -10zM218 541
c-90 0 -139 61 -141 138c0 6 5 11 13 11h60c8 0 11 -3 14 -11c10 -25 28 -42 54 -42s44 17 54 42c3 8 6 11 14 11h60c8 0 13 -5 13 -11c-2 -77 -52 -138 -141 -138z" />
    <glyph glyph-name="uring" unicode="&#x16f;" horiz-adv-x="434" 
d="M218 528c-59 0 -103 42 -103 101s44 101 103 101s103 -42 103 -101s-44 -101 -103 -101zM218 586c23 0 41 18 41 43s-18 43 -41 43c-24 0 -41 -18 -41 -43s17 -43 41 -43zM389 0h-130c-6 0 -10 4 -10 10v37h-1c-17 -33 -49 -57 -99 -57c-81 0 -116 47 -116 150v337
c0 6 4 10 10 10h131c6 0 10 -4 10 -10v-312c0 -30 11 -44 32 -44s32 14 32 44v312c0 6 4 10 10 10h131c6 0 10 -4 10 -10v-467c0 -6 -4 -10 -10 -10z" />
    <glyph glyph-name="uhungarumlaut" unicode="&#x171;" horiz-adv-x="434" 
d="M389 0h-130c-6 0 -10 4 -10 10v37h-1c-17 -33 -49 -57 -99 -57c-81 0 -116 47 -116 150v337c0 6 4 10 10 10h131c6 0 10 -4 10 -10v-312c0 -30 11 -44 32 -44s32 14 32 44v312c0 6 4 10 10 10h131c6 0 10 -4 10 -10v-467c0 -6 -4 -10 -10 -10zM328 543h-81
c-6 0 -9 4 -6 10l65 137c3 7 8 10 16 10h99c6 0 8 -5 5 -10l-80 -137c-5 -7 -10 -10 -18 -10zM172 543h-80c-6 0 -9 4 -6 10l65 137c3 7 8 10 16 10h99c6 0 8 -5 5 -10l-81 -137c-5 -7 -9 -10 -18 -10z" />
    <glyph glyph-name="uogonek" unicode="&#x173;" horiz-adv-x="434" 
d="M316 -192c-62 0 -102 34 -102 92c0 40 21 72 50 101h-8c-4 1 -7 4 -7 9v37h-1c-17 -33 -49 -57 -99 -57c-81 0 -116 47 -116 150v337c0 6 4 10 10 10h131c6 0 10 -4 10 -10v-312c0 -30 11 -44 32 -44s32 14 32 44v312c0 6 4 10 10 10h131c6 0 10 -4 10 -10v-467
c0 -6 -2 -8 -7 -10c-51 -24 -70 -50 -70 -73c0 -13 8 -21 19 -21c5 0 10 1 15 3c5 3 10 1 12 -5l25 -63c2 -5 0 -10 -5 -13c-17 -12 -47 -20 -72 -20z" />
    <glyph glyph-name="wacute" unicode="&#x1e83;" horiz-adv-x="593" 
d="M343 546h-96c-6 0 -9 4 -6 10l75 136c4 7 8 10 16 10h121c6 0 9 -5 5 -10l-97 -136c-6 -8 -10 -10 -18 -10zM461 0h-111c-7 0 -11 3 -12 10l-41 235h-2l-40 -235c-1 -7 -5 -10 -12 -10h-111c-7 0 -10 3 -12 10l-110 467c-2 6 1 10 7 10h126c7 0 10 -4 11 -10l43 -266h2
l43 266c1 6 4 10 11 10h88c7 0 10 -4 11 -10l43 -266h1l44 266c1 6 4 10 11 10h126c6 0 9 -4 7 -10l-111 -467c-2 -7 -5 -10 -12 -10z" />
    <glyph glyph-name="wcircumflex" unicode="&#x175;" horiz-adv-x="593" 
d="M443 545h-80c-8 0 -13 3 -19 10l-47 56h-2l-47 -56c-6 -7 -11 -10 -19 -10h-81c-6 0 -8 5 -4 10l94 136c4 6 9 10 17 10h82c7 0 13 -4 17 -10l93 -136c4 -5 2 -10 -4 -10zM461 0h-111c-7 0 -11 3 -12 10l-41 235h-2l-40 -235c-1 -7 -5 -10 -12 -10h-111
c-7 0 -10 3 -12 10l-110 467c-2 6 1 10 7 10h126c7 0 10 -4 11 -10l43 -266h2l43 266c1 6 4 10 11 10h88c7 0 10 -4 11 -10l43 -266h1l44 266c1 6 4 10 11 10h126c6 0 9 -4 7 -10l-111 -467c-2 -7 -5 -10 -12 -10z" />
    <glyph glyph-name="wdieresis" unicode="&#x1e85;" horiz-adv-x="593" 
d="M423 551h-91c-6 0 -10 4 -10 10v110c0 6 4 10 10 10h91c6 0 10 -4 10 -10v-110c0 -6 -4 -10 -10 -10zM260 551h-91c-6 0 -10 4 -10 10v110c0 6 4 10 10 10h91c6 0 10 -4 10 -10v-110c0 -6 -4 -10 -10 -10zM461 0h-111c-7 0 -11 3 -12 10l-41 235h-2l-40 -235
c-1 -7 -5 -10 -12 -10h-111c-7 0 -10 3 -12 10l-110 467c-2 6 1 10 7 10h126c7 0 10 -4 11 -10l43 -266h2l43 266c1 6 4 10 11 10h88c7 0 10 -4 11 -10l43 -266h1l44 266c1 6 4 10 11 10h126c6 0 9 -4 7 -10l-111 -467c-2 -7 -5 -10 -12 -10z" />
    <glyph glyph-name="wgrave" unicode="&#x1e81;" horiz-adv-x="593" 
d="M461 0h-111c-7 0 -11 3 -12 10l-41 235h-2l-40 -235c-1 -7 -5 -10 -12 -10h-111c-7 0 -10 3 -12 10l-110 467c-2 6 1 10 7 10h126c7 0 10 -4 11 -10l43 -266h2l43 266c1 6 4 10 11 10h88c7 0 10 -4 11 -10l43 -266h1l44 266c1 6 4 10 11 10h126c6 0 9 -4 7 -10l-111 -467
c-2 -7 -5 -10 -12 -10zM341 546h-96c-8 0 -12 2 -18 10l-97 136c-4 5 -1 10 5 10h121c8 0 12 -3 16 -10l75 -136c3 -6 0 -10 -6 -10z" />
    <glyph glyph-name="yacute" unicode="&#xfd;" horiz-adv-x="405" 
d="M75 -180h-14c-6 0 -10 4 -10 10v111c0 6 4 10 10 10h14c36 1 51 13 58 43l5 22l-128 461c-2 6 2 10 8 10h127c6 0 11 -4 12 -10l46 -254h2l49 254c1 6 5 10 12 10h121c6 0 10 -4 8 -10l-131 -491c-35 -131 -83 -166 -189 -166zM238 546h-96c-6 0 -9 4 -6 10l75 136
c4 7 8 10 16 10h121c6 0 9 -5 5 -10l-97 -136c-6 -8 -10 -10 -18 -10z" />
    <glyph glyph-name="ycircumflex" unicode="&#x177;" horiz-adv-x="405" 
d="M75 -180h-14c-6 0 -10 4 -10 10v111c0 6 4 10 10 10h14c36 1 51 13 58 43l5 22l-128 461c-2 6 2 10 8 10h127c6 0 11 -4 12 -10l46 -254h2l49 254c1 6 5 10 12 10h121c6 0 10 -4 8 -10l-131 -491c-35 -131 -83 -166 -189 -166zM350 545h-80c-8 0 -13 3 -19 10l-47 56h-2
l-47 -56c-6 -7 -11 -10 -19 -10h-81c-6 0 -8 5 -4 10l94 136c4 6 9 10 17 10h82c7 0 13 -4 17 -10l93 -136c4 -5 2 -10 -4 -10z" />
    <glyph glyph-name="ydieresis" unicode="&#xff;" horiz-adv-x="405" 
d="M75 -180h-14c-6 0 -10 4 -10 10v111c0 6 4 10 10 10h14c36 1 51 13 58 43l5 22l-128 461c-2 6 2 10 8 10h127c6 0 11 -4 12 -10l46 -254h2l49 254c1 6 5 10 12 10h121c6 0 10 -4 8 -10l-131 -491c-35 -131 -83 -166 -189 -166zM330 551h-91c-6 0 -10 4 -10 10v110
c0 6 4 10 10 10h91c6 0 10 -4 10 -10v-110c0 -6 -4 -10 -10 -10zM167 551h-91c-6 0 -10 4 -10 10v110c0 6 4 10 10 10h91c6 0 10 -4 10 -10v-110c0 -6 -4 -10 -10 -10z" />
    <glyph glyph-name="ygrave" unicode="&#x1ef3;" horiz-adv-x="405" 
d="M75 -180h-14c-6 0 -10 4 -10 10v111c0 6 4 10 10 10h14c36 1 51 13 58 43l5 22l-128 461c-2 6 2 10 8 10h127c6 0 11 -4 12 -10l46 -254h2l49 254c1 6 5 10 12 10h121c6 0 10 -4 8 -10l-131 -491c-35 -131 -83 -166 -189 -166zM260 546h-96c-8 0 -12 2 -18 10l-97 136
c-4 5 -1 10 5 10h121c8 0 12 -3 16 -10l75 -136c3 -6 0 -10 -6 -10z" />
    <glyph glyph-name="zacute" unicode="&#x17a;" horiz-adv-x="354" 
d="M216 546h-96c-6 0 -9 4 -6 10l75 136c4 7 8 10 16 10h121c6 0 9 -5 5 -10l-97 -136c-6 -8 -10 -10 -18 -10zM321 0h-291c-6 0 -10 4 -10 10v102c0 4 1 7 3 11l145 237v2h-127c-6 0 -10 4 -10 10v105c0 6 4 10 10 10h280c6 0 10 -4 10 -10v-99c0 -5 -1 -8 -3 -11
l-145 -239v-2h138c6 0 10 -4 10 -10v-106c0 -6 -4 -10 -10 -10z" />
    <glyph glyph-name="zcaron" unicode="&#x17e;" horiz-adv-x="354" 
d="M219 542h-82c-8 0 -13 4 -17 10l-94 137c-4 5 -2 10 4 10h81c8 0 13 -3 19 -10l47 -56h2l47 56c6 7 11 10 19 10h80c6 0 8 -5 4 -10l-93 -137c-4 -6 -10 -10 -17 -10zM321 0h-291c-6 0 -10 4 -10 10v102c0 4 1 7 3 11l145 237v2h-127c-6 0 -10 4 -10 10v105
c0 6 4 10 10 10h280c6 0 10 -4 10 -10v-99c0 -5 -1 -8 -3 -11l-145 -239v-2h138c6 0 10 -4 10 -10v-106c0 -6 -4 -10 -10 -10z" />
    <glyph glyph-name="zdotaccent" unicode="&#x17c;" horiz-adv-x="354" 
d="M321 0h-291c-6 0 -10 4 -10 10v102c0 4 1 7 3 11l145 237v2h-127c-6 0 -10 4 -10 10v105c0 6 4 10 10 10h280c6 0 10 -4 10 -10v-99c0 -5 -1 -8 -3 -11l-145 -239v-2h138c6 0 10 -4 10 -10v-106c0 -6 -4 -10 -10 -10zM243 550h-131c-6 0 -10 4 -10 10v110c0 6 4 10 10 10
h131c6 0 10 -4 10 -10v-110c0 -6 -4 -10 -10 -10z" />
    <glyph glyph-name="grave.cap" horiz-adv-x="444" 
d="M313 747h-95c-8 0 -12 3 -19 10l-110 122c-4 5 -1 10 5 10h120c8 0 11 -3 16 -10l89 -122c4 -5 0 -10 -6 -10z" />
    <glyph glyph-name="acute" unicode="&#xb4;" horiz-adv-x="444" 
d="M222 546h-96c-6 0 -9 4 -6 10l75 136c4 7 8 10 16 10h121c6 0 9 -5 5 -10l-97 -136c-6 -8 -10 -10 -18 -10z" />
    <glyph glyph-name="acute.cap" horiz-adv-x="444" 
d="M230 747h-95c-6 0 -10 5 -6 10l88 122c5 7 8 10 16 10h121c6 0 9 -5 5 -10l-110 -122c-7 -7 -11 -10 -19 -10z" />
    <glyph glyph-name="circumflex" unicode="&#x2c6;" horiz-adv-x="444" 
d="M369 545h-80c-8 0 -13 3 -19 10l-47 56h-2l-47 -56c-6 -7 -11 -10 -19 -10h-81c-6 0 -8 5 -4 10l94 136c4 6 9 10 17 10h82c7 0 13 -4 17 -10l93 -136c4 -5 2 -10 -4 -10z" />
    <glyph glyph-name="circumflex.cap" horiz-adv-x="444" 
d="M369 740h-80c-8 0 -13 3 -19 10l-47 56h-2l-47 -56c-6 -7 -11 -10 -19 -10h-81c-6 0 -8 5 -4 10l94 137c4 6 9 10 17 10h82c7 0 13 -4 17 -10l93 -137c4 -5 2 -10 -4 -10z" />
    <glyph glyph-name="caron" unicode="&#x2c7;" horiz-adv-x="444" 
d="M263 542h-82c-8 0 -13 4 -17 10l-94 137c-4 5 -2 10 4 10h81c8 0 13 -3 19 -10l47 -56h2l47 56c6 7 11 10 19 10h80c6 0 8 -5 4 -10l-93 -137c-4 -6 -10 -10 -17 -10z" />
    <glyph glyph-name="caron.cap" horiz-adv-x="444" 
d="M263 734h-82c-8 0 -13 4 -17 10l-94 137c-4 5 -2 10 4 10h81c8 0 13 -3 19 -10l47 -56h2l47 56c6 7 11 10 19 10h80c6 0 8 -5 4 -10l-93 -137c-4 -6 -10 -10 -17 -10z" />
    <glyph glyph-name="caron.alt" horiz-adv-x="444" 
d="M176 475c-6 0 -10 3 -10 10v185c0 6 4 10 10 10h93c6 0 10 -4 10 -10v-84c0 -11 -3 -17 -9 -24l-82 -81c-3 -4 -7 -6 -12 -6z" />
    <glyph glyph-name="tilde" unicode="&#x2dc;" horiz-adv-x="444" 
d="M276 548c-25 0 -42 10 -60 20c-17 11 -30 18 -50 18c-27 0 -43 -12 -62 -31c-5 -5 -11 -3 -11 3v87c0 7 1 10 7 16c18 18 39 31 67 31c25 0 42 -9 60 -20c17 -10 30 -17 50 -17c27 0 43 12 62 31c5 5 11 3 11 -3v-87c0 -8 -1 -11 -7 -17c-18 -18 -39 -31 -67 -31z" />
    <glyph glyph-name="tilde.cap" horiz-adv-x="444" 
d="M276 744c-25 0 -42 9 -60 19c-17 11 -30 18 -50 18c-27 0 -43 -12 -62 -31c-5 -5 -11 -3 -11 3v87c0 7 1 10 7 17c18 18 39 30 67 30c25 0 42 -9 60 -19c17 -11 30 -18 50 -18c27 0 43 12 62 31c5 5 11 3 11 -3v-87c0 -7 -1 -11 -7 -17c-18 -18 -39 -30 -67 -30z" />
    <glyph glyph-name="dieresis" unicode="&#xa8;" horiz-adv-x="444" 
d="M349 551h-91c-6 0 -10 4 -10 10v110c0 6 4 10 10 10h91c6 0 10 -4 10 -10v-110c0 -6 -4 -10 -10 -10zM186 551h-91c-6 0 -10 4 -10 10v110c0 6 4 10 10 10h91c6 0 10 -4 10 -10v-110c0 -6 -4 -10 -10 -10z" />
    <glyph glyph-name="dieresis.cap" horiz-adv-x="444" 
d="M349 750h-91c-6 0 -10 4 -10 10v110c0 6 4 10 10 10h91c6 0 10 -4 10 -10v-110c0 -6 -4 -10 -10 -10zM186 750h-91c-6 0 -10 4 -10 10v110c0 6 4 10 10 10h91c6 0 10 -4 10 -10v-110c0 -6 -4 -10 -10 -10z" />
    <glyph glyph-name="macron" unicode="&#xaf;" horiz-adv-x="444" 
d="M344 563h-244c-6 0 -10 4 -10 10v89c0 6 4 10 10 10h244c6 0 10 -4 10 -10v-89c0 -6 -4 -10 -10 -10z" />
    <glyph glyph-name="macron.cap" horiz-adv-x="444" 
d="M344 761h-244c-6 0 -10 4 -10 10v89c0 6 4 10 10 10h244c6 0 10 -4 10 -10v-89c0 -6 -4 -10 -10 -10z" />
    <glyph glyph-name="uni02C9" unicode="&#x2c9;" horiz-adv-x="444" 
d="M344 761h-244c-6 0 -10 4 -10 10v89c0 6 4 10 10 10h244c6 0 10 -4 10 -10v-89c0 -6 -4 -10 -10 -10z" />
    <glyph glyph-name="breve" unicode="&#x2d8;" horiz-adv-x="444" 
d="M222 541c-90 0 -139 61 -141 138c0 6 5 11 13 11h60c8 0 11 -3 14 -11c10 -25 28 -42 54 -42s44 17 54 42c3 8 6 11 14 11h60c8 0 13 -5 13 -11c-2 -77 -52 -138 -141 -138z" />
    <glyph glyph-name="breve.cap" horiz-adv-x="444" 
d="M222 731c-90 0 -139 61 -141 138c0 6 5 11 13 11h60c8 0 11 -4 14 -11c10 -26 28 -42 54 -42s44 16 54 42c3 7 6 11 14 11h60c8 0 13 -5 13 -11c-2 -77 -52 -138 -141 -138z" />
    <glyph glyph-name="ring" unicode="&#x2da;" horiz-adv-x="444" 
d="M222 528c-59 0 -103 42 -103 101s44 101 103 101s103 -42 103 -101s-44 -101 -103 -101zM222 586c23 0 41 18 41 43s-18 43 -41 43c-24 0 -41 -18 -41 -43s17 -43 41 -43z" />
    <glyph glyph-name="ring.cap" horiz-adv-x="444" 
d="M222 709c-59 0 -103 43 -103 101c0 59 44 102 103 102s103 -43 103 -102c0 -58 -44 -101 -103 -101zM222 767c23 0 41 18 41 43c0 26 -18 44 -41 44c-24 0 -41 -18 -41 -44c0 -25 17 -43 41 -43z" />
    <glyph glyph-name="hungarumlaut" unicode="&#x2dd;" horiz-adv-x="444" 
d="M316 543h-81c-6 0 -9 4 -6 10l65 137c3 7 8 10 16 10h99c6 0 8 -5 5 -10l-80 -137c-5 -7 -10 -10 -18 -10zM160 543h-80c-6 0 -9 4 -6 10l65 137c3 7 8 10 16 10h99c6 0 8 -5 5 -10l-81 -137c-5 -7 -9 -10 -18 -10z" />
    <glyph glyph-name="hungarumlaut.cap" horiz-adv-x="444" 
d="M318 747h-80c-6 0 -9 4 -6 10l72 119c4 6 8 10 16 10h99c6 0 8 -5 4 -10l-86 -119c-6 -7 -10 -10 -19 -10zM163 747h-81c-6 0 -9 4 -5 10l71 119c4 6 8 10 16 10h99c6 0 8 -5 5 -10l-87 -119c-5 -7 -10 -10 -18 -10z" />
    <glyph glyph-name="dotaccent" unicode="&#x2d9;" horiz-adv-x="444" 
d="M287 550h-131c-6 0 -10 4 -10 10v110c0 6 4 10 10 10h131c6 0 10 -4 10 -10v-110c0 -6 -4 -10 -10 -10z" />
    <glyph glyph-name="dotaccent.cap" horiz-adv-x="444" 
d="M287 750h-131c-6 0 -10 4 -10 10v110c0 6 4 10 10 10h131c6 0 10 -4 10 -10v-110c0 -6 -4 -10 -10 -10z" />
    <glyph glyph-name="cedilla" unicode="&#xb8;" horiz-adv-x="444" 
d="M132 -155l68 155c3 7 8 10 16 10h91c6 0 9 -4 7 -10l-56 -155c-3 -8 -7 -10 -15 -10h-104c-6 0 -9 4 -7 10z" />
    <glyph glyph-name="ogonek" unicode="&#x2db;" horiz-adv-x="444" 
d="M270 -192c-62 0 -102 34 -102 92c0 39 20 71 50 100c6 6 12 10 19 10h107c7 0 8 -7 2 -10c-51 -25 -69 -50 -69 -73c0 -13 7 -21 18 -21c5 0 10 1 15 3c5 3 10 1 12 -5l26 -63c2 -5 0 -10 -5 -13c-18 -12 -47 -20 -73 -20z" />
    <glyph glyph-name="commaaccent" horiz-adv-x="444" 
d="M173 -242c-6 0 -11 3 -11 11v170c0 6 4 10 10 10h100c6 0 10 -4 10 -10v-67c0 -11 -3 -17 -9 -24l-88 -84c-3 -4 -7 -6 -12 -6z" />
    <glyph glyph-name="commaaccent.alt" horiz-adv-x="444" 
d="M272 550h-100c-6 0 -10 4 -10 10v67c0 11 3 17 10 24l87 84c4 4 8 6 13 6c6 0 10 -3 10 -11v-170c0 -6 -4 -10 -10 -10z" />
    <glyph glyph-name="ellipsis" unicode="&#x2026;" horiz-adv-x="651" 
d="M607 0h-121c-6 0 -10 4 -10 10v135c0 6 4 10 10 10h121c6 0 10 -4 10 -10v-135c0 -6 -4 -10 -10 -10zM388 0h-120c-6 0 -10 4 -10 10v135c0 6 4 10 10 10h120c6 0 10 -4 10 -10v-135c0 -6 -4 -10 -10 -10zM170 0h-121c-6 0 -10 4 -10 10v135c0 6 4 10 10 10h121
c6 0 10 -4 10 -10v-135c0 -6 -4 -10 -10 -10z" />
    <glyph glyph-name="uni00AD" unicode="&#xad;" horiz-adv-x="357" 
d="M313 197h-268c-6 0 -10 4 -10 10v116c0 6 4 10 10 10h268c6 0 10 -4 10 -10v-116c0 -6 -4 -10 -10 -10z" />
    <glyph glyph-name="exclamdown" unicode="&#xa1;" horiz-adv-x="255" 
d="M167 279c6 0 10 -4 10 -10l28 -452c0 -6 -4 -10 -10 -10h-135c-6 0 -10 4 -10 10l27 452c0 6 4 10 10 10h80zM197 477v-135c0 -6 -4 -10 -10 -10h-120c-6 0 -10 4 -10 10v135c0 6 4 10 10 10h120c6 0 10 -4 10 -10z" />
    <glyph glyph-name="questiondown" unicode="&#xbf;" horiz-adv-x="416" 
d="M280 279c6 0 10 -4 10 -10v-44c0 -32 -9 -54 -27 -83l-50 -79c-22 -34 -28 -51 -28 -89c0 -12 1 -21 3 -28c5 -14 14 -21 30 -21s26 7 31 21c2 7 3 15 3 53c0 8 5 11 12 10l124 -13c7 -1 10 -5 10 -12c0 -37 -3 -57 -9 -76c-23 -70 -83 -111 -173 -111
c-93 0 -151 43 -173 111c-6 19 -9 40 -9 66c0 42 11 77 39 122l50 79c15 23 21 37 21 58v36c0 6 4 10 10 10h126zM285 477v-135c0 -6 -4 -10 -10 -10h-121c-6 0 -10 4 -10 10v135c0 6 4 10 10 10h121c6 0 10 -4 10 -10z" />
    <glyph glyph-name="quoteleft" unicode="&#x2018;" horiz-adv-x="188" 
d="M143 460h-98c-6 0 -10 4 -10 10v96c0 11 3 18 9 25l87 84c3 4 7 6 12 6c6 0 10 -3 10 -10v-201c0 -6 -4 -10 -10 -10z" />
    <glyph glyph-name="quoteright" unicode="&#x2019;" horiz-adv-x="188" 
d="M45 459c-6 0 -10 3 -10 10v201c0 6 4 10 10 10h98c6 0 10 -4 10 -10v-96c0 -11 -2 -18 -9 -25l-87 -85c-3 -3 -7 -5 -12 -5z" />
    <glyph glyph-name="quotedblleft" unicode="&#x201c;" horiz-adv-x="344" 
d="M299 460h-99c-6 0 -10 4 -10 10v96c0 11 3 18 10 25l86 84c4 4 7 6 12 6c6 0 11 -3 11 -10v-201c0 -6 -4 -10 -10 -10zM143 460h-98c-6 0 -10 4 -10 10v96c0 11 3 18 9 25l87 84c3 4 7 6 12 6c6 0 10 -3 10 -10v-201c0 -6 -4 -10 -10 -10z" />
    <glyph glyph-name="quotedblright" unicode="&#x201d;" horiz-adv-x="344" 
d="M201 459c-6 0 -11 3 -11 10v201c0 6 4 10 10 10h99c6 0 10 -4 10 -10v-96c0 -11 -3 -18 -10 -25l-86 -85c-4 -3 -7 -5 -12 -5zM45 459c-6 0 -10 3 -10 10v201c0 6 4 10 10 10h98c6 0 10 -4 10 -10v-96c0 -11 -2 -18 -9 -25l-87 -85c-3 -3 -7 -5 -12 -5z" />
    <glyph glyph-name="quotesinglbase" unicode="&#x201a;" horiz-adv-x="188" 
d="M45 -97c-6 0 -10 3 -10 10v201c0 6 4 10 10 10h98c6 0 10 -4 10 -10v-96c0 -11 -2 -18 -9 -25l-87 -84c-3 -4 -7 -6 -12 -6z" />
    <glyph glyph-name="quotedblbase" unicode="&#x201e;" horiz-adv-x="344" 
d="M201 -97c-6 0 -11 3 -11 10v201c0 6 4 10 10 10h99c6 0 10 -4 10 -10v-96c0 -11 -3 -18 -10 -25l-86 -84c-4 -4 -7 -6 -12 -6zM45 -97c-6 0 -10 3 -10 10v201c0 6 4 10 10 10h98c6 0 10 -4 10 -10v-96c0 -11 -2 -18 -9 -25l-87 -84c-3 -4 -7 -6 -12 -6z" />
    <glyph glyph-name="guilsinglleft" unicode="&#x2039;" horiz-adv-x="282" 
d="M222 56l-194 201c-4 4 -4 10 0 14l194 201c4 4 10 2 10 -4v-125c0 -7 -3 -12 -10 -19l-53 -56c-3 -3 -3 -5 0 -8l53 -56c7 -7 10 -12 10 -19v-125c0 -6 -6 -8 -10 -4z" />
    <glyph glyph-name="guilsinglright" unicode="&#x203a;" horiz-adv-x="282" 
d="M60 56c-4 -4 -10 -2 -10 4v125c0 7 3 12 10 19l54 56c3 3 3 5 0 8l-54 56c-7 7 -10 12 -10 19v125c0 6 6 8 10 4l194 -201c4 -4 4 -10 0 -14z" />
    <glyph glyph-name="guillemotleft" unicode="&#xab;" horiz-adv-x="492" 
d="M432 56l-193 201c-4 4 -4 10 0 14l193 201c4 4 10 2 10 -4v-125c0 -7 -3 -12 -10 -19l-53 -56c-3 -3 -3 -5 0 -8l53 -56c7 -7 10 -12 10 -19v-125c0 -6 -6 -8 -10 -4zM222 56l-194 201c-4 4 -4 10 0 14l194 201c4 4 10 2 10 -4v-125c0 -7 -3 -12 -10 -19l-53 -56
c-3 -3 -3 -5 0 -8l53 -56c7 -7 10 -12 10 -19v-125c0 -6 -6 -8 -10 -4z" />
    <glyph glyph-name="guillemotright" unicode="&#xbb;" horiz-adv-x="492" 
d="M270 56c-4 -4 -10 -2 -10 4v125c0 7 3 12 10 19l54 56c3 3 3 5 0 8l-54 56c-7 7 -10 12 -10 19v125c0 6 6 8 10 4l194 -201c4 -4 4 -10 0 -14zM60 56c-4 -4 -10 -2 -10 4v125c0 7 3 12 10 19l54 56c3 3 3 5 0 8l-54 56c-7 7 -10 12 -10 19v125c0 6 6 8 10 4l194 -201
c4 -4 4 -10 0 -14z" />
    <glyph glyph-name="endash" unicode="&#x2013;" horiz-adv-x="446" 
d="M423 206h-401c-6 0 -10 4 -10 10v99c0 6 4 10 10 10h401c6 0 10 -4 10 -10v-99c0 -6 -4 -10 -10 -10z" />
    <glyph glyph-name="emdash" unicode="&#x2014;" horiz-adv-x="643" 
d="M621 206h-599c-6 0 -10 4 -10 10v99c0 6 4 10 10 10h599c6 0 10 -4 10 -10v-99c0 -6 -4 -10 -10 -10z" />
    <glyph glyph-name="bullet" unicode="&#x2022;" horiz-adv-x="428" 
d="M214 156c-87 0 -153 65 -153 152s66 152 153 152c86 0 152 -65 152 -152s-66 -152 -152 -152z" />
    <glyph glyph-name="periodcentered" unicode="&#xb7;" horiz-adv-x="221" 
d="M171 187h-121c-6 0 -10 4 -10 10v135c0 6 4 10 10 10h121c6 0 10 -4 10 -10v-135c0 -6 -4 -10 -10 -10z" />
    <glyph glyph-name="uni2219" unicode="&#x2219;" horiz-adv-x="221" 
d="M171 187h-121c-6 0 -10 4 -10 10v135c0 6 4 10 10 10h121c6 0 10 -4 10 -10v-135c0 -6 -4 -10 -10 -10z" />
    <glyph glyph-name="dagger" unicode="&#x2020;" horiz-adv-x="509" 
d="M319 -180h-129c-6 0 -10 4 -10 10v496c0 4 -2 6 -6 6h-114c-6 0 -10 4 -10 10v118c0 6 4 10 10 10h114c4 0 6 2 6 6v194c0 6 4 10 10 10h129c6 0 10 -4 10 -10v-194c0 -4 2 -6 6 -6h114c6 0 10 -4 10 -10v-118c0 -6 -4 -10 -10 -10h-114c-4 0 -6 -2 -6 -6v-496
c0 -6 -4 -10 -10 -10z" />
    <glyph glyph-name="daggerdbl" unicode="&#x2021;" horiz-adv-x="509" 
d="M319 -180h-129c-6 0 -10 4 -10 10v170c0 4 -2 6 -6 6h-114c-6 0 -10 4 -10 10v118c0 6 4 10 10 10h114c4 0 6 2 6 6v200c0 4 -2 6 -6 6h-114c-6 0 -10 4 -10 10v118c0 6 4 10 10 10h114c4 0 6 2 6 6v170c0 6 4 10 10 10h129c6 0 10 -4 10 -10v-170c0 -4 2 -6 6 -6h114
c6 0 10 -4 10 -10v-118c0 -6 -4 -10 -10 -10h-114c-4 0 -6 -2 -6 -6v-200c0 -4 2 -6 6 -6h114c6 0 10 -4 10 -10v-118c0 -6 -4 -10 -10 -10h-114c-4 0 -6 -2 -6 -6v-170c0 -6 -4 -10 -10 -10z" />
    <glyph glyph-name="section" unicode="&#xa7;" horiz-adv-x="468" 
d="M234 -190c-88 0 -145 34 -166 97c-6 17 -9 35 -9 70c0 6 3 9 9 10l121 11c7 0 10 -4 10 -10c0 -31 1 -39 3 -46c4 -12 14 -19 29 -19s24 7 28 19c2 7 3 15 3 31c0 15 -1 27 -4 37c-8 25 -32 40 -81 57c-65 23 -100 53 -117 100c-7 22 -11 48 -11 85c0 32 3 58 10 76
c10 32 30 53 61 67v1c-25 13 -43 34 -54 66c-7 19 -9 39 -9 68c0 27 3 45 8 62c21 64 81 98 166 98c87 0 144 -34 165 -97c6 -17 9 -34 9 -66c0 -5 -3 -9 -9 -9l-120 -11c-6 0 -10 4 -10 10c0 28 -1 34 -3 41c-4 12 -13 19 -27 19s-24 -7 -28 -19c-2 -7 -3 -13 -3 -28
s1 -27 4 -37c8 -25 30 -38 82 -56c64 -23 100 -53 116 -100c7 -22 11 -48 11 -85c0 -32 -3 -58 -9 -76c-10 -32 -31 -53 -64 -68v-1c26 -13 46 -33 57 -66c6 -19 8 -39 8 -67c0 -31 -3 -49 -8 -66c-21 -64 -81 -98 -168 -98zM234 174c17 0 27 8 32 23c3 9 4 20 4 55
s-1 46 -4 55c-5 15 -15 23 -32 23s-28 -8 -33 -23c-2 -9 -4 -20 -4 -55s2 -46 4 -55c5 -15 16 -23 33 -23z" />
    <glyph glyph-name="paragraph" unicode="&#xb6;" horiz-adv-x="555" 
d="M496 -180h-99c-6 0 -10 4 -10 10v720c0 4 -2 6 -6 6h-38c-4 0 -6 -2 -6 -6v-720c0 -6 -4 -10 -10 -10h-100c-6 0 -10 4 -10 10v403c-103 7 -175 104 -175 224c0 122 80 223 214 223h240c6 0 10 -4 10 -10v-840c0 -6 -4 -10 -10 -10z" />
    <glyph glyph-name="brokenbar" unicode="&#xa6;" horiz-adv-x="265" 
d="M185 388h-106c-6 0 -10 4 -10 10v332c0 6 4 10 10 10h106c6 0 10 -4 10 -10v-332c0 -6 -4 -10 -10 -10zM185 -84h-106c-6 0 -10 4 -10 10v336c0 6 4 10 10 10h106c6 0 10 -4 10 -10v-336c0 -6 -4 -10 -10 -10z" />
    <glyph glyph-name="copyright" unicode="&#xa9;" horiz-adv-x="703" 
d="M351 -10c-147 0 -256 76 -299 205c-11 35 -18 80 -18 145s7 110 18 145c43 129 152 205 299 205c148 0 257 -76 300 -205c11 -35 18 -80 18 -145s-7 -110 -18 -145c-43 -129 -152 -205 -300 -205zM351 73c105 0 180 52 211 146c9 28 15 61 15 121s-6 93 -15 121
c-31 94 -106 146 -211 146s-179 -52 -210 -146c-9 -28 -15 -61 -15 -121s6 -93 15 -121c31 -94 105 -146 210 -146zM355 143c-66 0 -114 28 -134 87c-6 18 -9 42 -9 110s3 92 9 110c20 59 68 87 134 87c78 0 128 -43 135 -102c1 -6 -2 -11 -7 -12l-88 -15c-5 -1 -10 1 -11 7
c-3 18 -13 24 -27 24c-13 0 -20 -5 -24 -16c-2 -7 -3 -12 -3 -83s1 -76 3 -83c4 -11 11 -16 24 -16c14 0 24 6 27 24c1 6 6 8 11 7l88 -15c5 -1 8 -6 7 -12c-7 -59 -57 -102 -135 -102z" />
    <glyph glyph-name="registered" unicode="&#xae;" horiz-adv-x="415" 
d="M207 302c-80 0 -141 42 -164 113c-6 19 -10 41 -10 78c0 36 4 58 10 77c23 71 84 113 164 113c81 0 142 -42 165 -113c6 -19 10 -41 10 -77c0 -37 -4 -59 -10 -78c-23 -71 -84 -113 -165 -113zM207 348c59 0 102 29 118 81c5 15 8 33 8 64c0 30 -3 48 -8 63
c-16 52 -59 81 -118 81s-101 -29 -117 -81c-5 -15 -9 -33 -9 -63c0 -31 4 -49 9 -64c16 -52 58 -81 117 -81zM190 388h-39c-4 0 -7 2 -7 7v198c0 5 3 7 7 7h62c40 0 66 -19 66 -67c0 -26 -10 -42 -23 -53l27 -85c2 -5 -1 -7 -5 -7h-42c-4 0 -7 2 -9 7l-20 71h-8
c-2 0 -2 -1 -2 -3v-68c0 -5 -3 -7 -7 -7zM205 510c15 0 20 4 20 22c0 19 -5 24 -20 24h-4c-3 0 -4 -2 -4 -5v-37c0 -3 1 -4 4 -4h4z" />
    <glyph glyph-name="trademark" unicode="&#x2122;" horiz-adv-x="684" 
d="M626 286h-70c-6 0 -10 4 -10 10v182h-3l-30 -115c-2 -7 -6 -10 -12 -10h-36c-6 0 -10 3 -12 10l-31 115h-3v-182c0 -6 -4 -10 -10 -10h-70c-6 0 -10 4 -10 10v374c0 6 4 10 10 10h79c7 0 10 -3 12 -10l53 -187h3l51 187c2 7 5 10 12 10h77c6 0 10 -4 10 -10v-374
c0 -6 -4 -10 -10 -10zM204 286h-80c-6 0 -10 4 -10 10v290c0 4 -2 6 -6 6h-63c-6 0 -10 4 -10 10v68c0 6 4 10 10 10h237c6 0 10 -4 10 -10v-68c0 -6 -4 -10 -10 -10h-62c-4 0 -6 -2 -6 -6v-290c0 -6 -4 -10 -10 -10z" />
    <glyph glyph-name="currency" unicode="&#xa4;" 
d="M406 194l-60 -60c-4 -4 -10 -4 -14 0l-49 48c-19 -9 -42 -13 -65 -13c-24 0 -46 4 -66 13l-48 -48c-4 -4 -10 -4 -14 0l-60 60c-4 4 -4 10 0 14l48 47c-10 20 -15 43 -15 68c0 24 5 46 14 66l-48 48c-4 4 -4 10 0 14l60 60c4 4 10 4 14 0l48 -49c20 10 43 15 67 15
c25 0 48 -5 68 -15l48 49c4 4 10 4 14 0l60 -60c4 -4 4 -10 0 -14l-49 -49c9 -19 14 -42 14 -65c0 -25 -6 -48 -15 -68l48 -47c4 -4 4 -10 0 -14zM218 273c29 0 49 21 49 50s-20 50 -49 50c-28 0 -48 -21 -48 -50s20 -50 48 -50z" />
    <glyph glyph-name="Euro" unicode="&#x20ac;" 
d="M242 -10c-93 0 -146 39 -169 111c-9 27 -13 57 -13 127c0 4 -2 6 -6 6h-33c-6 0 -10 4 -10 10v66c0 6 4 10 10 10h33c4 0 6 2 6 6v30c0 4 -2 6 -6 6h-33c-6 0 -10 4 -10 10v65c0 6 4 10 10 10h33c4 0 6 2 6 6c0 69 4 99 13 126c23 72 76 111 169 111
c115 0 173 -61 180 -155c1 -7 -2 -11 -9 -12l-123 -20c-6 -1 -11 2 -12 9c-2 34 -11 50 -34 50c-15 0 -24 -8 -29 -21c-3 -10 -4 -19 -4 -88c0 -4 2 -6 6 -6h126c6 0 10 -4 10 -10l-10 -65c-1 -7 -4 -10 -10 -10h-116c-4 0 -6 -2 -6 -6v-30c0 -4 2 -6 6 -6h111
c6 0 10 -4 10 -10l-10 -66c-1 -7 -4 -10 -10 -10h-101c-4 0 -6 -2 -6 -6c0 -70 1 -79 4 -89c5 -13 14 -21 29 -21c23 0 32 16 34 50c1 7 6 10 12 9l123 -20c7 -1 10 -5 9 -12c-7 -94 -65 -155 -180 -155z" />
    <glyph glyph-name="cent" unicode="&#xa2;" 
d="M399 130c-8 -77 -55 -126 -134 -137v-80c0 -6 -4 -10 -10 -10h-65c-6 0 -10 4 -10 10v81c-64 11 -106 45 -125 105c-10 30 -13 60 -13 144c0 85 3 115 13 145c19 59 61 94 125 105v80c0 6 4 10 10 10h65c6 0 10 -4 10 -10v-79c79 -12 126 -60 134 -137
c1 -6 -1 -11 -7 -12l-117 -20c-8 -1 -12 1 -12 8c-3 25 -14 36 -35 36c-18 0 -26 -7 -31 -20c-3 -8 -4 -18 -4 -106c0 -87 1 -97 4 -105c5 -13 13 -20 31 -20c21 0 32 11 35 36c0 7 4 9 12 8l117 -20c6 -1 8 -6 7 -12z" />
    <glyph glyph-name="sterling" unicode="&#xa3;" 
d="M402 0h-361c-6 0 -10 4 -10 10v105c0 6 2 10 6 14c18 21 24 40 24 90v49c0 4 -2 6 -6 6h-27c-6 0 -10 4 -10 10v84c0 6 4 10 10 10h27c4 0 6 2 6 6v131c0 114 66 175 178 175c119 0 174 -68 177 -160c1 -7 -2 -11 -9 -12l-125 -19c-7 -1 -10 3 -11 9c-1 40 -9 54 -30 54
s-29 -14 -29 -44v-134c0 -4 2 -6 6 -6h102c6 0 10 -4 10 -10v-84c0 -6 -4 -10 -10 -10h-102c-4 0 -6 -2 -6 -6v-51c0 -39 -6 -66 -25 -86v-3h215c6 0 10 -4 10 -10v-108c0 -6 -4 -10 -10 -10z" />
    <glyph glyph-name="florin" unicode="&#x192;" 
d="M375 307h-77l-43 -321c-16 -116 -74 -166 -195 -166h-30c-6 0 -10 4 -10 10v104c0 6 4 10 10 10h14c38 0 57 13 62 49l43 314h-58c-6 0 -10 4 -10 10v93c0 6 4 10 10 10h73l13 94c16 116 74 166 195 166h30c6 0 10 -4 10 -10v-104c0 -6 -4 -10 -10 -10h-14
c-38 0 -57 -13 -62 -49l-12 -87h61c6 0 10 -4 10 -10v-93c0 -6 -4 -10 -10 -10z" />
    <glyph glyph-name="yen" unicode="&#xa5;" 
d="M284 0h-131c-6 0 -10 4 -10 10v83c0 4 -2 6 -6 6h-83c-6 0 -10 4 -10 10v69c0 6 4 10 10 10h83c4 0 6 2 6 6v27c0 4 -2 6 -6 6h-83c-6 0 -10 4 -10 10v68c0 6 4 10 10 10h72v3l-112 352c-2 7 2 10 8 10h131c7 0 11 -4 12 -10l54 -234h3l52 234c1 6 5 10 12 10h129
c7 0 10 -3 8 -10l-112 -352v-3h72c6 0 10 -4 10 -10v-68c0 -6 -4 -10 -10 -10h-83c-4 0 -6 -2 -6 -6v-27c0 -4 2 -6 6 -6h83c6 0 10 -4 10 -10v-69c0 -6 -4 -10 -10 -10h-83c-4 0 -6 -2 -6 -6v-83c0 -6 -4 -10 -10 -10z" />
    <glyph glyph-name="ordfeminine" unicode="&#xaa;" horiz-adv-x="304" 
d="M256 392h-71c-6 0 -10 4 -10 10v15h-2c-11 -18 -32 -28 -60 -28c-39 0 -76 24 -76 86c0 73 53 95 104 95h28c4 0 6 2 6 6v5c0 20 -11 29 -40 29c-17 0 -35 -6 -50 -14c-7 -4 -13 -2 -16 4l-20 52c-2 5 -1 9 5 13c22 12 59 22 96 22c80 0 116 -33 116 -105v-180
c0 -6 -4 -10 -10 -10zM148 457c14 0 27 8 27 27v22c0 4 -2 6 -6 6h-16c-19 0 -29 -10 -29 -29c0 -18 9 -26 24 -26z" />
    <glyph glyph-name="ordmasculine" unicode="&#xba;" horiz-adv-x="316" 
d="M158 385c-57 0 -96 24 -113 74c-5 17 -8 35 -8 77s2 60 8 78c16 49 56 73 113 73s97 -24 113 -73c6 -17 8 -36 8 -78s-2 -60 -8 -77c-16 -50 -56 -74 -113 -74zM185 537c0 42 -1 50 -3 55c-4 11 -12 16 -24 16s-20 -5 -24 -16c-2 -5 -3 -13 -3 -55c0 -43 1 -51 3 -56
c4 -11 12 -16 24 -16s20 5 24 16c2 5 3 13 3 56z" />
    <glyph glyph-name="onesuperior" unicode="&#xb9;" horiz-adv-x="315" 
d="M226 430h-92c-6 0 -10 4 -10 10v276h-2l-56 -33c-5 -3 -10 -1 -10 5v92c0 6 2 10 7 13l58 37c6 4 10 6 16 6h89c6 0 10 -4 10 -10v-386c0 -6 -4 -10 -10 -10z" />
    <glyph glyph-name="twosuperior" unicode="&#xb2;" horiz-adv-x="315" 
d="M274 430h-228c-6 0 -10 4 -10 10v71c0 7 2 12 6 16l114 141c18 21 21 30 21 50c0 13 -1 20 -3 24c-3 7 -8 11 -19 11s-18 -5 -20 -12c-2 -6 -2 -10 -2 -29c0 -8 -5 -11 -12 -10l-84 9c-7 1 -10 4 -10 12c0 24 2 36 6 48c14 45 59 72 125 72c65 0 110 -26 125 -72
c4 -12 6 -24 6 -52c0 -39 -11 -63 -37 -98l-70 -94v-2h92c6 0 10 -4 10 -10v-75c0 -6 -4 -10 -10 -10z" />
    <glyph glyph-name="threesuperior" unicode="&#xb3;" horiz-adv-x="315" 
d="M157 423c-66 0 -111 27 -125 72c-4 11 -6 23 -6 34c0 7 3 11 10 12l85 8c7 1 12 -1 12 -10c0 -7 1 -12 2 -15c2 -6 9 -11 20 -11s17 6 19 13c1 4 2 9 2 25c0 14 -1 19 -2 24c-3 11 -12 14 -25 14h-7c-6 0 -10 4 -10 10v77c0 6 4 10 10 10h11c11 0 18 4 21 12
c2 4 2 9 2 21s-1 17 -2 21c-2 7 -8 13 -19 13s-18 -5 -20 -11c-1 -3 -2 -8 -2 -15c0 -9 -5 -11 -12 -10l-85 8c-7 1 -10 5 -10 12c0 11 2 23 6 34c14 45 59 72 125 72s112 -27 126 -72c3 -11 5 -24 5 -44c0 -19 -1 -29 -4 -40c-7 -20 -20 -34 -41 -44v-2
c20 -10 33 -23 40 -44c4 -12 5 -25 5 -50c0 -28 -2 -41 -5 -52c-14 -45 -60 -72 -126 -72z" />
    <glyph glyph-name="fraction" unicode="&#x2044;" horiz-adv-x="150" 
d="M-15 -10h-81c-6 0 -9 4 -7 10l254 680c2 6 7 10 13 10h82c6 0 9 -4 7 -10l-254 -680c-2 -6 -7 -10 -14 -10z" />
    <glyph glyph-name="uni2215" unicode="&#x2215;" horiz-adv-x="162" 
d="M-9 -10h-81c-6 0 -9 4 -7 10l254 680c2 6 7 10 13 10h82c6 0 9 -4 7 -10l-254 -680c-2 -6 -7 -10 -14 -10z" />
    <glyph glyph-name="onehalf" unicode="&#xbd;" horiz-adv-x="814" 
d="M239 274h-92c-6 0 -10 4 -10 10v276h-2l-56 -33c-5 -3 -10 -1 -10 5v92c0 6 2 10 7 13l58 37c6 4 10 6 16 6h89c6 0 10 -4 10 -10v-386c0 -6 -4 -10 -10 -10zM731 0h-228c-6 0 -10 4 -10 10v71c0 7 2 12 6 16l114 141c18 21 21 30 21 50c0 13 -1 20 -3 24
c-3 7 -8 11 -19 11s-18 -5 -20 -12c-2 -6 -2 -10 -2 -29c0 -8 -5 -11 -12 -10l-84 9c-7 1 -10 4 -10 12c0 24 2 36 6 48c14 45 59 72 125 72c65 0 110 -26 125 -72c4 -12 6 -24 6 -52c0 -39 -11 -63 -37 -98l-70 -94v-2h92c6 0 10 -4 10 -10v-75c0 -6 -4 -10 -10 -10z
M290 -10h-81c-6 0 -9 4 -7 10l254 680c2 6 7 10 13 10h82c6 0 9 -4 7 -10l-254 -680c-2 -6 -7 -10 -14 -10z" />
    <glyph glyph-name="onethird" unicode="&#x2153;" horiz-adv-x="815" 
d="M239 274h-92c-6 0 -10 4 -10 10v276h-2l-56 -33c-5 -3 -10 -1 -10 5v92c0 6 2 10 7 13l58 37c6 4 10 6 16 6h89c6 0 10 -4 10 -10v-386c0 -6 -4 -10 -10 -10zM290 -10h-81c-6 0 -9 4 -7 10l254 680c2 6 7 10 13 10h82c6 0 9 -4 7 -10l-254 -680c-2 -6 -7 -10 -14 -10z
M615 -7c-66 0 -111 27 -125 72c-4 11 -6 23 -6 34c0 7 3 11 10 12l85 8c7 1 12 -1 12 -10c0 -7 1 -12 2 -15c2 -6 9 -11 20 -11s17 6 19 13c1 4 2 9 2 25c0 14 -1 19 -2 24c-3 11 -12 14 -25 14h-7c-6 0 -10 4 -10 10v77c0 6 4 10 10 10h11c11 0 18 4 21 12c2 4 2 9 2 21
s-1 17 -2 21c-2 7 -8 13 -19 13s-18 -5 -20 -11c-1 -3 -2 -8 -2 -15c0 -9 -5 -11 -12 -10l-85 8c-7 1 -10 5 -10 12c0 11 2 23 6 34c14 45 59 72 125 72s112 -27 126 -72c3 -11 5 -24 5 -44c0 -19 -1 -29 -4 -40c-7 -20 -20 -34 -41 -44v-2c20 -10 33 -23 40 -44
c4 -12 5 -25 5 -50c0 -28 -2 -41 -5 -52c-14 -45 -60 -72 -126 -72z" />
    <glyph glyph-name="onequarter" unicode="&#xbc;" horiz-adv-x="793" 
d="M239 274h-92c-6 0 -10 4 -10 10v276h-2l-56 -33c-5 -3 -10 -1 -10 5v92c0 6 2 10 7 13l58 37c6 4 10 6 16 6h89c6 0 10 -4 10 -10v-386c0 -6 -4 -10 -10 -10zM691 0h-82c-6 0 -10 4 -10 10v41c0 4 -2 6 -6 6h-137c-6 0 -10 4 -10 10v79c0 6 1 10 3 16l81 234
c2 6 6 10 13 10h92c6 0 9 -4 7 -10l-83 -242v-3h34c4 0 6 2 6 6v60c0 6 4 10 10 10h82c6 0 10 -4 10 -10v-60c0 -4 1 -6 5 -6h9c6 0 10 -4 10 -10v-74c0 -6 -4 -10 -10 -10h-8c-4 0 -6 -2 -6 -6v-41c0 -6 -4 -10 -10 -10zM290 -10h-81c-6 0 -9 4 -7 10l254 680
c2 6 7 10 13 10h82c6 0 9 -4 7 -10l-254 -680c-2 -6 -7 -10 -14 -10z" />
    <glyph glyph-name="oneeighth" unicode="&#x215b;" horiz-adv-x="820" 
d="M239 274h-92c-6 0 -10 4 -10 10v276h-2l-56 -33c-5 -3 -10 -1 -10 5v92c0 6 2 10 7 13l58 37c6 4 10 6 16 6h89c6 0 10 -4 10 -10v-386c0 -6 -4 -10 -10 -10zM618 -7c-66 0 -113 28 -128 73c-4 12 -6 25 -6 52c0 24 2 37 5 47c8 22 22 37 38 46v1c-17 11 -32 26 -39 47
c-3 9 -4 20 -4 33c0 23 2 36 6 48c15 45 62 73 128 73c65 0 112 -28 127 -73c4 -12 6 -25 6 -48c0 -13 -1 -24 -4 -33c-7 -21 -22 -36 -39 -47v-1c16 -9 30 -24 38 -46c3 -10 5 -23 5 -47c0 -27 -2 -40 -6 -52c-15 -45 -62 -73 -127 -73zM639 288c0 15 -1 19 -2 22
c-2 7 -8 13 -19 13s-18 -6 -20 -13c-1 -3 -2 -7 -2 -22s1 -20 2 -23c2 -7 9 -13 20 -13s17 6 19 13c1 3 2 8 2 23zM639 123c0 17 -1 22 -2 26c-2 7 -8 13 -19 13s-18 -6 -20 -13c-1 -4 -2 -9 -2 -26c0 -19 1 -23 2 -27c2 -7 9 -13 20 -13s17 6 19 13c1 4 2 8 2 27zM290 -10
h-81c-6 0 -9 4 -7 10l254 680c2 6 7 10 13 10h82c6 0 9 -4 7 -10l-254 -680c-2 -6 -7 -10 -14 -10z" />
    <glyph glyph-name="twothirds" unicode="&#x2154;" horiz-adv-x="885" 
d="M314 274h-228c-6 0 -10 4 -10 10v71c0 7 2 12 6 16l114 141c18 21 21 30 21 50c0 13 -1 20 -3 24c-3 7 -8 11 -19 11s-18 -5 -20 -12c-2 -6 -2 -10 -2 -29c0 -8 -5 -11 -12 -10l-84 9c-7 1 -10 4 -10 12c0 24 2 36 6 48c14 45 59 72 125 72c65 0 110 -26 125 -72
c4 -12 6 -24 6 -52c0 -39 -11 -63 -37 -98l-70 -94v-2h92c6 0 10 -4 10 -10v-75c0 -6 -4 -10 -10 -10zM360 -10h-81c-6 0 -9 4 -7 10l254 680c2 6 7 10 13 10h82c6 0 9 -4 7 -10l-254 -680c-2 -6 -7 -10 -14 -10zM686 -7c-66 0 -111 27 -125 72c-4 11 -6 23 -6 34
c0 7 3 11 10 12l85 8c7 1 12 -1 12 -10c0 -7 1 -12 2 -15c2 -6 9 -11 20 -11s17 6 19 13c1 4 2 9 2 25c0 14 -1 19 -2 24c-3 11 -12 14 -25 14h-7c-6 0 -10 4 -10 10v77c0 6 4 10 10 10h11c11 0 18 4 21 12c2 4 2 9 2 21s-1 17 -2 21c-2 7 -8 13 -19 13s-18 -5 -20 -11
c-1 -3 -2 -8 -2 -15c0 -9 -5 -11 -12 -10l-85 8c-7 1 -10 5 -10 12c0 11 2 23 6 34c14 45 59 72 125 72s112 -27 126 -72c3 -11 5 -24 5 -44c0 -19 -1 -29 -4 -40c-7 -20 -20 -34 -41 -44v-2c20 -10 33 -23 40 -44c4 -12 5 -25 5 -50c0 -28 -2 -41 -5 -52
c-14 -45 -60 -72 -126 -72z" />
    <glyph glyph-name="threequarters" unicode="&#xbe;" horiz-adv-x="849" 
d="M747 0h-82c-6 0 -10 4 -10 10v41c0 4 -2 6 -6 6h-137c-6 0 -10 4 -10 10v79c0 6 1 10 3 16l81 234c2 6 6 10 13 10h92c6 0 9 -4 7 -10l-83 -242v-3h34c4 0 6 2 6 6v60c0 6 4 10 10 10h82c6 0 10 -4 10 -10v-60c0 -4 1 -6 5 -6h9c6 0 10 -4 10 -10v-74
c0 -6 -4 -10 -10 -10h-8c-4 0 -6 -2 -6 -6v-41c0 -6 -4 -10 -10 -10zM345 -10h-81c-6 0 -9 4 -7 10l254 680c2 6 7 10 13 10h82c6 0 9 -4 7 -10l-254 -680c-2 -6 -7 -10 -14 -10zM198 267c-66 0 -111 27 -125 72c-4 11 -6 23 -6 34c0 7 3 11 10 12l85 8c7 1 12 -1 12 -10
c0 -7 1 -12 2 -15c2 -6 9 -11 20 -11s17 6 19 13c1 4 2 9 2 25c0 14 -1 19 -2 24c-3 11 -12 14 -25 14h-7c-6 0 -10 4 -10 10v77c0 6 4 10 10 10h11c11 0 18 4 21 12c2 4 2 9 2 21s-1 17 -2 21c-2 7 -8 13 -19 13s-18 -5 -20 -11c-1 -3 -2 -8 -2 -15c0 -9 -5 -11 -12 -10
l-85 8c-7 1 -10 5 -10 12c0 11 2 23 6 34c14 45 59 72 125 72s112 -27 126 -72c3 -11 5 -24 5 -44c0 -19 -1 -29 -4 -40c-7 -20 -20 -34 -41 -44v-2c20 -10 33 -23 40 -44c4 -12 5 -25 5 -50c0 -28 -2 -41 -5 -52c-14 -45 -60 -72 -126 -72z" />
    <glyph glyph-name="threeeighths" unicode="&#x215c;" horiz-adv-x="876" 
d="M674 -7c-66 0 -113 28 -128 73c-4 12 -6 25 -6 52c0 24 2 37 5 47c8 22 22 37 38 46v1c-17 11 -32 26 -39 47c-3 9 -4 20 -4 33c0 23 2 36 6 48c15 45 62 73 128 73c65 0 112 -28 127 -73c4 -12 6 -25 6 -48c0 -13 -1 -24 -4 -33c-7 -21 -22 -36 -39 -47v-1
c16 -9 30 -24 38 -46c3 -10 5 -23 5 -47c0 -27 -2 -40 -6 -52c-15 -45 -62 -73 -127 -73zM695 288c0 15 -1 19 -2 22c-2 7 -8 13 -19 13s-18 -6 -20 -13c-1 -3 -2 -7 -2 -22s1 -20 2 -23c2 -7 9 -13 20 -13s17 6 19 13c1 3 2 8 2 23zM695 123c0 17 -1 22 -2 26
c-2 7 -8 13 -19 13s-18 -6 -20 -13c-1 -4 -2 -9 -2 -26c0 -19 1 -23 2 -27c2 -7 9 -13 20 -13s17 6 19 13c1 4 2 8 2 27zM345 -10h-81c-6 0 -9 4 -7 10l254 680c2 6 7 10 13 10h82c6 0 9 -4 7 -10l-254 -680c-2 -6 -7 -10 -14 -10zM198 267c-66 0 -111 27 -125 72
c-4 11 -6 23 -6 34c0 7 3 11 10 12l85 8c7 1 12 -1 12 -10c0 -7 1 -12 2 -15c2 -6 9 -11 20 -11s17 6 19 13c1 4 2 9 2 25c0 14 -1 19 -2 24c-3 11 -12 14 -25 14h-7c-6 0 -10 4 -10 10v77c0 6 4 10 10 10h11c11 0 18 4 21 12c2 4 2 9 2 21s-1 17 -2 21c-2 7 -8 13 -19 13
s-18 -5 -20 -11c-1 -3 -2 -8 -2 -15c0 -9 -5 -11 -12 -10l-85 8c-7 1 -10 5 -10 12c0 11 2 23 6 34c14 45 59 72 125 72s112 -27 126 -72c3 -11 5 -24 5 -44c0 -19 -1 -29 -4 -40c-7 -20 -20 -34 -41 -44v-2c20 -10 33 -23 40 -44c4 -12 5 -25 5 -50c0 -28 -2 -41 -5 -52
c-14 -45 -60 -72 -126 -72z" />
    <glyph glyph-name="fiveeighths" unicode="&#x215d;" horiz-adv-x="875" 
d="M674 -7c-66 0 -113 28 -128 73c-4 12 -6 25 -6 52c0 24 2 37 5 47c8 22 22 37 38 46v1c-17 11 -32 26 -39 47c-3 9 -4 20 -4 33c0 23 2 36 6 48c15 45 62 73 128 73c65 0 112 -28 127 -73c4 -12 6 -25 6 -48c0 -13 -1 -24 -4 -33c-7 -21 -22 -36 -39 -47v-1
c16 -9 30 -24 38 -46c3 -10 5 -23 5 -47c0 -27 -2 -40 -6 -52c-15 -45 -62 -73 -127 -73zM695 288c0 15 -1 19 -2 22c-2 7 -8 13 -19 13s-18 -6 -20 -13c-1 -3 -2 -7 -2 -22s1 -20 2 -23c2 -7 9 -13 20 -13s17 6 19 13c1 3 2 8 2 23zM695 123c0 17 -1 22 -2 26
c-2 7 -8 13 -19 13s-18 -6 -20 -13c-1 -4 -2 -9 -2 -26c0 -19 1 -23 2 -27c2 -7 9 -13 20 -13s17 6 19 13c1 4 2 8 2 27zM345 -10h-81c-6 0 -9 4 -7 10l254 680c2 6 7 10 13 10h82c6 0 9 -4 7 -10l-254 -680c-2 -6 -7 -10 -14 -10zM198 267c-66 0 -112 27 -126 72
c-4 11 -5 23 -5 30c0 8 3 11 10 12l84 9c7 1 12 -2 12 -10c0 -4 1 -9 3 -13c2 -5 8 -10 19 -10s16 5 19 12c2 4 3 10 3 38c0 27 -1 33 -3 37c-3 7 -8 12 -19 12s-17 -6 -21 -15c-2 -5 -6 -7 -11 -7h-80c-6 0 -10 4 -10 10v226c0 6 4 10 10 10h230c6 0 10 -4 10 -10v-76
c0 -6 -4 -10 -10 -10h-135c-4 0 -6 -2 -6 -6v-48h2c9 7 28 11 52 11c49 0 83 -18 96 -61c5 -15 7 -31 7 -73c0 -41 -2 -54 -7 -68c-15 -46 -59 -72 -124 -72z" />
    <glyph glyph-name="seveneighths" unicode="&#x215e;" horiz-adv-x="834" 
d="M633 -7c-66 0 -113 28 -128 73c-4 12 -6 25 -6 52c0 24 2 37 5 47c8 22 22 37 38 46v1c-17 11 -32 26 -39 47c-3 9 -4 20 -4 33c0 23 2 36 6 48c15 45 62 73 128 73c65 0 112 -28 127 -73c4 -12 6 -25 6 -48c0 -13 -1 -24 -4 -33c-7 -21 -22 -36 -39 -47v-1
c16 -9 30 -24 38 -46c3 -10 5 -23 5 -47c0 -27 -2 -40 -6 -52c-15 -45 -62 -73 -127 -73zM654 288c0 15 -1 19 -2 22c-2 7 -8 13 -19 13s-18 -6 -20 -13c-1 -3 -2 -7 -2 -22s1 -20 2 -23c2 -7 9 -13 20 -13s17 6 19 13c1 3 2 8 2 23zM654 123c0 17 -1 22 -2 26
c-2 7 -8 13 -19 13s-18 -6 -20 -13c-1 -4 -2 -9 -2 -26c0 -19 1 -23 2 -27c2 -7 9 -13 20 -13s17 6 19 13c1 4 2 8 2 27zM210 274h-93c-6 0 -9 4 -7 10l101 301v2h-37c-4 0 -6 -2 -6 -6v-29c0 -6 -4 -10 -10 -10h-80c-6 0 -10 4 -10 10v118c0 6 4 10 10 10h238
c6 0 10 -4 10 -10v-68c0 -7 -1 -14 -3 -20l-100 -298c-2 -7 -6 -10 -13 -10zM303 -10h-81c-6 0 -9 4 -7 10l254 680c2 6 7 10 13 10h82c6 0 9 -4 7 -10l-254 -680c-2 -6 -7 -10 -14 -10z" />
    <glyph glyph-name="perthousand" unicode="&#x2030;" horiz-adv-x="1027" 
d="M281 -10h-82c-6 0 -9 4 -7 10l254 680c2 6 7 10 14 10h81c6 0 9 -4 7 -10l-254 -680c-2 -6 -7 -10 -13 -10zM176 329c-60 0 -99 28 -114 73c-6 20 -8 36 -8 106c0 71 2 87 8 107c15 44 54 72 114 72c61 0 99 -28 114 -72c6 -20 8 -36 8 -107c0 -70 -2 -86 -8 -106
c-15 -45 -53 -73 -114 -73zM176 411c10 0 17 6 19 13c2 5 3 17 3 84s-1 79 -3 84c-2 7 -9 13 -19 13s-17 -6 -19 -13c-2 -5 -3 -17 -3 -84s1 -79 3 -84c2 -7 9 -13 19 -13zM851 -7c-60 0 -99 28 -114 73c-6 20 -8 36 -8 106c0 71 2 87 8 107c15 44 54 72 114 72
c61 0 99 -28 114 -72c6 -20 8 -36 8 -107c0 -70 -2 -86 -8 -106c-15 -45 -53 -73 -114 -73zM564 -7c-60 0 -99 28 -114 73c-6 20 -8 36 -8 106c0 71 2 87 8 107c15 44 54 72 114 72c61 0 99 -28 114 -72c6 -20 8 -36 8 -107c0 -70 -2 -86 -8 -106c-15 -45 -53 -73 -114 -73z
M851 75c10 0 17 6 19 13c2 5 3 17 3 84s-1 79 -3 84c-2 7 -9 13 -19 13s-17 -6 -19 -13c-2 -5 -3 -17 -3 -84s1 -79 3 -84c2 -7 9 -13 19 -13zM564 75c10 0 17 6 19 13c2 5 3 17 3 84s-1 79 -3 84c-2 7 -9 13 -19 13s-17 -6 -19 -13c-2 -5 -3 -17 -3 -84s1 -79 3 -84
c2 -7 9 -13 19 -13z" />
    <glyph glyph-name="minus" unicode="&#x2212;" 
d="M398 216h-359c-6 0 -10 4 -10 10v100c0 6 4 10 10 10h359c6 0 10 -4 10 -10v-100c0 -6 -4 -10 -10 -10z" />
    <glyph glyph-name="plusminus" unicode="&#xb1;" 
d="M270 166h-103c-6 0 -10 4 -10 10v116c0 4 -2 6 -6 6h-112c-6 0 -10 4 -10 10v99c0 6 4 10 10 10h112c4 0 6 2 6 6v116c0 6 4 10 10 10h103c6 0 10 -4 10 -10v-116c0 -4 2 -6 6 -6h112c6 0 10 -4 10 -10v-99c0 -6 -4 -10 -10 -10h-112c-4 0 -6 -2 -6 -6v-116
c0 -6 -4 -10 -10 -10zM398 0h-359c-6 0 -10 4 -10 10v99c0 6 4 10 10 10h359c6 0 10 -4 10 -10v-99c0 -6 -4 -10 -10 -10z" />
    <glyph glyph-name="multiply" unicode="&#xd7;" 
d="M389 171l-66 -65c-4 -5 -10 -5 -14 0l-86 86c-3 2 -5 2 -8 0l-86 -86c-5 -5 -10 -5 -15 0l-66 65c-4 5 -4 10 0 15l86 86c3 3 3 5 0 8l-86 86c-4 5 -4 10 0 15l66 65c5 5 10 5 15 0l86 -86c3 -2 5 -2 8 0l86 86c4 5 10 5 14 0l66 -65c5 -5 5 -10 0 -15l-86 -86
c-2 -3 -2 -5 0 -8l86 -86c5 -5 5 -10 0 -15z" />
    <glyph glyph-name="divide" unicode="&#xf7;" 
d="M219 384c-43 0 -76 33 -76 76c0 42 33 75 76 75c42 0 75 -33 75 -75c0 -43 -33 -76 -75 -76zM398 216h-359c-6 0 -10 4 -10 10v100c0 6 4 10 10 10h359c6 0 10 -4 10 -10v-100c0 -6 -4 -10 -10 -10zM219 17c-43 0 -76 33 -76 75c0 43 33 76 76 76c42 0 75 -33 75 -76
c0 -42 -33 -75 -75 -75z" />
    <glyph glyph-name="notequal" unicode="&#x2260;" 
d="M398 311h-116l-35 -70h151c6 0 10 -4 10 -10v-99c0 -6 -4 -10 -10 -10h-210l-40 -81c-4 -7 -8 -10 -15 -10h-70c-6 0 -9 4 -6 11l39 80h-57c-6 0 -10 4 -10 10v99c0 6 4 10 10 10h116l35 70h-151c-6 0 -10 4 -10 10v99c0 6 4 10 10 10h210l41 81c4 7 8 10 14 10h71
c6 0 9 -4 6 -11l-40 -80h57c6 0 10 -4 10 -10v-99c0 -6 -4 -10 -10 -10z" />
    <glyph glyph-name="approxequal" unicode="&#x2248;" 
d="M289 293c-29 0 -51 12 -72 23c-18 10 -36 20 -52 20c-20 0 -31 -8 -48 -38c-3 -5 -8 -7 -13 -4l-73 38c-6 3 -7 8 -4 13c32 66 68 99 122 99c29 0 51 -12 72 -23c19 -10 36 -20 53 -20c20 0 30 8 47 38c2 5 8 6 13 3l73 -37c6 -3 7 -8 4 -13c-32 -66 -67 -99 -122 -99z
M289 109c-29 0 -51 12 -72 22c-18 11 -36 21 -52 21c-20 0 -31 -8 -48 -38c-3 -5 -8 -7 -13 -4l-73 37c-6 3 -7 8 -4 14c32 66 68 99 122 99c29 0 51 -12 72 -23c19 -10 36 -20 53 -20c20 0 30 8 47 38c2 5 8 6 13 3l73 -37c6 -3 7 -8 4 -14c-32 -66 -67 -98 -122 -98z" />
    <glyph glyph-name="lessequal" unicode="&#x2264;" 
d="M398 155l-359 143c-6 2 -10 7 -10 14v88c0 7 4 12 10 14l359 143c6 2 10 -1 10 -7v-108c0 -6 -3 -10 -10 -13l-191 -72v-2l191 -71c7 -3 10 -7 10 -13v-109c0 -6 -4 -9 -10 -7zM398 0h-359c-6 0 -10 4 -10 10v99c0 6 4 10 10 10h359c6 0 10 -4 10 -10v-99
c0 -6 -4 -10 -10 -10z" />
    <glyph glyph-name="greaterequal" unicode="&#x2265;" 
d="M39 155c-6 -2 -10 1 -10 7v109c0 6 3 10 10 13l190 71v2l-190 72c-7 3 -10 7 -10 13v108c0 6 4 9 10 7l359 -143c6 -2 10 -7 10 -14v-88c0 -7 -4 -12 -10 -14zM398 0h-359c-6 0 -10 4 -10 10v99c0 6 4 10 10 10h359c6 0 10 -4 10 -10v-99c0 -6 -4 -10 -10 -10z" />
    <glyph glyph-name="logicalnot" unicode="&#xac;" 
d="M398 114h-103c-6 0 -10 4 -10 10v86c0 4 -2 6 -6 6h-240c-6 0 -10 4 -10 10v100c0 6 4 10 10 10h359c6 0 10 -4 10 -10v-202c0 -6 -4 -10 -10 -10z" />
    <glyph glyph-name="Delta" unicode="&#x394;" horiz-adv-x="488" 
d="M473 0h-458c-6 0 -9 4 -8 10l149 660c2 6 5 10 12 10h155c7 0 11 -4 12 -10l146 -660c2 -7 -2 -10 -8 -10zM296 140c4 0 6 2 5 6l-54 313h-2l-56 -313c-1 -4 1 -6 5 -6h102z" />
    <glyph glyph-name="Delta" unicode="&#x2206;" horiz-adv-x="488" 
d="M473 0h-458c-6 0 -9 4 -8 10l149 660c2 6 5 10 12 10h155c7 0 11 -4 12 -10l146 -660c2 -7 -2 -10 -8 -10zM296 140c4 0 6 2 5 6l-54 313h-2l-56 -313c-1 -4 1 -6 5 -6h102z" />
    <glyph glyph-name="uni0394" horiz-adv-x="488" 
d="M473 0h-458c-6 0 -9 4 -8 10l149 660c2 6 5 10 12 10h155c7 0 11 -4 12 -10l146 -660c2 -7 -2 -10 -8 -10zM296 140c4 0 6 2 5 6l-54 313h-2l-56 -313c-1 -4 1 -6 5 -6h102z" />
    <glyph glyph-name="Omega" unicode="&#x3a9;" horiz-adv-x="476" 
d="M438 0h-170c-6 0 -10 4 -10 10v106c0 7 3 11 8 16c15 16 16 28 16 233c0 133 -1 143 -5 156c-6 17 -20 27 -39 27c-20 0 -33 -10 -39 -27c-4 -13 -6 -23 -6 -156c0 -205 2 -217 17 -233c4 -5 8 -9 8 -16v-106c0 -6 -4 -10 -10 -10h-170c-6 0 -10 4 -10 10v114
c0 6 4 10 10 10h42v1c-34 30 -49 62 -49 226c0 138 4 168 15 202c26 82 92 127 192 127s165 -45 191 -127c12 -34 16 -64 16 -202c0 -164 -16 -196 -49 -226v-1h42c6 0 10 -4 10 -10v-114c0 -6 -4 -10 -10 -10z" />
    <glyph glyph-name="Omega" unicode="&#x2126;" horiz-adv-x="476" 
d="M438 0h-170c-6 0 -10 4 -10 10v106c0 7 3 11 8 16c15 16 16 28 16 233c0 133 -1 143 -5 156c-6 17 -20 27 -39 27c-20 0 -33 -10 -39 -27c-4 -13 -6 -23 -6 -156c0 -205 2 -217 17 -233c4 -5 8 -9 8 -16v-106c0 -6 -4 -10 -10 -10h-170c-6 0 -10 4 -10 10v114
c0 6 4 10 10 10h42v1c-34 30 -49 62 -49 226c0 138 4 168 15 202c26 82 92 127 192 127s165 -45 191 -127c12 -34 16 -64 16 -202c0 -164 -16 -196 -49 -226v-1h42c6 0 10 -4 10 -10v-114c0 -6 -4 -10 -10 -10z" />
    <glyph glyph-name="uni03A9" horiz-adv-x="476" 
d="M438 0h-170c-6 0 -10 4 -10 10v106c0 7 3 11 8 16c15 16 16 28 16 233c0 133 -1 143 -5 156c-6 17 -20 27 -39 27c-20 0 -33 -10 -39 -27c-4 -13 -6 -23 -6 -156c0 -205 2 -217 17 -233c4 -5 8 -9 8 -16v-106c0 -6 -4 -10 -10 -10h-170c-6 0 -10 4 -10 10v114
c0 6 4 10 10 10h42v1c-34 30 -49 62 -49 226c0 138 4 168 15 202c26 82 92 127 192 127s165 -45 191 -127c12 -34 16 -64 16 -202c0 -164 -16 -196 -49 -226v-1h42c6 0 10 -4 10 -10v-114c0 -6 -4 -10 -10 -10z" />
    <glyph glyph-name="mu" unicode="&#xb5;" horiz-adv-x="436" 
d="M391 0h-131c-6 0 -10 4 -10 10v37h-1c-10 -28 -30 -43 -55 -50c-3 0 -7 1 -8 1v-168c0 -6 -4 -10 -10 -10h-131c-6 0 -10 4 -10 10v647c0 6 4 10 10 10h131c6 0 10 -4 10 -10v-311c0 -32 9 -45 32 -45c21 0 32 13 32 45v311c0 6 4 10 10 10h131c6 0 10 -4 10 -10v-467
c0 -6 -4 -10 -10 -10z" />
    <glyph glyph-name="mu" unicode="&#x3bc;" horiz-adv-x="436" 
d="M391 0h-131c-6 0 -10 4 -10 10v37h-1c-10 -28 -30 -43 -55 -50c-3 0 -7 1 -8 1v-168c0 -6 -4 -10 -10 -10h-131c-6 0 -10 4 -10 10v647c0 6 4 10 10 10h131c6 0 10 -4 10 -10v-311c0 -32 9 -45 32 -45c21 0 32 13 32 45v311c0 6 4 10 10 10h131c6 0 10 -4 10 -10v-467
c0 -6 -4 -10 -10 -10z" />
    <glyph glyph-name="uni03BC" horiz-adv-x="436" 
d="M391 0h-131c-6 0 -10 4 -10 10v37h-1c-10 -28 -30 -43 -55 -50c-3 0 -7 1 -8 1v-168c0 -6 -4 -10 -10 -10h-131c-6 0 -10 4 -10 10v647c0 6 4 10 10 10h131c6 0 10 -4 10 -10v-311c0 -32 9 -45 32 -45c21 0 32 13 32 45v311c0 6 4 10 10 10h131c6 0 10 -4 10 -10v-467
c0 -6 -4 -10 -10 -10z" />
    <glyph glyph-name="pi" unicode="&#x3c0;" horiz-adv-x="496" 
d="M456 -6h-28c-107 0 -151 43 -151 159v198c0 4 -2 6 -6 6h-45c-4 0 -6 -2 -6 -6v-341c0 -6 -4 -10 -10 -10h-131c-6 0 -10 4 -10 10v341c0 4 -2 6 -6 6h-32c-6 0 -10 4 -10 10v110c0 6 4 10 10 10h433c6 0 10 -4 10 -10v-110c0 -6 -4 -10 -10 -10h-32c-4 0 -6 -2 -6 -6
v-196c0 -24 8 -31 26 -31h4c6 0 10 -4 10 -10v-110c0 -6 -4 -10 -10 -10z" />
    <glyph glyph-name="degree" unicode="&#xb0;" horiz-adv-x="342" 
d="M171 416c-78 0 -136 58 -136 135c0 78 58 135 136 135s136 -57 136 -135c0 -77 -58 -135 -136 -135zM171 496c31 0 53 23 53 55s-22 55 -53 55s-53 -23 -53 -55s22 -55 53 -55z" />
    <glyph glyph-name="afii61289" unicode="&#x2113;" horiz-adv-x="426" 
d="M94 148c-4 -3 -10 -4 -15 1l-47 57c-4 4 -3 11 1 14l79 69v186c0 132 55 215 159 215c79 0 132 -54 132 -140c0 -98 -60 -182 -150 -270v-147c0 -26 9 -39 29 -39c11 0 21 6 32 15c5 4 10 4 14 -2l41 -53c4 -6 2 -10 -2 -14c-35 -32 -73 -50 -121 -50
c-82 0 -134 46 -134 155v19zM253 517v-92c32 44 47 82 47 123c0 32 -9 42 -22 42c-15 0 -25 -12 -25 -73z" />
    <glyph glyph-name="estimated" unicode="&#x212e;" horiz-adv-x="569" 
d="M284 -10c-144 0 -237 114 -237 254c0 142 93 253 237 253c143 0 238 -104 239 -253h-372v-166c35 -35 80 -53 133 -53c76 0 132 32 176 110l33 -21c-56 -86 -113 -124 -209 -124zM419 278v132c-40 37 -84 57 -135 57c-53 0 -98 -20 -133 -57v-132h268z" />
    <glyph glyph-name="eng" unicode="&#x14b;" horiz-adv-x="435" 
d="M223 -180h-13c-6 0 -10 4 -10 10v110c0 6 4 10 10 10h6c23 1 35 10 35 47v324c0 31 -11 45 -32 45c-22 0 -33 -14 -33 -45v-311c0 -6 -4 -10 -10 -10h-131c-6 0 -10 4 -10 10v467c0 6 4 10 10 10h130c6 0 10 -4 10 -10v-37h1c17 33 50 57 99 57c83 0 117 -47 117 -150
v-333c0 -132 -56 -194 -179 -194z" />
    <glyph glyph-name="Eng" unicode="&#x14a;" horiz-adv-x="491" 
d="M261 -180h-20c-6 0 -10 4 -10 10v120c0 6 4 10 10 10l13 1c29 2 42 15 42 38v1l-115 389h-6v-379c0 -6 -4 -10 -10 -10h-118c-6 0 -10 4 -10 10v660c0 6 4 10 10 10h143c8 0 14 -4 16 -10l105 -375h5v375c0 6 4 10 10 10h118c6 0 10 -4 10 -10v-652
c0 -142 -66 -198 -193 -198z" />
    <glyph glyph-name="infinity" unicode="&#x221e;" horiz-adv-x="662" 
d="M485 85c-60 0 -103 23 -155 79c-51 -55 -94 -79 -154 -79c-91 0 -162 61 -162 161s70 162 163 162c56 0 102 -25 154 -81c55 58 95 81 153 81c91 0 163 -60 163 -162c0 -99 -70 -161 -162 -161zM480 189c35 0 55 23 55 58c0 34 -21 56 -55 56c-24 0 -46 -18 -80 -57
c38 -44 57 -57 80 -57zM180 189c22 0 42 14 81 57c-33 37 -57 57 -80 57c-34 0 -55 -22 -55 -56c0 -35 20 -58 54 -58z" />
    <glyph glyph-name="partialdiff" unicode="&#x2202;" horiz-adv-x="449" 
d="M204 -10c-111 0 -176 80 -176 208c0 137 72 222 175 222c32 0 54 -8 71 -21h1c-6 108 -44 163 -92 163c-22 0 -44 -9 -60 -22c-5 -4 -11 -3 -14 2l-53 81c-3 5 -2 10 3 14c31 26 81 53 145 53c133 0 217 -123 217 -346c0 -249 -83 -354 -217 -354zM213 112
c29 0 56 34 61 165c-12 12 -26 21 -45 21c-34 0 -55 -33 -55 -96c0 -62 14 -90 39 -90z" />
    <glyph glyph-name="integral" unicode="&#x222b;" horiz-adv-x="327" 
d="M62 -180c-10 0 -23 0 -30 1c-6 1 -10 4 -10 10v106c0 6 4 10 10 10h15c28 0 41 16 41 57v546c0 129 61 190 177 190c10 0 23 0 30 -1c6 -1 10 -4 10 -10v-106c0 -6 -4 -10 -10 -10h-15c-28 0 -41 -16 -41 -57v-546c0 -129 -61 -190 -177 -190z" />
    <glyph glyph-name="radical" unicode="&#x221a;" horiz-adv-x="602" 
d="M365 -180h-115c-6 0 -10 4 -12 10l-104 243c-2 4 -5 5 -9 3l-47 -20c-6 -3 -11 -1 -13 4l-36 82c-3 6 -1 11 4 13l155 67c6 3 11 2 14 -4l93 -221h3l172 733c2 6 6 10 12 10h107c6 0 10 -4 8 -10l-220 -900c-2 -6 -6 -10 -12 -10z" />
    <glyph glyph-name="summation" unicode="&#x2211;" horiz-adv-x="490" 
d="M452 -180h-414c-6 0 -10 4 -10 10v116c0 4 1 7 2 9l169 363l-164 281c-2 4 -3 7 -3 11v120c0 6 4 10 10 10h400c6 0 10 -4 10 -10v-120c0 -6 -4 -10 -10 -10h-223l152 -267c2 -5 2 -9 0 -14l-167 -359h248c6 0 10 -4 10 -10v-120c0 -6 -4 -10 -10 -10z" />
    <glyph glyph-name="product" unicode="&#x220f;" horiz-adv-x="512" 
d="M465 -180h-139c-6 0 -10 4 -10 10v757c0 4 -2 6 -6 6h-108c-4 0 -6 -2 -6 -6v-757c0 -6 -4 -10 -10 -10h-139c-6 0 -10 4 -10 10v900c0 6 4 10 10 10h418c6 0 10 -4 10 -10v-900c0 -6 -4 -10 -10 -10z" />
    <glyph glyph-name="lozenge" unicode="&#x25ca;" horiz-adv-x="477" 
d="M295 -52h-113c-8 0 -12 3 -15 10l-151 364c-2 5 -2 9 0 14l151 364c3 7 7 10 15 10h113c8 0 13 -3 16 -10l151 -364c2 -5 2 -9 0 -14l-151 -364c-3 -7 -8 -10 -16 -10zM241 114h2l76 215l-80 215h-2l-79 -215z" />
    <glyph glyph-name="uniF8FF" unicode="&#xf8ff;" horiz-adv-x="443" 
d="M433 0h-423c-6 0 -10 4 -10 10v660c0 6 4 10 10 10h423c6 0 10 -4 10 -10v-660c0 -6 -4 -10 -10 -10zM365 67c4 0 6 2 6 6v534c0 4 -2 6 -6 6h-287c-4 0 -6 -2 -6 -6v-534c0 -4 2 -6 6 -6h287zM257 249h-75c-6 0 -10 4 -10 10v26c0 20 4 34 17 53l33 51
c15 23 19 34 19 58c0 9 -1 15 -3 20c-3 8 -9 13 -20 13c-10 0 -16 -5 -19 -13c-2 -5 -3 -11 -3 -33c0 -7 -5 -10 -11 -9l-75 8c-6 0 -9 5 -9 11c0 23 2 35 7 48c15 42 53 71 112 71c60 0 97 -29 112 -71c5 -13 7 -26 7 -44c0 -30 -7 -51 -26 -81l-33 -51
c-10 -14 -13 -23 -13 -37v-20c0 -6 -4 -10 -10 -10zM257 114h-72c-6 0 -10 4 -10 10v80c0 6 4 10 10 10h72c6 0 10 -4 10 -10v-80c0 -6 -4 -10 -10 -10z" />
    <glyph glyph-name="zero.onum" 
d="M218 -10c-89 0 -149 40 -172 112c-9 28 -14 58 -14 141c0 84 5 114 14 142c23 72 83 112 172 112c90 0 150 -40 173 -112c9 -28 13 -58 13 -142c0 -83 -4 -113 -13 -141c-23 -72 -83 -112 -173 -112zM218 118c16 0 27 8 30 21c3 9 4 19 4 104c0 86 -1 96 -4 105
c-4 13 -14 21 -30 21c-15 0 -25 -8 -29 -21c-3 -9 -4 -19 -4 -105c0 -85 1 -96 4 -104c4 -13 14 -21 29 -21z" />
    <glyph glyph-name="one.onum" 
d="M313 0h-131c-6 0 -10 4 -10 10v325h-2l-90 -31c-7 -3 -12 0 -12 8v119c0 7 1 11 8 14l92 38c4 2 10 4 17 4h128c6 0 10 -4 10 -10v-467c0 -6 -4 -10 -10 -10z" />
    <glyph glyph-name="two.onum" 
d="M390 0h-345c-6 0 -10 4 -10 10v97c0 8 3 14 8 18l161 117c35 26 45 40 45 82c0 9 -1 18 -4 25c-5 14 -14 20 -30 20s-25 -6 -30 -20c-3 -7 -4 -18 -4 -42c0 -8 -5 -11 -12 -10l-124 12c-7 1 -10 5 -10 12c0 23 3 48 10 68c22 69 80 108 173 108c91 0 150 -39 172 -107
c7 -20 10 -41 10 -66c0 -70 -26 -105 -71 -140l-78 -61v-1h139c6 0 10 -4 10 -10v-102c0 -6 -4 -10 -10 -10z" />
    <glyph glyph-name="three.onum" 
d="M215 -190c-93 0 -150 41 -173 110c-7 20 -10 43 -10 70c0 7 3 11 10 12l125 12c7 1 12 -2 12 -10c0 -30 1 -38 3 -45c5 -13 15 -21 30 -21c16 0 26 8 31 21c2 7 3 15 3 66c0 47 -1 56 -3 63c-6 16 -19 24 -42 24h-34c-6 0 -10 4 -10 10v114c0 6 1 11 5 15l75 100v3h-186
c-6 0 -10 4 -10 10v113c0 6 4 10 10 10h336c6 0 10 -4 10 -10v-115c0 -7 -2 -11 -5 -15l-89 -115v-2c35 -9 67 -27 83 -77c9 -27 11 -51 11 -128c0 -59 -3 -86 -10 -106c-22 -68 -80 -109 -172 -109z" />
    <glyph glyph-name="four.onum" 
d="M368 -180h-124c-6 0 -10 4 -10 10v164c0 4 -2 6 -6 6h-204c-6 0 -10 4 -10 10v121c0 4 1 7 2 10l114 345c2 6 5 8 11 8h130c6 0 9 -4 7 -11l-111 -348v-2h61c4 0 6 2 6 6v91c0 6 4 10 10 10h124c6 0 10 -4 10 -10v-91c0 -4 1 -6 5 -6h27c6 0 10 -4 10 -10v-113
c0 -6 -4 -10 -10 -10h-26c-4 0 -6 -2 -6 -6v-164c0 -6 -4 -10 -10 -10z" />
    <glyph glyph-name="five.onum" 
d="M221 -190c-93 0 -150 41 -173 110c-7 20 -10 43 -10 64c0 7 3 11 10 12l125 13c7 1 12 -2 12 -10c0 -25 1 -33 3 -40c5 -13 15 -21 30 -21c16 0 26 8 31 21c2 7 3 15 3 77c0 61 -1 69 -3 76c-5 14 -16 21 -31 21c-18 0 -28 -9 -33 -24c-2 -7 -6 -10 -13 -10h-115
c-6 0 -9 3 -9 10v368c0 6 4 10 10 10h333c6 0 10 -4 10 -10v-113c0 -6 -4 -10 -10 -10h-204c-4 0 -6 -2 -6 -6v-114h2c14 12 39 23 77 23c68 0 112 -27 131 -88c8 -24 12 -52 12 -133c0 -73 -3 -97 -10 -117c-22 -68 -80 -109 -172 -109z" />
    <glyph glyph-name="six.onum" 
d="M219 -10c-91 0 -151 39 -174 110c-7 21 -11 44 -11 101c0 91 12 134 39 193l127 278c3 5 7 8 15 8h132c7 0 10 -5 7 -12l-116 -261l2 -2c4 2 14 4 25 4c66 0 107 -37 128 -99c7 -22 11 -49 11 -109c0 -57 -4 -80 -10 -101c-23 -71 -83 -110 -175 -110zM219 118
c16 0 26 8 30 21c3 7 4 16 4 62s-1 54 -4 61c-4 14 -14 21 -30 21c-15 0 -26 -7 -30 -21c-2 -7 -3 -15 -3 -61s1 -55 3 -62c4 -13 15 -21 30 -21z" />
    <glyph glyph-name="seven.onum" 
d="M229 -180h-132c-6 0 -9 4 -7 12l163 523v2h-81c-4 0 -6 -2 -6 -6v-50c0 -6 -4 -10 -10 -10h-109c-6 0 -10 4 -10 10v176c0 6 4 10 10 10h348c6 0 10 -4 10 -10v-105c0 -5 -1 -9 -2 -13l-161 -529c-2 -7 -5 -10 -13 -10z" />
    <glyph glyph-name="eight.onum" 
d="M219 -10c-91 0 -151 39 -174 110c-7 21 -11 44 -11 98c0 47 3 68 11 91c10 32 30 53 50 65v2c-23 14 -41 37 -52 70c-6 20 -9 41 -9 71c0 39 4 62 11 83c23 71 83 110 174 110c92 0 152 -39 175 -110c6 -21 10 -44 10 -83c0 -30 -3 -51 -9 -71c-11 -33 -29 -56 -51 -70
v-2c20 -12 39 -33 50 -65c7 -23 10 -44 10 -91c0 -54 -4 -77 -10 -98c-23 -71 -83 -110 -175 -110zM219 413c16 0 26 7 30 21c3 7 4 15 4 53s-1 47 -4 54c-4 13 -14 21 -30 21c-15 0 -26 -8 -30 -21c-2 -7 -3 -16 -3 -54s1 -46 3 -53c4 -14 15 -21 30 -21zM219 118
c16 0 26 8 30 21c3 7 4 16 4 63c0 46 -1 55 -4 62c-4 13 -14 21 -30 21c-15 0 -26 -8 -30 -21c-2 -7 -3 -16 -3 -62c0 -47 1 -56 3 -63c4 -13 15 -21 30 -21z" />
    <glyph glyph-name="nine.onum" 
d="M228 -180h-131c-7 0 -10 5 -7 12l110 248c-1 0 -2 1 -2 2c-5 -2 -14 -4 -25 -4c-66 0 -107 37 -128 99c-8 22 -12 49 -12 109c0 57 4 80 11 101c23 70 83 110 174 110c92 0 153 -40 175 -110c6 -21 10 -44 10 -101c0 -91 -12 -134 -39 -193l-121 -265c-3 -5 -7 -8 -15 -8
zM218 203c16 0 26 8 30 21c3 8 4 16 4 62s-1 54 -4 62c-4 13 -14 21 -30 21c-15 0 -26 -8 -30 -21c-2 -8 -3 -16 -3 -62s1 -54 3 -62c4 -13 15 -21 30 -21z" />
    <glyph glyph-name="zero.prop" horiz-adv-x="438" 
d="M47 103c-9 28 -14 62 -14 237s5 209 14 237c24 73 83 113 172 113s148 -40 172 -113c9 -28 14 -62 14 -237s-5 -209 -14 -237c-24 -73 -83 -113 -172 -113s-148 40 -172 113zM189 139c4 -13 14 -21 30 -21s26 8 30 21c3 8 4 19 4 201s-1 193 -4 201c-4 13 -14 21 -30 21
s-26 -8 -30 -21c-3 -8 -4 -19 -4 -201s1 -193 4 -201z" />
    <glyph glyph-name="one.prop" horiz-adv-x="334" 
d="M117 10v502h-2l-84 -59c-5 -4 -11 -2 -11 7v134c0 6 2 10 8 15l88 65c5 4 9 6 16 6h126c6 0 10 -4 10 -10v-660c0 -6 -4 -10 -10 -10h-131c-6 0 -10 4 -10 10z" />
    <glyph glyph-name="two.prop" horiz-adv-x="426" 
d="M30 10v108c0 6 1 12 5 18l172 250c28 40 36 60 36 115c0 25 -1 33 -3 40c-5 13 -14 21 -30 21s-26 -8 -31 -21c-2 -7 -3 -15 -3 -53c0 -8 -5 -11 -12 -10l-124 12c-7 1 -10 5 -10 12c0 35 2 58 9 79c21 69 81 109 173 109c93 0 150 -41 173 -109c6 -20 9 -44 9 -80
c0 -76 -13 -117 -55 -176l-134 -191v-1h179c6 0 10 -4 10 -10v-113c0 -6 -4 -10 -10 -10h-344c-6 0 -10 4 -10 10z" />
    <glyph glyph-name="three.prop" horiz-adv-x="426" 
d="M40 99c-7 21 -10 44 -10 71c0 7 3 11 10 12l124 12c7 1 12 -2 12 -10c0 -30 1 -39 4 -46c5 -13 14 -20 30 -20s26 7 30 21c2 7 3 16 3 61c0 44 -1 54 -3 61c-5 16 -18 21 -39 21h-16c-6 0 -10 4 -10 10v114c0 6 4 10 10 10h19c19 0 31 5 36 20c2 6 3 14 3 58
c0 31 -1 40 -3 47c-4 14 -14 21 -30 21s-25 -7 -30 -20c-3 -7 -4 -23 -4 -46c0 -8 -5 -11 -12 -10l-124 12c-7 1 -10 5 -10 12c0 27 3 50 10 71c22 68 80 109 172 109c93 0 149 -40 172 -109c7 -20 10 -45 10 -87c0 -34 -2 -53 -9 -72c-10 -29 -28 -50 -55 -66v-2
c28 -16 46 -35 56 -66c6 -17 8 -35 8 -90c0 -54 -3 -79 -10 -99c-23 -69 -79 -109 -172 -109c-92 0 -150 41 -172 109z" />
    <glyph glyph-name="four.prop" horiz-adv-x="451" 
d="M39 104c-6 0 -10 4 -10 10v122c0 4 1 8 2 11l129 425c2 6 5 8 11 8h130c6 0 9 -3 7 -10l-128 -431v-2h61c4 0 6 2 6 6v119c0 6 4 10 10 10h122c6 0 10 -4 10 -10v-119c0 -4 1 -6 5 -6h26c6 0 10 -4 10 -10v-113c0 -6 -4 -10 -10 -10h-25c-4 0 -6 -2 -6 -6v-88
c0 -6 -4 -10 -10 -10h-122c-6 0 -10 4 -10 10v88c0 4 -2 6 -6 6h-202z" />
    <glyph glyph-name="five.prop" horiz-adv-x="432" 
d="M45 99c-7 21 -9 44 -9 66c0 7 3 11 10 12l124 12c7 1 12 -2 12 -10c0 -25 1 -33 3 -40c5 -13 15 -21 31 -21s25 7 30 21c2 7 3 16 3 83s-1 76 -3 83c-5 14 -15 21 -31 21c-18 0 -28 -9 -33 -25c-2 -6 -6 -10 -13 -10h-115c-6 0 -9 4 -9 10v369c0 6 4 10 10 10h333
c6 0 10 -4 10 -10v-113c0 -6 -4 -10 -10 -10h-204c-4 0 -6 -2 -6 -6v-115h2c14 12 39 24 77 24c68 0 111 -28 131 -88c9 -25 12 -53 12 -140c0 -78 -3 -103 -9 -123c-23 -68 -81 -109 -173 -109s-152 40 -173 109z" />
    <glyph glyph-name="six.prop" horiz-adv-x="433" 
d="M42 100c-7 21 -10 44 -10 101c0 91 11 134 38 193l127 277c3 6 8 9 15 9h132c7 0 10 -5 7 -12l-116 -261c1 0 1 -1 2 -2c4 2 14 4 25 4c66 0 108 -37 128 -99c7 -22 11 -49 11 -109c0 -57 -3 -80 -10 -101c-23 -71 -83 -110 -175 -110c-91 0 -151 39 -174 110zM186 139
c5 -13 15 -21 30 -21c16 0 26 8 31 21c2 7 3 16 3 62s-1 54 -3 61c-5 14 -15 21 -31 21c-15 0 -25 -7 -30 -21c-2 -7 -3 -15 -3 -61s1 -55 3 -62z" />
    <glyph glyph-name="seven.prop" horiz-adv-x="423" 
d="M80 12l166 536v2h-81c-4 0 -6 -2 -6 -6v-49c0 -6 -4 -10 -10 -10h-109c-6 0 -10 4 -10 10v175c0 6 4 10 10 10h348c6 0 10 -4 10 -10v-106c0 -5 -1 -8 -2 -12l-164 -542c-2 -7 -6 -10 -13 -10h-132c-7 0 -10 4 -7 12z" />
    <glyph glyph-name="eight.prop" horiz-adv-x="433" 
d="M42 100c-7 21 -10 44 -10 98c0 47 2 68 10 91c10 32 30 53 50 65v2c-23 14 -41 37 -51 70c-7 20 -9 41 -9 71c0 39 3 62 10 83c23 71 83 110 174 110c92 0 152 -39 175 -110c7 -21 10 -44 10 -83c0 -30 -2 -51 -9 -71c-10 -33 -29 -56 -51 -70v-2c20 -12 39 -33 50 -65
c8 -23 10 -44 10 -91c0 -54 -3 -77 -10 -98c-23 -71 -83 -110 -175 -110c-91 0 -151 39 -174 110zM216 413c16 0 26 7 31 21c2 7 3 15 3 53s-1 47 -3 54c-5 13 -15 21 -31 21c-15 0 -25 -8 -30 -21c-2 -7 -3 -16 -3 -54s1 -46 3 -53c5 -14 15 -21 30 -21zM186 139
c5 -13 15 -21 30 -21c16 0 26 8 31 21c2 7 3 15 3 63c0 47 -1 55 -3 62c-5 13 -15 21 -31 21c-15 0 -25 -8 -30 -21c-2 -7 -3 -15 -3 -62c0 -48 1 -56 3 -63z" />
    <glyph glyph-name="nine.prop" horiz-adv-x="433" 
d="M82 12l116 261c-1 0 -1 1 -2 2c-4 -2 -14 -4 -25 -4c-66 0 -108 37 -128 99c-7 22 -11 49 -11 109c0 57 3 80 10 101c23 71 83 110 175 110c91 0 151 -39 174 -110c7 -21 10 -44 10 -101c0 -91 -11 -134 -38 -193l-127 -277c-3 -6 -8 -9 -15 -9h-132c-7 0 -10 5 -7 12z
M217 397c15 0 25 7 30 21c2 7 3 15 3 61s-1 55 -3 62c-5 13 -15 21 -30 21c-16 0 -26 -8 -31 -21c-2 -7 -3 -16 -3 -62s1 -54 3 -61c5 -14 15 -21 31 -21z" />
    <glyph glyph-name="Euro.prop" horiz-adv-x="448" 
d="M245 -10c-93 0 -146 39 -169 111c-9 27 -13 57 -13 127c0 4 -2 6 -6 6h-33c-6 0 -10 4 -10 10v66c0 6 4 10 10 10h33c4 0 6 2 6 6v30c0 4 -2 6 -6 6h-33c-6 0 -10 4 -10 10v65c0 6 4 10 10 10h33c4 0 6 2 6 6c0 69 4 99 13 126c23 72 76 111 169 111
c115 0 173 -61 180 -155c1 -7 -2 -11 -9 -12l-123 -20c-6 -1 -11 2 -12 9c-2 34 -11 50 -34 50c-15 0 -24 -8 -29 -21c-3 -10 -4 -19 -4 -88c0 -4 2 -6 6 -6h126c6 0 10 -4 10 -10l-10 -65c-1 -7 -4 -10 -10 -10h-116c-4 0 -6 -2 -6 -6v-30c0 -4 2 -6 6 -6h111
c6 0 10 -4 10 -10l-10 -66c-1 -7 -4 -10 -10 -10h-101c-4 0 -6 -2 -6 -6c0 -70 1 -79 4 -89c5 -13 14 -21 29 -21c23 0 32 16 34 50c1 7 6 10 12 9l123 -20c7 -1 10 -5 9 -12c-7 -94 -65 -155 -180 -155z" />
    <glyph glyph-name="cent.prop" horiz-adv-x="416" 
d="M387 130c-8 -77 -55 -126 -134 -137v-80c0 -6 -4 -10 -10 -10h-65c-6 0 -10 4 -10 10v81c-64 11 -106 45 -125 105c-10 30 -13 60 -13 144c0 85 3 115 13 145c19 59 61 94 125 105v80c0 6 4 10 10 10h65c6 0 10 -4 10 -10v-79c79 -12 126 -60 134 -137
c1 -6 -1 -11 -7 -12l-117 -20c-8 -1 -12 1 -12 8c-3 25 -14 36 -35 36c-18 0 -26 -7 -31 -20c-3 -8 -4 -18 -4 -106c0 -87 1 -97 4 -105c5 -13 13 -20 31 -20c21 0 32 11 35 36c0 7 4 9 12 8l117 -20c6 -1 8 -6 7 -12z" />
    <glyph glyph-name="dollar.prop" horiz-adv-x="426" 
d="M170 -7c-104 13 -143 80 -146 181c0 6 2 11 8 12l122 21c8 1 11 -3 11 -9c2 -64 16 -80 46 -80c28 0 40 12 40 71c0 53 -11 71 -59 90l-41 16c-87 34 -121 87 -121 194c0 115 44 183 140 198v61c0 6 4 10 10 10h69c6 0 10 -4 10 -10v-62c89 -14 129 -74 137 -168
c0 -7 -3 -10 -9 -11l-121 -19c-6 -1 -10 2 -11 8c-3 51 -14 66 -40 66s-37 -15 -37 -59c0 -42 9 -60 60 -80l41 -16c90 -35 120 -87 120 -201c0 -128 -45 -197 -140 -212v-68c0 -6 -4 -10 -10 -10h-69c-6 0 -10 4 -10 10v67z" />
    <glyph glyph-name="sterling.prop" horiz-adv-x="456" 
d="M410 0h-361c-6 0 -10 4 -10 10v105c0 6 2 10 6 14c18 21 24 40 24 90v49c0 4 -2 6 -6 6h-27c-6 0 -10 4 -10 10v84c0 6 4 10 10 10h27c4 0 6 2 6 6v131c0 114 66 175 178 175c119 0 174 -68 177 -160c1 -7 -2 -11 -9 -12l-125 -19c-7 -1 -10 3 -11 9c-1 40 -9 54 -30 54
s-29 -14 -29 -44v-134c0 -4 2 -6 6 -6h102c6 0 10 -4 10 -10v-84c0 -6 -4 -10 -10 -10h-102c-4 0 -6 -2 -6 -6v-51c0 -39 -6 -66 -25 -86v-3h215c6 0 10 -4 10 -10v-108c0 -6 -4 -10 -10 -10z" />
    <glyph glyph-name="florin.prop" horiz-adv-x="440" 
d="M377 307h-77l-43 -321c-16 -116 -74 -166 -195 -166h-30c-6 0 -10 4 -10 10v104c0 6 4 10 10 10h14c38 0 57 13 62 49l43 314h-58c-6 0 -10 4 -10 10v93c0 6 4 10 10 10h73l13 94c16 116 74 166 195 166h30c6 0 10 -4 10 -10v-104c0 -6 -4 -10 -10 -10h-14
c-38 0 -57 -13 -62 -49l-12 -87h61c6 0 10 -4 10 -10v-93c0 -6 -4 -10 -10 -10z" />
    <glyph glyph-name="yen.prop" horiz-adv-x="439" 
d="M285 0h-131c-6 0 -10 4 -10 10v83c0 4 -2 6 -6 6h-83c-6 0 -10 4 -10 10v69c0 6 4 10 10 10h83c4 0 6 2 6 6v27c0 4 -2 6 -6 6h-83c-6 0 -10 4 -10 10v68c0 6 4 10 10 10h72v3l-112 352c-2 7 2 10 8 10h131c7 0 11 -4 12 -10l54 -234h3l52 234c1 6 5 10 12 10h129
c7 0 10 -3 8 -10l-112 -352v-3h72c6 0 10 -4 10 -10v-68c0 -6 -4 -10 -10 -10h-83c-4 0 -6 -2 -6 -6v-27c0 -4 2 -6 6 -6h83c6 0 10 -4 10 -10v-69c0 -6 -4 -10 -10 -10h-83c-4 0 -6 -2 -6 -6v-83c0 -6 -4 -10 -10 -10z" />
    <glyph glyph-name="zero.onumprop" horiz-adv-x="436" 
d="M218 -10c-89 0 -149 40 -172 112c-9 28 -14 58 -14 141c0 84 5 114 14 142c23 72 83 112 172 112c90 0 150 -40 173 -112c9 -28 13 -58 13 -142c0 -83 -4 -113 -13 -141c-23 -72 -83 -112 -173 -112zM218 118c16 0 27 8 30 21c3 9 4 19 4 104c0 86 -1 96 -4 105
c-4 13 -14 21 -30 21c-15 0 -25 -8 -29 -21c-3 -9 -4 -19 -4 -105c0 -85 1 -96 4 -104c4 -13 14 -21 29 -21z" />
    <glyph glyph-name="one.onumprop" horiz-adv-x="331" 
d="M261 0h-131c-6 0 -10 4 -10 10v325h-2l-90 -31c-7 -3 -12 0 -12 8v119c0 7 1 11 8 14l92 38c4 2 10 4 17 4h128c6 0 10 -4 10 -10v-467c0 -6 -4 -10 -10 -10z" />
    <glyph glyph-name="two.onumprop" horiz-adv-x="425" 
d="M385 0h-345c-6 0 -10 4 -10 10v97c0 8 3 14 8 18l161 117c35 26 45 40 45 82c0 9 -1 18 -4 25c-5 14 -14 20 -30 20s-25 -6 -30 -20c-3 -7 -4 -18 -4 -42c0 -8 -5 -11 -12 -10l-124 12c-7 1 -10 5 -10 12c0 23 3 48 10 68c22 69 80 108 173 108c91 0 150 -39 172 -107
c7 -20 10 -41 10 -66c0 -70 -26 -105 -71 -140l-78 -61v-1h139c6 0 10 -4 10 -10v-102c0 -6 -4 -10 -10 -10z" />
    <glyph glyph-name="three.onumprop" horiz-adv-x="423" 
d="M209 -190c-93 0 -150 41 -173 110c-7 20 -10 43 -10 70c0 7 3 11 10 12l125 12c7 1 12 -2 12 -10c0 -30 1 -38 3 -45c5 -13 15 -21 30 -21c16 0 26 8 31 21c2 7 3 15 3 66c0 47 -1 56 -3 63c-6 16 -19 24 -42 24h-34c-6 0 -10 4 -10 10v114c0 6 1 11 5 15l75 100v3h-186
c-6 0 -10 4 -10 10v113c0 6 4 10 10 10h336c6 0 10 -4 10 -10v-115c0 -7 -2 -11 -5 -15l-89 -115v-2c35 -9 67 -27 83 -77c9 -27 11 -51 11 -128c0 -59 -3 -86 -10 -106c-22 -68 -80 -109 -172 -109z" />
    <glyph glyph-name="four.onumprop" horiz-adv-x="451" 
d="M380 -180h-124c-6 0 -10 4 -10 10v164c0 4 -2 6 -6 6h-204c-6 0 -10 4 -10 10v121c0 4 1 7 2 10l114 345c2 6 5 8 11 8h130c6 0 9 -4 7 -11l-111 -348v-2h61c4 0 6 2 6 6v91c0 6 4 10 10 10h124c6 0 10 -4 10 -10v-91c0 -4 1 -6 5 -6h27c6 0 10 -4 10 -10v-113
c0 -6 -4 -10 -10 -10h-26c-4 0 -6 -2 -6 -6v-164c0 -6 -4 -10 -10 -10z" />
    <glyph glyph-name="five.onumprop" horiz-adv-x="431" 
d="M217 -190c-93 0 -150 41 -173 110c-7 20 -10 43 -10 64c0 7 3 11 10 12l125 13c7 1 12 -2 12 -10c0 -25 1 -33 3 -40c5 -13 15 -21 30 -21c16 0 26 8 31 21c2 7 3 15 3 77c0 61 -1 69 -3 76c-5 14 -16 21 -31 21c-18 0 -28 -9 -33 -24c-2 -7 -6 -10 -13 -10h-115
c-6 0 -9 3 -9 10v368c0 6 4 10 10 10h333c6 0 10 -4 10 -10v-113c0 -6 -4 -10 -10 -10h-204c-4 0 -6 -2 -6 -6v-114h2c14 12 39 23 77 23c68 0 112 -27 131 -88c8 -24 12 -52 12 -133c0 -73 -3 -97 -10 -117c-22 -68 -80 -109 -172 -109z" />
    <glyph glyph-name="six.onumprop" horiz-adv-x="434" 
d="M217 -10c-91 0 -151 39 -174 110c-7 21 -11 44 -11 101c0 91 12 134 39 193l127 278c3 5 7 8 15 8h132c7 0 10 -5 7 -12l-116 -261l2 -2c4 2 14 4 25 4c66 0 107 -37 128 -99c7 -22 11 -49 11 -109c0 -57 -4 -80 -10 -101c-23 -71 -83 -110 -175 -110zM217 118
c16 0 26 8 30 21c3 7 4 16 4 62s-1 54 -4 61c-4 14 -14 21 -30 21c-15 0 -26 -7 -30 -21c-2 -7 -3 -15 -3 -61s1 -55 3 -62c4 -13 15 -21 30 -21z" />
    <glyph glyph-name="seven.onumprop" horiz-adv-x="425" 
d="M222 -180h-132c-6 0 -9 4 -7 12l163 523v2h-81c-4 0 -6 -2 -6 -6v-50c0 -6 -4 -10 -10 -10h-109c-6 0 -10 4 -10 10v176c0 6 4 10 10 10h348c6 0 10 -4 10 -10v-105c0 -5 -1 -9 -2 -13l-161 -529c-2 -7 -5 -10 -13 -10z" />
    <glyph glyph-name="eight.onumprop" horiz-adv-x="434" 
d="M217 -10c-91 0 -151 39 -174 110c-7 21 -11 44 -11 98c0 47 3 68 11 91c10 32 30 53 50 65v2c-23 14 -41 37 -52 70c-6 20 -9 41 -9 71c0 39 4 62 11 83c23 71 83 110 174 110c92 0 152 -39 175 -110c6 -21 10 -44 10 -83c0 -30 -3 -51 -9 -71c-11 -33 -29 -56 -51 -70
v-2c20 -12 39 -33 50 -65c7 -23 10 -44 10 -91c0 -54 -4 -77 -10 -98c-23 -71 -83 -110 -175 -110zM217 413c16 0 26 7 30 21c3 7 4 15 4 53s-1 47 -4 54c-4 13 -14 21 -30 21c-15 0 -26 -8 -30 -21c-2 -7 -3 -16 -3 -54s1 -46 3 -53c4 -14 15 -21 30 -21zM217 118
c16 0 26 8 30 21c3 7 4 16 4 63c0 46 -1 55 -4 62c-4 13 -14 21 -30 21c-15 0 -26 -8 -30 -21c-2 -7 -3 -16 -3 -62c0 -47 1 -56 3 -63c4 -13 15 -21 30 -21z" />
    <glyph glyph-name="nine.onumprop" horiz-adv-x="434" 
d="M227 -180h-131c-7 0 -10 5 -7 12l110 248c-1 0 -2 1 -2 2c-5 -2 -14 -4 -25 -4c-66 0 -107 37 -128 99c-8 22 -12 49 -12 109c0 57 4 80 11 101c23 70 83 110 174 110c92 0 153 -40 175 -110c6 -21 10 -44 10 -101c0 -91 -12 -134 -39 -193l-121 -265c-3 -5 -7 -8 -15 -8
zM217 203c16 0 26 8 30 21c3 8 4 16 4 62s-1 54 -4 62c-4 13 -14 21 -30 21c-15 0 -26 -8 -30 -21c-2 -8 -3 -16 -3 -62s1 -54 3 -62c4 -13 15 -21 30 -21z" />
    <glyph glyph-name="zero.inferior" unicode="&#x2080;" horiz-adv-x="315" 
d="M158 -163c-69 0 -109 29 -126 79c-6 19 -8 38 -8 131s2 112 8 131c17 50 57 79 126 79c68 0 109 -29 125 -79c6 -19 8 -38 8 -131s-2 -112 -8 -131c-16 -50 -57 -79 -125 -79zM158 -73c10 0 16 5 19 14c2 6 2 10 2 106s0 100 -2 106c-3 9 -9 14 -19 14s-17 -5 -20 -14
c-2 -6 -2 -10 -2 -106s0 -100 2 -106c3 -9 10 -14 20 -14z" />
    <glyph glyph-name="one.inferior" unicode="&#x2081;" horiz-adv-x="315" 
d="M226 -156h-92c-6 0 -10 4 -10 10v276h-2l-56 -33c-5 -3 -10 -1 -10 5v92c0 6 2 10 7 13l58 37c6 4 10 6 16 6h89c6 0 10 -4 10 -10v-386c0 -6 -4 -10 -10 -10z" />
    <glyph glyph-name="two.inferior" unicode="&#x2082;" horiz-adv-x="315" 
d="M274 -156h-228c-6 0 -10 4 -10 10v71c0 7 2 12 6 16l114 141c18 21 21 30 21 50c0 13 -1 20 -3 24c-3 7 -8 11 -19 11s-18 -5 -20 -12c-2 -6 -2 -10 -2 -29c0 -8 -5 -11 -12 -10l-84 9c-7 1 -10 4 -10 12c0 24 2 36 6 48c14 45 59 72 125 72c65 0 110 -26 125 -72
c4 -12 6 -24 6 -52c0 -39 -11 -63 -37 -98l-70 -94v-2h92c6 0 10 -4 10 -10v-75c0 -6 -4 -10 -10 -10z" />
    <glyph glyph-name="three.inferior" unicode="&#x2083;" horiz-adv-x="315" 
d="M157 -163c-66 0 -111 27 -125 72c-4 11 -6 23 -6 34c0 7 3 11 10 12l85 8c7 1 12 -1 12 -10c0 -7 1 -12 2 -15c2 -6 9 -11 20 -11s17 6 19 13c1 4 2 9 2 25c0 14 -1 19 -2 24c-3 11 -12 14 -25 14h-7c-6 0 -10 4 -10 10v77c0 6 4 10 10 10h11c11 0 18 4 21 12
c2 4 2 9 2 21s-1 17 -2 21c-2 7 -8 13 -19 13s-18 -5 -20 -11c-1 -3 -2 -8 -2 -15c0 -9 -5 -11 -12 -10l-85 8c-7 1 -10 5 -10 12c0 11 2 23 6 34c14 45 59 72 125 72s112 -27 126 -72c3 -11 5 -24 5 -44c0 -19 -1 -29 -4 -40c-7 -20 -20 -34 -41 -44v-2
c20 -10 33 -23 40 -44c4 -12 5 -25 5 -50c0 -28 -2 -41 -5 -52c-14 -45 -60 -72 -126 -72z" />
    <glyph glyph-name="four.inferior" unicode="&#x2084;" horiz-adv-x="315" 
d="M265 -156h-82c-6 0 -10 4 -10 10v41c0 4 -2 6 -6 6h-137c-6 0 -10 4 -10 10v79c0 6 1 10 3 16l81 234c2 6 6 10 13 10h92c6 0 9 -4 7 -10l-83 -242v-3h34c4 0 6 2 6 6v60c0 6 4 10 10 10h82c6 0 10 -4 10 -10v-60c0 -4 1 -6 5 -6h9c6 0 10 -4 10 -10v-74
c0 -6 -4 -10 -10 -10h-8c-4 0 -6 -2 -6 -6v-41c0 -6 -4 -10 -10 -10z" />
    <glyph glyph-name="five.inferior" unicode="&#x2085;" horiz-adv-x="315" 
d="M158 -163c-66 0 -112 27 -126 72c-4 11 -5 23 -5 30c0 8 3 11 10 12l84 9c7 1 12 -2 12 -10c0 -4 1 -9 3 -13c2 -5 8 -10 19 -10s16 5 19 12c2 4 3 10 3 38c0 27 -1 33 -3 37c-3 7 -8 12 -19 12s-17 -6 -21 -15c-2 -5 -6 -7 -11 -7h-80c-6 0 -10 4 -10 10v226
c0 6 4 10 10 10h230c6 0 10 -4 10 -10v-76c0 -6 -4 -10 -10 -10h-135c-4 0 -6 -2 -6 -6v-48h2c9 7 28 11 52 11c49 0 83 -18 96 -61c5 -15 7 -31 7 -73c0 -41 -2 -54 -7 -68c-15 -46 -59 -72 -124 -72z" />
    <glyph glyph-name="six.inferior" unicode="&#x2086;" horiz-adv-x="315" 
d="M158 -163c-66 0 -113 27 -128 72c-4 13 -6 26 -6 59c0 49 8 75 29 115l82 157c4 7 8 10 14 10h97c6 0 10 -4 7 -10l-75 -147l1 -1c3 1 9 2 14 2c45 0 78 -24 91 -65c5 -14 7 -30 7 -61c0 -33 -2 -46 -6 -59c-15 -45 -62 -72 -127 -72zM179 -32c0 18 -1 22 -2 26
c-3 9 -8 13 -19 13s-17 -4 -20 -13c-1 -4 -2 -8 -2 -26c0 -20 1 -24 2 -28c2 -7 9 -13 20 -13s17 6 19 13c1 4 2 8 2 28z" />
    <glyph glyph-name="seven.inferior" unicode="&#x2087;" horiz-adv-x="315" 
d="M172 -156h-93c-6 0 -9 4 -7 10l101 301v2h-37c-4 0 -6 -2 -6 -6v-29c0 -6 -4 -10 -10 -10h-80c-6 0 -10 4 -10 10v118c0 6 4 10 10 10h238c6 0 10 -4 10 -10v-68c0 -7 -1 -14 -3 -20l-100 -298c-2 -7 -6 -10 -13 -10z" />
    <glyph glyph-name="eight.inferior" unicode="&#x2088;" horiz-adv-x="315" 
d="M158 -163c-66 0 -113 28 -128 73c-4 12 -6 25 -6 52c0 24 2 37 5 47c8 22 22 37 38 46v1c-17 11 -32 26 -39 47c-3 9 -4 20 -4 33c0 23 2 36 6 48c15 45 62 73 128 73c65 0 112 -28 127 -73c4 -12 6 -25 6 -48c0 -13 -1 -24 -4 -33c-7 -21 -22 -36 -39 -47v-1
c16 -9 30 -24 38 -46c3 -10 5 -23 5 -47c0 -27 -2 -40 -6 -52c-15 -45 -62 -73 -127 -73zM179 132c0 15 -1 19 -2 22c-2 7 -8 13 -19 13s-18 -6 -20 -13c-1 -3 -2 -7 -2 -22s1 -20 2 -23c2 -7 9 -13 20 -13s17 6 19 13c1 3 2 8 2 23zM179 -33c0 17 -1 22 -2 26
c-2 7 -8 13 -19 13s-18 -6 -20 -13c-1 -4 -2 -9 -2 -26c0 -19 1 -23 2 -27c2 -7 9 -13 20 -13s17 6 19 13c1 4 2 8 2 27z" />
    <glyph glyph-name="nine.inferior" unicode="&#x2089;" horiz-adv-x="315" 
d="M166 -156h-97c-6 0 -10 4 -7 10l75 147l-1 1c-3 -1 -9 -2 -14 -2c-45 0 -78 24 -91 65c-5 14 -7 30 -7 61c0 33 2 46 6 59c15 45 62 72 127 72c66 0 113 -27 128 -72c4 -13 6 -26 6 -59c0 -49 -8 -75 -29 -115l-82 -157c-4 -7 -8 -10 -14 -10zM157 87c11 0 17 4 20 13
c1 4 2 8 2 26c0 20 -1 24 -2 28c-2 7 -9 13 -20 13s-17 -6 -19 -13c-1 -4 -2 -8 -2 -28c0 -18 1 -22 2 -26c3 -9 8 -13 19 -13z" />
    <glyph glyph-name="zero.superior" unicode="&#x2070;" horiz-adv-x="315" 
d="M158 423c-69 0 -109 29 -126 79c-6 19 -8 38 -8 131s2 112 8 131c17 50 57 79 126 79c68 0 109 -29 125 -79c6 -19 8 -38 8 -131s-2 -112 -8 -131c-16 -50 -57 -79 -125 -79zM158 513c10 0 16 5 19 14c2 6 2 10 2 106s0 100 -2 106c-3 9 -9 14 -19 14s-17 -5 -20 -14
c-2 -6 -2 -10 -2 -106s0 -100 2 -106c3 -9 10 -14 20 -14z" />
    <glyph glyph-name="one.superior" horiz-adv-x="315" 
d="M226 430h-92c-6 0 -10 4 -10 10v276h-2l-56 -33c-5 -3 -10 -1 -10 5v92c0 6 2 10 7 13l58 37c6 4 10 6 16 6h89c6 0 10 -4 10 -10v-386c0 -6 -4 -10 -10 -10z" />
    <glyph glyph-name="two.superior" horiz-adv-x="315" 
d="M274 430h-228c-6 0 -10 4 -10 10v71c0 7 2 12 6 16l114 141c18 21 21 30 21 50c0 13 -1 20 -3 24c-3 7 -8 11 -19 11s-18 -5 -20 -12c-2 -6 -2 -10 -2 -29c0 -8 -5 -11 -12 -10l-84 9c-7 1 -10 4 -10 12c0 24 2 36 6 48c14 45 59 72 125 72c65 0 110 -26 125 -72
c4 -12 6 -24 6 -52c0 -39 -11 -63 -37 -98l-70 -94v-2h92c6 0 10 -4 10 -10v-75c0 -6 -4 -10 -10 -10z" />
    </font>
</defs>
</svg>
